<?xml version="1.0" encoding="UTF-8" standalone="no"?>
<!DOCTYPE svg PUBLIC "-//W3C//DTD SVG 1.1//EN"
 "http://www.w3.org/Graphics/SVG/1.1/DTD/svg11.dtd">
<!-- Generated by graphviz version 2.40.1 (20161225.0304)
 -->
<!-- Title: dependencies Pages: 1 -->
<svg width="604pt" height="211pt"
 viewBox="0.00 0.00 604.00 211.00" xmlns="http://www.w3.org/2000/svg" xmlns:xlink="http://www.w3.org/1999/xlink">
<g id="graph0" class="graph" transform="scale(1 1) rotate(0) translate(4 207)">
<title>dependencies</title>
<polygon fill="#ffffff" stroke="transparent" points="-4,4 -4,-207 600,-207 600,4 -4,4"/>
<text text-anchor="start" x="277.0091" y="-42.4" font-family="sans-serif" font-weight="bold" font-size="14.00" fill="#000000">Legend</text>
<polygon fill="#ffffb3" stroke="transparent" points="64,-10 64,-30 84,-30 84,-10 64,-10"/>
<text text-anchor="start" x="87.629" y="-15.4" font-family="sans-serif" font-size="14.00" fill="#000000"> &#160;Declarations</text>
<polygon fill="#8dd3c7" stroke="transparent" points="177,-10 177,-30 197,-30 197,-10 177,-10"/>
<text text-anchor="start" x="200.7251" y="-15.4" font-family="sans-serif" font-size="14.00" fill="#000000"> &#160;Module</text>
<polygon fill="#80b1d3" stroke="transparent" points="263,-10 263,-30 283,-30 283,-10 263,-10"/>
<text text-anchor="start" x="286.7812" y="-15.4" font-family="sans-serif" font-size="14.00" fill="#000000"> &#160;Bootstrap</text>
<polygon fill="#fdb462" stroke="transparent" points="360,-10 360,-30 380,-30 380,-10 360,-10"/>
<text text-anchor="start" x="383.6732" y="-15.4" font-family="sans-serif" font-size="14.00" fill="#000000"> &#160;Providers</text>
<polygon fill="#fb8072" stroke="transparent" points="456,-10 456,-30 476,-30 476,-10 456,-10"/>
<text text-anchor="start" x="479.7258" y="-15.4" font-family="sans-serif" font-size="14.00" fill="#000000"> &#160;Exports</text>
<g id="clust1" class="cluster">
<title>cluster_HomeModule</title>
<polygon fill="none" stroke="#000000" stroke-dasharray="1,5" points="8,-70 8,-195 588,-195 588,-70 8,-70"/>
</g>
<g id="clust2" class="cluster">
<title>cluster_HomeModule_declarations</title>
<polygon fill="none" stroke="#000000" points="448,-78 448,-130 580,-130 580,-78 448,-78"/>
</g>
<g id="clust4" class="cluster">
<title>cluster_HomeModule_imports</title>
<polygon fill="none" stroke="#000000" points="216,-78 216,-130 440,-130 440,-78 216,-78"/>
</g>
<g id="clust7" class="cluster">
<title>cluster_HomeModule_providers</title>
<polygon fill="none" stroke="#000000" points="16,-78 16,-130 208,-130 208,-78 16,-78"/>
</g>
<!-- HomeComponent -->
<g id="node1" class="node">
<title>HomeComponent</title>
<polygon fill="#ffffb3" stroke="#000000" points="571.5451,-122 456.4549,-122 456.4549,-86 571.5451,-86 571.5451,-122"/>
<text text-anchor="middle" x="514" y="-99.8" font-family="Times,serif" font-size="14.00" fill="#000000">HomeComponent</text>
</g>
<!-- HomeModule -->
<g id="node2" class="node">
<title>HomeModule</title>
<polygon fill="#8dd3c7" stroke="#000000" points="375.7619,-187 372.7619,-191 351.7619,-191 348.7619,-187 282.2381,-187 282.2381,-151 375.7619,-151 375.7619,-187"/>
<text text-anchor="middle" x="329" y="-164.8" font-family="Times,serif" font-size="14.00" fill="#000000">HomeModule</text>
</g>
<!-- HomeComponent&#45;&gt;HomeModule -->
<g id="edge1" class="edge">
<title>HomeComponent&#45;&gt;HomeModule</title>
<path fill="none" stroke="#000000" d="M514,-122.1061C514,-141.3391 514,-169 514,-169 514,-169 386.162,-169 386.162,-169"/>
<polygon fill="#000000" stroke="#000000" points="386.162,-165.5001 376.162,-169 386.1619,-172.5001 386.162,-165.5001"/>
</g>
<!-- homeRouting -->
<g id="node3" class="node">
<title>homeRouting</title>
<polygon fill="#8dd3c7" stroke="#000000" points="432.2233,-122 429.2233,-126 408.2233,-126 405.2233,-122 339.7767,-122 339.7767,-86 432.2233,-86 432.2233,-122"/>
<text text-anchor="middle" x="386" y="-99.8" font-family="Times,serif" font-size="14.00" fill="#000000">homeRouting</text>
</g>
<!-- homeRouting&#45;&gt;HomeModule -->
<g id="edge2" class="edge">
<title>homeRouting&#45;&gt;HomeModule</title>
<path fill="none" stroke="#000000" d="M357.8847,-122.1061C357.8847,-122.1061 357.8847,-140.991 357.8847,-140.991"/>
<polygon fill="#000000" stroke="#000000" points="354.3847,-140.9909 357.8847,-150.991 361.3847,-140.991 354.3847,-140.9909"/>
</g>
<!-- SharedModule -->
<g id="node4" class="node">
<title>SharedModule</title>
<polygon fill="#8dd3c7" stroke="#000000" points="322.4231,-122 319.4231,-126 298.4231,-126 295.4231,-122 223.5769,-122 223.5769,-86 322.4231,-86 322.4231,-122"/>
<text text-anchor="middle" x="273" y="-99.8" font-family="Times,serif" font-size="14.00" fill="#000000">SharedModule</text>
</g>
<!-- SharedModule&#45;&gt;HomeModule -->
<g id="edge3" class="edge">
<title>SharedModule&#45;&gt;HomeModule</title>
<path fill="none" stroke="#000000" d="M302.1652,-122.1061C302.1652,-122.1061 302.1652,-140.991 302.1652,-140.991"/>
<polygon fill="#000000" stroke="#000000" points="298.6652,-140.9909 302.1652,-150.991 305.6652,-140.991 298.6652,-140.9909"/>
</g>
<!-- HomeAuthResolver -->
<g id="node5" class="node">
<title>HomeAuthResolver</title>
<ellipse fill="#fdb462" stroke="#000000" cx="112" cy="-104" rx="88.0442" ry="18"/>
<text text-anchor="middle" x="112" y="-99.8" font-family="Times,serif" font-size="14.00" fill="#000000">HomeAuthResolver</text>
</g>
<!-- HomeAuthResolver&#45;&gt;HomeModule -->
<g id="edge4" class="edge">
<title>HomeAuthResolver&#45;&gt;HomeModule</title>
<path fill="none" stroke="#000000" d="M112,-122.1061C112,-141.3391 112,-169 112,-169 112,-169 272.1814,-169 272.1814,-169"/>
<polygon fill="#000000" stroke="#000000" points="272.1814,-172.5001 282.1814,-169 272.1814,-165.5001 272.1814,-172.5001"/>
</g>
</g>
</svg>
