<?xml version="1.0" encoding="UTF-8" standalone="no"?>
<!DOCTYPE svg PUBLIC "-//W3C//DTD SVG 1.1//EN"
 "http://www.w3.org/Graphics/SVG/1.1/DTD/svg11.dtd">
<!-- Generated by graphviz version 2.40.1 (20161225.0304)
 -->
<!-- Title: dependencies Pages: 1 -->
<svg width="504pt" height="284pt"
 viewBox="0.00 0.00 504.00 284.00" xmlns="http://www.w3.org/2000/svg" xmlns:xlink="http://www.w3.org/1999/xlink">
<g id="graph0" class="graph" transform="scale(1 1) rotate(0) translate(4 280)">
<title>dependencies</title>
<polygon fill="#ffffff" stroke="transparent" points="-4,4 -4,-280 500,-280 500,4 -4,4"/>
<text text-anchor="start" x="227.0091" y="-42.4" font-family="sans-serif" font-weight="bold" font-size="14.00" fill="#000000">Legend</text>
<polygon fill="#ffffb3" stroke="transparent" points="14,-10 14,-30 34,-30 34,-10 14,-10"/>
<text text-anchor="start" x="37.629" y="-15.4" font-family="sans-serif" font-size="14.00" fill="#000000"> &#160;Declarations</text>
<polygon fill="#8dd3c7" stroke="transparent" points="127,-10 127,-30 147,-30 147,-10 127,-10"/>
<text text-anchor="start" x="150.7251" y="-15.4" font-family="sans-serif" font-size="14.00" fill="#000000"> &#160;Module</text>
<polygon fill="#80b1d3" stroke="transparent" points="213,-10 213,-30 233,-30 233,-10 213,-10"/>
<text text-anchor="start" x="236.7812" y="-15.4" font-family="sans-serif" font-size="14.00" fill="#000000"> &#160;Bootstrap</text>
<polygon fill="#fdb462" stroke="transparent" points="310,-10 310,-30 330,-30 330,-10 310,-10"/>
<text text-anchor="start" x="333.6732" y="-15.4" font-family="sans-serif" font-size="14.00" fill="#000000"> &#160;Providers</text>
<polygon fill="#fb8072" stroke="transparent" points="406,-10 406,-30 426,-30 426,-10 406,-10"/>
<text text-anchor="start" x="429.7258" y="-15.4" font-family="sans-serif" font-size="14.00" fill="#000000"> &#160;Exports</text>
<g id="clust1" class="cluster">
<title>cluster_NavigationModuleModule</title>
<polygon fill="none" stroke="#000000" stroke-dasharray="1,5" points="46.5,-70 46.5,-268 449.5,-268 449.5,-70 46.5,-70"/>
</g>
<g id="clust2" class="cluster">
<title>cluster_NavigationModuleModule_declarations</title>
<polygon fill="none" stroke="#000000" points="303.5,-78 303.5,-130 441.5,-130 441.5,-78 303.5,-78"/>
</g>
<g id="clust4" class="cluster">
<title>cluster_NavigationModuleModule_imports</title>
<polygon fill="none" stroke="#000000" points="54.5,-78 54.5,-130 295.5,-130 295.5,-78 54.5,-78"/>
</g>
<g id="clust5" class="cluster">
<title>cluster_NavigationModuleModule_exports</title>
<polygon fill="none" stroke="#000000" points="160.5,-208 160.5,-260 302.5,-260 302.5,-208 160.5,-208"/>
</g>
<!-- NavbarComponent -->
<g id="node1" class="node">
<title>NavbarComponent</title>
<polygon fill="#ffffb3" stroke="#000000" points="433.5297,-122 311.4703,-122 311.4703,-86 433.5297,-86 433.5297,-122"/>
<text text-anchor="middle" x="372.5" y="-99.8" font-family="Times,serif" font-size="14.00" fill="#000000">NavbarComponent</text>
</g>
<!-- NavigationModuleModule -->
<g id="node2" class="node">
<title>NavigationModuleModule</title>
<polygon fill="#8dd3c7" stroke="#000000" points="314.3075,-187 311.3075,-191 290.3075,-191 287.3075,-187 148.6925,-187 148.6925,-151 314.3075,-151 314.3075,-187"/>
<text text-anchor="middle" x="231.5" y="-164.8" font-family="Times,serif" font-size="14.00" fill="#000000">NavigationModuleModule</text>
</g>
<!-- NavbarComponent&#45;&gt;NavigationModuleModule -->
<g id="edge1" class="edge">
<title>NavbarComponent&#45;&gt;NavigationModuleModule</title>
<path fill="none" stroke="#000000" d="M311.3747,-104C304.1511,-104 299.2847,-104 299.2847,-104 299.2847,-104 299.2847,-140.8939 299.2847,-140.8939"/>
<polygon fill="#000000" stroke="#000000" points="295.7848,-140.8938 299.2847,-150.8939 302.7848,-140.8939 295.7848,-140.8938"/>
</g>
<!-- NavbarComponent  -->
<g id="node5" class="node">
<title>NavbarComponent </title>
<polygon fill="#fb8072" stroke="#000000" points="294.5288,-252 168.4712,-252 168.4712,-216 294.5288,-216 294.5288,-252"/>
<text text-anchor="middle" x="231.5" y="-229.8" font-family="Times,serif" font-size="14.00" fill="#000000">NavbarComponent </text>
</g>
<!-- NavigationModuleModule&#45;&gt;NavbarComponent  -->
<g id="edge4" class="edge">
<title>NavigationModuleModule&#45;&gt;NavbarComponent </title>
<path fill="none" stroke="#000000" stroke-dasharray="5,2" d="M231.5,-187.1061C231.5,-187.1061 231.5,-205.991 231.5,-205.991"/>
<polygon fill="#000000" stroke="#000000" points="228.0001,-205.9909 231.5,-215.991 235.0001,-205.991 228.0001,-205.9909"/>
</g>
<!-- CommonModule -->
<g id="node3" class="node">
<title>CommonModule</title>
<polygon fill="#8dd3c7" stroke="#000000" points="287.1681,-122 284.1681,-126 263.1681,-126 260.1681,-122 175.8319,-122 175.8319,-86 287.1681,-86 287.1681,-122"/>
<text text-anchor="middle" x="231.5" y="-99.8" font-family="Times,serif" font-size="14.00" fill="#000000">CommonModule</text>
</g>
<!-- CommonModule&#45;&gt;NavigationModuleModule -->
<g id="edge2" class="edge">
<title>CommonModule&#45;&gt;NavigationModuleModule</title>
<path fill="none" stroke="#000000" d="M231.5,-122.1061C231.5,-122.1061 231.5,-140.991 231.5,-140.991"/>
<polygon fill="#000000" stroke="#000000" points="228.0001,-140.9909 231.5,-150.991 235.0001,-140.991 228.0001,-140.9909"/>
</g>
<!-- FormsModule -->
<g id="node4" class="node">
<title>FormsModule</title>
<polygon fill="#8dd3c7" stroke="#000000" points="158.3288,-122 155.3288,-126 134.3288,-126 131.3288,-122 62.6712,-122 62.6712,-86 158.3288,-86 158.3288,-122"/>
<text text-anchor="middle" x="110.5" y="-99.8" font-family="Times,serif" font-size="14.00" fill="#000000">FormsModule</text>
</g>
<!-- FormsModule&#45;&gt;NavigationModuleModule -->
<g id="edge3" class="edge">
<title>FormsModule&#45;&gt;NavigationModuleModule</title>
<path fill="none" stroke="#000000" d="M153.5053,-122.1061C153.5053,-122.1061 153.5053,-140.991 153.5053,-140.991"/>
<polygon fill="#000000" stroke="#000000" points="150.0053,-140.9909 153.5053,-150.991 157.0053,-140.991 150.0053,-140.9909"/>
</g>
</g>
</svg>
