<?xml version="1.0" encoding="UTF-8" standalone="no"?>
<!DOCTYPE svg PUBLIC "-//W3C//DTD SVG 1.1//EN"
 "http://www.w3.org/Graphics/SVG/1.1/DTD/svg11.dtd">
<!-- Generated by graphviz version 2.40.1 (20161225.0304)
 -->
<!-- Title: dependencies Pages: 1 -->
<svg width="3278pt" height="284pt"
 viewBox="0.00 0.00 3278.00 284.00" xmlns="http://www.w3.org/2000/svg" xmlns:xlink="http://www.w3.org/1999/xlink">
<g id="graph0" class="graph" transform="scale(1 1) rotate(0) translate(4 280)">
<title>dependencies</title>
<polygon fill="#ffffff" stroke="transparent" points="-4,4 -4,-280 3274,-280 3274,4 -4,4"/>
<text text-anchor="start" x="1614.0091" y="-42.4" font-family="sans-serif" font-weight="bold" font-size="14.00" fill="#000000">Legend</text>
<polygon fill="#ffffb3" stroke="transparent" points="1401,-10 1401,-30 1421,-30 1421,-10 1401,-10"/>
<text text-anchor="start" x="1424.629" y="-15.4" font-family="sans-serif" font-size="14.00" fill="#000000"> &#160;Declarations</text>
<polygon fill="#8dd3c7" stroke="transparent" points="1514,-10 1514,-30 1534,-30 1534,-10 1514,-10"/>
<text text-anchor="start" x="1537.7251" y="-15.4" font-family="sans-serif" font-size="14.00" fill="#000000"> &#160;Module</text>
<polygon fill="#80b1d3" stroke="transparent" points="1600,-10 1600,-30 1620,-30 1620,-10 1600,-10"/>
<text text-anchor="start" x="1623.7812" y="-15.4" font-family="sans-serif" font-size="14.00" fill="#000000"> &#160;Bootstrap</text>
<polygon fill="#fdb462" stroke="transparent" points="1697,-10 1697,-30 1717,-30 1717,-10 1697,-10"/>
<text text-anchor="start" x="1720.6732" y="-15.4" font-family="sans-serif" font-size="14.00" fill="#000000"> &#160;Providers</text>
<polygon fill="#fb8072" stroke="transparent" points="1793,-10 1793,-30 1813,-30 1813,-10 1793,-10"/>
<text text-anchor="start" x="1816.7258" y="-15.4" font-family="sans-serif" font-size="14.00" fill="#000000"> &#160;Exports</text>
<g id="clust1" class="cluster">
<title>cluster_AppModule</title>
<polygon fill="none" stroke="#000000" stroke-dasharray="1,5" points="8,-70 8,-268 3262,-268 3262,-70 8,-70"/>
</g>
<g id="clust2" class="cluster">
<title>cluster_AppModule_declarations</title>
<polygon fill="none" stroke="#000000" points="2856,-78 2856,-130 3254,-130 3254,-78 2856,-78"/>
</g>
<g id="clust6" class="cluster">
<title>cluster_AppModule_imports</title>
<polygon fill="none" stroke="#000000" points="1822,-78 1822,-130 2848,-130 2848,-78 1822,-78"/>
</g>
<g id="clust8" class="cluster">
<title>cluster_AppModule_bootstrap</title>
<polygon fill="none" stroke="#000000" points="1940,-208 1940,-260 2064,-260 2064,-208 1940,-208"/>
</g>
<g id="clust9" class="cluster">
<title>cluster_AppModule_providers</title>
<polygon fill="none" stroke="#000000" points="16,-78 16,-130 1814,-130 1814,-78 16,-78"/>
</g>
<!-- AppComponent -->
<g id="node1" class="node">
<title>AppComponent</title>
<polygon fill="#ffffb3" stroke="#000000" points="3245.9399,-122 3140.0601,-122 3140.0601,-86 3245.9399,-86 3245.9399,-122"/>
<text text-anchor="middle" x="3193" y="-99.8" font-family="Times,serif" font-size="14.00" fill="#000000">AppComponent</text>
</g>
<!-- AppModule -->
<g id="node4" class="node">
<title>AppModule</title>
<polygon fill="#8dd3c7" stroke="#000000" points="2043.6571,-187 2040.6571,-191 2019.6571,-191 2016.6571,-187 1960.3429,-187 1960.3429,-151 2043.6571,-151 2043.6571,-187"/>
<text text-anchor="middle" x="2002" y="-164.8" font-family="Times,serif" font-size="14.00" fill="#000000">AppModule</text>
</g>
<!-- AppComponent&#45;&gt;AppModule -->
<g id="edge1" class="edge">
<title>AppComponent&#45;&gt;AppModule</title>
<path fill="none" stroke="#000000" d="M3193,-122.1532C3193,-145.7566 3193,-184 3193,-184 3193,-184 2053.69,-184 2053.69,-184"/>
<polygon fill="#000000" stroke="#000000" points="2053.69,-180.5001 2043.69,-184 2053.6899,-187.5001 2053.69,-180.5001"/>
</g>
<!-- FooterComponent -->
<g id="node2" class="node">
<title>FooterComponent</title>
<polygon fill="#ffffb3" stroke="#000000" points="3121.8809,-122 3004.1191,-122 3004.1191,-86 3121.8809,-86 3121.8809,-122"/>
<text text-anchor="middle" x="3063" y="-99.8" font-family="Times,serif" font-size="14.00" fill="#000000">FooterComponent</text>
</g>
<!-- FooterComponent&#45;&gt;AppModule -->
<g id="edge2" class="edge">
<title>FooterComponent&#45;&gt;AppModule</title>
<path fill="none" stroke="#000000" d="M3063,-122.2479C3063,-145.0179 3063,-181 3063,-181 3063,-181 2053.9192,-181 2053.9192,-181"/>
<polygon fill="#000000" stroke="#000000" points="2053.9193,-177.5001 2043.9192,-181 2053.9192,-184.5001 2053.9193,-177.5001"/>
</g>
<!-- HeaderComponent -->
<g id="node3" class="node">
<title>HeaderComponent</title>
<polygon fill="#ffffb3" stroke="#000000" points="2985.7437,-122 2864.2563,-122 2864.2563,-86 2985.7437,-86 2985.7437,-122"/>
<text text-anchor="middle" x="2925" y="-99.8" font-family="Times,serif" font-size="14.00" fill="#000000">HeaderComponent</text>
</g>
<!-- HeaderComponent&#45;&gt;AppModule -->
<g id="edge3" class="edge">
<title>HeaderComponent&#45;&gt;AppModule</title>
<path fill="none" stroke="#000000" d="M2925,-122.2921C2925,-144.2057 2925,-178 2925,-178 2925,-178 2053.7547,-178 2053.7547,-178"/>
<polygon fill="#000000" stroke="#000000" points="2053.7547,-174.5001 2043.7547,-178 2053.7546,-181.5001 2053.7547,-174.5001"/>
</g>
<!-- AppComponent  -->
<g id="node14" class="node">
<title>AppComponent </title>
<polygon fill="#80b1d3" stroke="#000000" points="2056.439,-252 1947.561,-252 1947.561,-216 2056.439,-216 2056.439,-252"/>
<text text-anchor="middle" x="2002" y="-229.8" font-family="Times,serif" font-size="14.00" fill="#000000">AppComponent </text>
</g>
<!-- AppModule&#45;&gt;AppComponent  -->
<g id="edge13" class="edge">
<title>AppModule&#45;&gt;AppComponent </title>
<path fill="none" stroke="#000000" stroke-dasharray="1,5" d="M2002,-187.1061C2002,-187.1061 2002,-205.991 2002,-205.991"/>
<polygon fill="#000000" stroke="#000000" points="1998.5001,-205.9909 2002,-215.991 2005.5001,-205.991 1998.5001,-205.9909"/>
</g>
<!-- BrowserModule -->
<g id="node5" class="node">
<title>BrowserModule</title>
<polygon fill="#8dd3c7" stroke="#000000" points="2840.4734,-122 2837.4734,-126 2816.4734,-126 2813.4734,-122 2733.5266,-122 2733.5266,-86 2840.4734,-86 2840.4734,-122"/>
<text text-anchor="middle" x="2787" y="-99.8" font-family="Times,serif" font-size="14.00" fill="#000000">BrowserModule</text>
</g>
<!-- BrowserModule&#45;&gt;AppModule -->
<g id="edge4" class="edge">
<title>BrowserModule&#45;&gt;AppModule</title>
<path fill="none" stroke="#000000" d="M2787,-122.0267C2787,-142.7672 2787,-174 2787,-174 2787,-174 2053.9275,-174 2053.9275,-174"/>
<polygon fill="#000000" stroke="#000000" points="2053.9275,-170.5001 2043.9275,-174 2053.9274,-177.5001 2053.9275,-170.5001"/>
</g>
<!-- ArticleModule -->
<g id="node6" class="node">
<title>ArticleModule</title>
<polygon fill="#8dd3c7" stroke="#000000" points="2715.4189,-122 2712.4189,-126 2691.4189,-126 2688.4189,-122 2616.5811,-122 2616.5811,-86 2715.4189,-86 2715.4189,-122"/>
<text text-anchor="middle" x="2666" y="-99.8" font-family="Times,serif" font-size="14.00" fill="#000000">ArticleModule</text>
</g>
<!-- ArticleModule&#45;&gt;AppModule -->
<g id="edge5" class="edge">
<title>ArticleModule&#45;&gt;AppModule</title>
<path fill="none" stroke="#000000" d="M2666,-122.308C2666,-142.1455 2666,-171 2666,-171 2666,-171 2053.7877,-171 2053.7877,-171"/>
<polygon fill="#000000" stroke="#000000" points="2053.7877,-167.5001 2043.7877,-171 2053.7877,-174.5001 2053.7877,-167.5001"/>
</g>
<!-- AuthModule -->
<g id="node7" class="node">
<title>AuthModule</title>
<polygon fill="#8dd3c7" stroke="#000000" points="2598.5482,-122 2595.5482,-126 2574.5482,-126 2571.5482,-122 2511.4518,-122 2511.4518,-86 2598.5482,-86 2598.5482,-122"/>
<text text-anchor="middle" x="2555" y="-99.8" font-family="Times,serif" font-size="14.00" fill="#000000">AuthModule</text>
</g>
<!-- AuthModule&#45;&gt;AppModule -->
<g id="edge6" class="edge">
<title>AuthModule&#45;&gt;AppModule</title>
<path fill="none" stroke="#000000" d="M2555,-122.1686C2555,-141.0898 2555,-168 2555,-168 2555,-168 2054.0188,-168 2054.0188,-168"/>
<polygon fill="#000000" stroke="#000000" points="2054.0188,-164.5001 2044.0188,-168 2054.0187,-171.5001 2054.0188,-164.5001"/>
</g>
<!-- EditorModule -->
<g id="node8" class="node">
<title>EditorModule</title>
<polygon fill="#8dd3c7" stroke="#000000" points="2493.0453,-122 2490.0453,-126 2469.0453,-126 2466.0453,-122 2398.9547,-122 2398.9547,-86 2493.0453,-86 2493.0453,-122"/>
<text text-anchor="middle" x="2446" y="-99.8" font-family="Times,serif" font-size="14.00" fill="#000000">EditorModule</text>
</g>
<!-- EditorModule&#45;&gt;AppModule -->
<g id="edge7" class="edge">
<title>EditorModule&#45;&gt;AppModule</title>
<path fill="none" stroke="#000000" d="M2446,-122.302C2446,-140.2699 2446,-165 2446,-165 2446,-165 2053.7704,-165 2053.7704,-165"/>
<polygon fill="#000000" stroke="#000000" points="2053.7705,-161.5001 2043.7704,-165 2053.7704,-168.5001 2053.7705,-161.5001"/>
</g>
<!-- HomeModule -->
<g id="node9" class="node">
<title>HomeModule</title>
<polygon fill="#8dd3c7" stroke="#000000" points="2380.7619,-122 2377.7619,-126 2356.7619,-126 2353.7619,-122 2287.2381,-122 2287.2381,-86 2380.7619,-86 2380.7619,-122"/>
<text text-anchor="middle" x="2334" y="-99.8" font-family="Times,serif" font-size="14.00" fill="#000000">HomeModule</text>
</g>
<!-- HomeModule&#45;&gt;AppModule -->
<g id="edge8" class="edge">
<title>HomeModule&#45;&gt;AppModule</title>
<path fill="none" stroke="#000000" d="M2334,-122.0352C2334,-138.7344 2334,-161 2334,-161 2334,-161 2053.7119,-161 2053.7119,-161"/>
<polygon fill="#000000" stroke="#000000" points="2053.7119,-157.5001 2043.7119,-161 2053.7118,-164.5001 2053.7119,-157.5001"/>
</g>
<!-- ProfileModule -->
<g id="node10" class="node">
<title>ProfileModule</title>
<polygon fill="#8dd3c7" stroke="#000000" points="2268.65,-122 2265.65,-126 2244.65,-126 2241.65,-122 2171.35,-122 2171.35,-86 2268.65,-86 2268.65,-122"/>
<text text-anchor="middle" x="2220" y="-99.8" font-family="Times,serif" font-size="14.00" fill="#000000">ProfileModule</text>
</g>
<!-- ProfileModule&#45;&gt;AppModule -->
<g id="edge9" class="edge">
<title>ProfileModule&#45;&gt;AppModule</title>
<path fill="none" stroke="#000000" d="M2220,-122.2819C2220,-137.9478 2220,-158 2220,-158 2220,-158 2053.7747,-158 2053.7747,-158"/>
<polygon fill="#000000" stroke="#000000" points="2053.7747,-154.5001 2043.7747,-158 2053.7746,-161.5001 2053.7747,-154.5001"/>
</g>
<!-- rootRouting -->
<g id="node11" class="node">
<title>rootRouting</title>
<polygon fill="#8dd3c7" stroke="#000000" points="2152.6697,-122 2149.6697,-126 2128.6697,-126 2125.6697,-122 2069.3303,-122 2069.3303,-86 2152.6697,-86 2152.6697,-122"/>
<text text-anchor="middle" x="2111" y="-99.8" font-family="Times,serif" font-size="14.00" fill="#000000">rootRouting</text>
</g>
<!-- rootRouting&#45;&gt;AppModule -->
<g id="edge10" class="edge">
<title>rootRouting&#45;&gt;AppModule</title>
<path fill="none" stroke="#000000" d="M2111,-122.1243C2111,-136.7832 2111,-155 2111,-155 2111,-155 2053.8305,-155 2053.8305,-155"/>
<polygon fill="#000000" stroke="#000000" points="2053.8305,-151.5001 2043.8305,-155 2053.8305,-158.5001 2053.8305,-151.5001"/>
</g>
<!-- SharedModule -->
<g id="node12" class="node">
<title>SharedModule</title>
<polygon fill="#8dd3c7" stroke="#000000" points="2051.4231,-122 2048.4231,-126 2027.4231,-126 2024.4231,-122 1952.5769,-122 1952.5769,-86 2051.4231,-86 2051.4231,-122"/>
<text text-anchor="middle" x="2002" y="-99.8" font-family="Times,serif" font-size="14.00" fill="#000000">SharedModule</text>
</g>
<!-- SharedModule&#45;&gt;AppModule -->
<g id="edge11" class="edge">
<title>SharedModule&#45;&gt;AppModule</title>
<path fill="none" stroke="#000000" d="M2002,-122.1061C2002,-122.1061 2002,-140.991 2002,-140.991"/>
<polygon fill="#000000" stroke="#000000" points="1998.5001,-140.9909 2002,-150.991 2005.5001,-140.991 1998.5001,-140.9909"/>
</g>
<!-- SettingsModule -->
<g id="node13" class="node">
<title>SettingsModule</title>
<polygon fill="#8dd3c7" stroke="#000000" points="1934.1639,-122 1931.1639,-126 1910.1639,-126 1907.1639,-122 1829.8361,-122 1829.8361,-86 1934.1639,-86 1934.1639,-122"/>
<text text-anchor="middle" x="1882" y="-99.8" font-family="Times,serif" font-size="14.00" fill="#000000">SettingsModule</text>
</g>
<!-- SettingsModule&#45;&gt;AppModule -->
<g id="edge12" class="edge">
<title>SettingsModule&#45;&gt;AppModule</title>
<path fill="none" stroke="#000000" d="M1882,-122.1243C1882,-136.7832 1882,-155 1882,-155 1882,-155 1950.0298,-155 1950.0298,-155"/>
<polygon fill="#000000" stroke="#000000" points="1950.0299,-158.5001 1960.0298,-155 1950.0298,-151.5001 1950.0299,-158.5001"/>
</g>
<!-- { provide: HTTP_INTERCEPTORS, useClass: HttpTokenInterceptor, multi: &#160;} -->
<g id="node15" class="node">
<title>{ provide: HTTP_INTERCEPTORS, useClass: HttpTokenInterceptor, multi: &#160;}</title>
<ellipse fill="#fdb462" stroke="#000000" cx="1488" cy="-104" rx="317.9862" ry="18"/>
<text text-anchor="middle" x="1488" y="-99.8" font-family="Times,serif" font-size="14.00" fill="#000000">{ provide: HTTP_INTERCEPTORS, useClass: HttpTokenInterceptor, multi: &#160;}</text>
</g>
<!-- { provide: HTTP_INTERCEPTORS, useClass: HttpTokenInterceptor, multi: &#160;}&#45;&gt;AppModule -->
<g id="edge14" class="edge">
<title>{ provide: HTTP_INTERCEPTORS, useClass: HttpTokenInterceptor, multi: &#160;}&#45;&gt;AppModule</title>
<path fill="none" stroke="#000000" d="M1488,-122.2819C1488,-137.9478 1488,-158 1488,-158 1488,-158 1949.9372,-158 1949.9372,-158"/>
<polygon fill="#000000" stroke="#000000" points="1949.9373,-161.5001 1959.9372,-158 1949.9372,-154.5001 1949.9373,-161.5001"/>
</g>
<!-- ApiService -->
<g id="node16" class="node">
<title>ApiService</title>
<ellipse fill="#fdb462" stroke="#000000" cx="1098" cy="-104" rx="54.4508" ry="18"/>
<text text-anchor="middle" x="1098" y="-99.8" font-family="Times,serif" font-size="14.00" fill="#000000">ApiService</text>
</g>
<!-- ApiService&#45;&gt;AppModule -->
<g id="edge15" class="edge">
<title>ApiService&#45;&gt;AppModule</title>
<path fill="none" stroke="#000000" d="M1098,-122.0352C1098,-138.7344 1098,-161 1098,-161 1098,-161 1950.2112,-161 1950.2112,-161"/>
<polygon fill="#000000" stroke="#000000" points="1950.2113,-164.5001 1960.2112,-161 1950.2112,-157.5001 1950.2113,-164.5001"/>
</g>
<!-- ArticlesService -->
<g id="node17" class="node">
<title>ArticlesService</title>
<ellipse fill="#fdb462" stroke="#000000" cx="955" cy="-104" rx="70.6162" ry="18"/>
<text text-anchor="middle" x="955" y="-99.8" font-family="Times,serif" font-size="14.00" fill="#000000">ArticlesService</text>
</g>
<!-- ArticlesService&#45;&gt;AppModule -->
<g id="edge16" class="edge">
<title>ArticlesService&#45;&gt;AppModule</title>
<path fill="none" stroke="#000000" d="M955,-122.302C955,-140.2699 955,-165 955,-165 955,-165 1950.3103,-165 1950.3103,-165"/>
<polygon fill="#000000" stroke="#000000" points="1950.3103,-168.5001 1960.3103,-165 1950.3102,-161.5001 1950.3103,-168.5001"/>
</g>
<!-- AuthGuard -->
<g id="node18" class="node">
<title>AuthGuard</title>
<ellipse fill="#fdb462" stroke="#000000" cx="812" cy="-104" rx="54.4566" ry="18"/>
<text text-anchor="middle" x="812" y="-99.8" font-family="Times,serif" font-size="14.00" fill="#000000">AuthGuard</text>
</g>
<!-- AuthGuard&#45;&gt;AppModule -->
<g id="edge17" class="edge">
<title>AuthGuard&#45;&gt;AppModule</title>
<path fill="none" stroke="#000000" d="M812,-122.1686C812,-141.0898 812,-168 812,-168 812,-168 1949.9968,-168 1949.9968,-168"/>
<polygon fill="#000000" stroke="#000000" points="1949.9968,-171.5001 1959.9968,-168 1949.9968,-164.5001 1949.9968,-171.5001"/>
</g>
<!-- CommentsService -->
<g id="node19" class="node">
<title>CommentsService</title>
<ellipse fill="#fdb462" stroke="#000000" cx="658" cy="-104" rx="81.6789" ry="18"/>
<text text-anchor="middle" x="658" y="-99.8" font-family="Times,serif" font-size="14.00" fill="#000000">CommentsService</text>
</g>
<!-- CommentsService&#45;&gt;AppModule -->
<g id="edge18" class="edge">
<title>CommentsService&#45;&gt;AppModule</title>
<path fill="none" stroke="#000000" d="M658,-122.308C658,-142.1455 658,-171 658,-171 658,-171 1950.303,-171 1950.303,-171"/>
<polygon fill="#000000" stroke="#000000" points="1950.303,-174.5001 1960.303,-171 1950.3029,-167.5001 1950.303,-174.5001"/>
</g>
<!-- JwtService -->
<g id="node20" class="node">
<title>JwtService</title>
<ellipse fill="#fdb462" stroke="#000000" cx="505" cy="-104" rx="53.3052" ry="18"/>
<text text-anchor="middle" x="505" y="-99.8" font-family="Times,serif" font-size="14.00" fill="#000000">JwtService</text>
</g>
<!-- JwtService&#45;&gt;AppModule -->
<g id="edge19" class="edge">
<title>JwtService&#45;&gt;AppModule</title>
<path fill="none" stroke="#000000" d="M505,-122.0267C505,-142.7672 505,-174 505,-174 505,-174 1950.005,-174 1950.005,-174"/>
<polygon fill="#000000" stroke="#000000" points="1950.0051,-177.5001 1960.005,-174 1950.005,-170.5001 1950.0051,-177.5001"/>
</g>
<!-- ProfilesService -->
<g id="node21" class="node">
<title>ProfilesService</title>
<ellipse fill="#fdb462" stroke="#000000" cx="364" cy="-104" rx="70.0558" ry="18"/>
<text text-anchor="middle" x="364" y="-99.8" font-family="Times,serif" font-size="14.00" fill="#000000">ProfilesService</text>
</g>
<!-- ProfilesService&#45;&gt;AppModule -->
<g id="edge20" class="edge">
<title>ProfilesService&#45;&gt;AppModule</title>
<path fill="none" stroke="#000000" d="M364,-122.2921C364,-144.2057 364,-178 364,-178 364,-178 1950.2782,-178 1950.2782,-178"/>
<polygon fill="#000000" stroke="#000000" points="1950.2782,-181.5001 1960.2782,-178 1950.2782,-174.5001 1950.2782,-181.5001"/>
</g>
<!-- TagsService -->
<g id="node22" class="node">
<title>TagsService</title>
<ellipse fill="#fdb462" stroke="#000000" cx="217" cy="-104" rx="58.5251" ry="18"/>
<text text-anchor="middle" x="217" y="-99.8" font-family="Times,serif" font-size="14.00" fill="#000000">TagsService</text>
</g>
<!-- TagsService&#45;&gt;AppModule -->
<g id="edge21" class="edge">
<title>TagsService&#45;&gt;AppModule</title>
<path fill="none" stroke="#000000" d="M217,-122.2479C217,-145.0179 217,-181 217,-181 217,-181 1950.0717,-181 1950.0717,-181"/>
<polygon fill="#000000" stroke="#000000" points="1950.0717,-184.5001 1960.0717,-181 1950.0717,-177.5001 1950.0717,-184.5001"/>
</g>
<!-- UserService -->
<g id="node23" class="node">
<title>UserService</title>
<ellipse fill="#fdb462" stroke="#000000" cx="82" cy="-104" rx="58.4415" ry="18"/>
<text text-anchor="middle" x="82" y="-99.8" font-family="Times,serif" font-size="14.00" fill="#000000">UserService</text>
</g>
<!-- UserService&#45;&gt;AppModule -->
<g id="edge22" class="edge">
<title>UserService&#45;&gt;AppModule</title>
<path fill="none" stroke="#000000" d="M82,-122.1532C82,-145.7566 82,-184 82,-184 82,-184 1950.1125,-184 1950.1125,-184"/>
<polygon fill="#000000" stroke="#000000" points="1950.1125,-187.5001 1960.1125,-184 1950.1124,-180.5001 1950.1125,-187.5001"/>
</g>
</g>
</svg>
