<?xml version="1.0" encoding="UTF-8" standalone="no"?>
<!DOCTYPE svg PUBLIC "-//W3C//DTD SVG 1.1//EN"
 "http://www.w3.org/Graphics/SVG/1.1/DTD/svg11.dtd">
<!-- Generated by graphviz version 2.40.1 (20161225.0304)
 -->
<!-- Title: dependencies Pages: 1 -->
<svg width="730pt" height="284pt"
 viewBox="0.00 0.00 730.00 284.00" xmlns="http://www.w3.org/2000/svg" xmlns:xlink="http://www.w3.org/1999/xlink">
<g id="graph0" class="graph" transform="scale(1 1) rotate(0) translate(4 280)">
<title>dependencies</title>
<polygon fill="#ffffff" stroke="transparent" points="-4,4 -4,-280 726,-280 726,4 -4,4"/>
<text text-anchor="start" x="340.0091" y="-42.4" font-family="sans-serif" font-weight="bold" font-size="14.00" fill="#000000">Legend</text>
<polygon fill="#ffffb3" stroke="transparent" points="127,-10 127,-30 147,-30 147,-10 127,-10"/>
<text text-anchor="start" x="150.629" y="-15.4" font-family="sans-serif" font-size="14.00" fill="#000000"> &#160;Declarations</text>
<polygon fill="#8dd3c7" stroke="transparent" points="240,-10 240,-30 260,-30 260,-10 240,-10"/>
<text text-anchor="start" x="263.7251" y="-15.4" font-family="sans-serif" font-size="14.00" fill="#000000"> &#160;Module</text>
<polygon fill="#80b1d3" stroke="transparent" points="326,-10 326,-30 346,-30 346,-10 326,-10"/>
<text text-anchor="start" x="349.7812" y="-15.4" font-family="sans-serif" font-size="14.00" fill="#000000"> &#160;Bootstrap</text>
<polygon fill="#fdb462" stroke="transparent" points="423,-10 423,-30 443,-30 443,-10 423,-10"/>
<text text-anchor="start" x="446.6732" y="-15.4" font-family="sans-serif" font-size="14.00" fill="#000000"> &#160;Providers</text>
<polygon fill="#fb8072" stroke="transparent" points="519,-10 519,-30 539,-30 539,-10 519,-10"/>
<text text-anchor="start" x="542.7258" y="-15.4" font-family="sans-serif" font-size="14.00" fill="#000000"> &#160;Exports</text>
<g id="clust1" class="cluster">
<title>cluster_SharedModuleModule</title>
<polygon fill="none" stroke="#000000" stroke-dasharray="1,5" points="8,-70 8,-268 714,-268 714,-70 8,-70"/>
</g>
<g id="clust2" class="cluster">
<title>cluster_SharedModuleModule_declarations</title>
<polygon fill="none" stroke="#000000" points="414,-78 414,-130 706,-130 706,-78 414,-78"/>
</g>
<g id="clust5" class="cluster">
<title>cluster_SharedModuleModule_imports</title>
<polygon fill="none" stroke="#000000" points="29,-78 29,-130 406,-130 406,-78 29,-78"/>
</g>
<g id="clust6" class="cluster">
<title>cluster_SharedModuleModule_exports</title>
<polygon fill="none" stroke="#000000" points="16,-208 16,-260 706,-260 706,-208 16,-208"/>
</g>
<!-- HeaderComponent -->
<g id="node1" class="node">
<title>HeaderComponent</title>
<polygon fill="#ffffb3" stroke="#000000" points="697.7437,-122 576.2563,-122 576.2563,-86 697.7437,-86 697.7437,-122"/>
<text text-anchor="middle" x="637" y="-99.8" font-family="Times,serif" font-size="14.00" fill="#000000">HeaderComponent</text>
</g>
<!-- SharedModuleModule -->
<g id="node3" class="node">
<title>SharedModuleModule</title>
<polygon fill="#8dd3c7" stroke="#000000" points="429.972,-187 426.972,-191 405.972,-191 402.972,-187 288.028,-187 288.028,-151 429.972,-151 429.972,-187"/>
<text text-anchor="middle" x="359" y="-164.8" font-family="Times,serif" font-size="14.00" fill="#000000">SharedModuleModule</text>
</g>
<!-- HeaderComponent&#45;&gt;SharedModuleModule -->
<g id="edge1" class="edge">
<title>HeaderComponent&#45;&gt;SharedModuleModule</title>
<path fill="none" stroke="#000000" d="M616.6261,-122.027C616.6261,-138.3976 616.6261,-160 616.6261,-160 616.6261,-160 440.0794,-160 440.0794,-160"/>
<polygon fill="#000000" stroke="#000000" points="440.0795,-156.5001 430.0794,-160 440.0794,-163.5001 440.0795,-156.5001"/>
</g>
<!-- ImageZoomDirective -->
<g id="node2" class="node">
<title>ImageZoomDirective</title>
<polygon fill="#ffffb3" stroke="#000000" points="558.0073,-122 421.9927,-122 421.9927,-86 558.0073,-86 558.0073,-122"/>
<text text-anchor="middle" x="490" y="-99.8" font-family="Times,serif" font-size="14.00" fill="#000000">ImageZoomDirective</text>
</g>
<!-- ImageZoomDirective&#45;&gt;SharedModuleModule -->
<g id="edge2" class="edge">
<title>ImageZoomDirective&#45;&gt;SharedModuleModule</title>
<path fill="none" stroke="#000000" d="M425.8664,-122.1061C425.8664,-122.1061 425.8664,-140.991 425.8664,-140.991"/>
<polygon fill="#000000" stroke="#000000" points="422.3665,-140.9909 425.8664,-150.991 429.3665,-140.991 422.3665,-140.9909"/>
</g>
<!-- HeaderComponent  -->
<g id="node7" class="node">
<title>HeaderComponent </title>
<polygon fill="#fb8072" stroke="#000000" points="697.7436,-252 572.2564,-252 572.2564,-216 697.7436,-216 697.7436,-252"/>
<text text-anchor="middle" x="635" y="-229.8" font-family="Times,serif" font-size="14.00" fill="#000000">HeaderComponent </text>
</g>
<!-- SharedModuleModule&#45;&gt;HeaderComponent  -->
<g id="edge6" class="edge">
<title>SharedModuleModule&#45;&gt;HeaderComponent </title>
<path fill="none" stroke="#000000" stroke-dasharray="5,2" d="M430.0293,-169C518.2082,-169 657.1239,-169 657.1239,-169 657.1239,-169 657.1239,-205.8939 657.1239,-205.8939"/>
<polygon fill="#000000" stroke="#000000" points="653.624,-205.8938 657.1239,-215.8939 660.624,-205.8939 653.624,-205.8938"/>
</g>
<!-- FormsModule  -->
<g id="node8" class="node">
<title>FormsModule </title>
<polygon fill="#fb8072" stroke="#000000" points="554.3283,-252 455.6717,-252 455.6717,-216 554.3283,-216 554.3283,-252"/>
<text text-anchor="middle" x="505" y="-229.8" font-family="Times,serif" font-size="14.00" fill="#000000">FormsModule </text>
</g>
<!-- SharedModuleModule&#45;&gt;FormsModule  -->
<g id="edge7" class="edge">
<title>SharedModuleModule&#45;&gt;FormsModule </title>
<path fill="none" stroke="#000000" stroke-dasharray="5,2" d="M430.2892,-178C467.3505,-178 505,-178 505,-178 505,-178 505,-205.973 505,-205.973"/>
<polygon fill="#000000" stroke="#000000" points="501.5001,-205.973 505,-215.973 508.5001,-205.973 501.5001,-205.973"/>
</g>
<!-- HttpClientModule  -->
<g id="node9" class="node">
<title>HttpClientModule </title>
<polygon fill="#fb8072" stroke="#000000" points="438.1607,-252 315.8393,-252 315.8393,-216 438.1607,-216 438.1607,-252"/>
<text text-anchor="middle" x="377" y="-229.8" font-family="Times,serif" font-size="14.00" fill="#000000">HttpClientModule </text>
</g>
<!-- SharedModuleModule&#45;&gt;HttpClientModule  -->
<g id="edge8" class="edge">
<title>SharedModuleModule&#45;&gt;HttpClientModule </title>
<path fill="none" stroke="#000000" stroke-dasharray="5,2" d="M372.9529,-187.1061C372.9529,-187.1061 372.9529,-205.991 372.9529,-205.991"/>
<polygon fill="#000000" stroke="#000000" points="369.4529,-205.9909 372.9529,-215.991 376.4529,-205.991 369.4529,-205.9909"/>
</g>
<!-- CommonModule  -->
<g id="node10" class="node">
<title>CommonModule </title>
<polygon fill="#fb8072" stroke="#000000" points="297.6677,-252 182.3323,-252 182.3323,-216 297.6677,-216 297.6677,-252"/>
<text text-anchor="middle" x="240" y="-229.8" font-family="Times,serif" font-size="14.00" fill="#000000">CommonModule </text>
</g>
<!-- SharedModuleModule&#45;&gt;CommonModule  -->
<g id="edge9" class="edge">
<title>SharedModuleModule&#45;&gt;CommonModule </title>
<path fill="none" stroke="#000000" stroke-dasharray="5,2" d="M292.7989,-187.1061C292.7989,-187.1061 292.7989,-205.991 292.7989,-205.991"/>
<polygon fill="#000000" stroke="#000000" points="289.299,-205.9909 292.7989,-215.991 296.299,-205.991 289.299,-205.9909"/>
</g>
<!-- ImageZoomDirective  -->
<g id="node11" class="node">
<title>ImageZoomDirective </title>
<polygon fill="#fb8072" stroke="#000000" points="164.0064,-252 23.9936,-252 23.9936,-216 164.0064,-216 164.0064,-252"/>
<text text-anchor="middle" x="94" y="-229.8" font-family="Times,serif" font-size="14.00" fill="#000000">ImageZoomDirective </text>
</g>
<!-- SharedModuleModule&#45;&gt;ImageZoomDirective  -->
<g id="edge10" class="edge">
<title>SharedModuleModule&#45;&gt;ImageZoomDirective </title>
<path fill="none" stroke="#000000" stroke-dasharray="5,2" d="M287.8803,-178C230.6347,-178 159.6667,-178 159.6667,-178 159.6667,-178 159.6667,-205.973 159.6667,-205.973"/>
<polygon fill="#000000" stroke="#000000" points="156.1668,-205.973 159.6667,-215.973 163.1668,-205.973 156.1668,-205.973"/>
</g>
<!-- CommonModule -->
<g id="node4" class="node">
<title>CommonModule</title>
<polygon fill="#8dd3c7" stroke="#000000" points="397.6681,-122 394.6681,-126 373.6681,-126 370.6681,-122 286.3319,-122 286.3319,-86 397.6681,-86 397.6681,-122"/>
<text text-anchor="middle" x="342" y="-99.8" font-family="Times,serif" font-size="14.00" fill="#000000">CommonModule</text>
</g>
<!-- CommonModule&#45;&gt;SharedModuleModule -->
<g id="edge3" class="edge">
<title>CommonModule&#45;&gt;SharedModuleModule</title>
<path fill="none" stroke="#000000" d="M342.9239,-122.1061C342.9239,-122.1061 342.9239,-140.991 342.9239,-140.991"/>
<polygon fill="#000000" stroke="#000000" points="339.424,-140.9909 342.9239,-150.991 346.424,-140.991 339.424,-140.9909"/>
</g>
<!-- FormsModule -->
<g id="node5" class="node">
<title>FormsModule</title>
<polygon fill="#8dd3c7" stroke="#000000" points="268.8288,-122 265.8288,-126 244.8288,-126 241.8288,-122 173.1712,-122 173.1712,-86 268.8288,-86 268.8288,-122"/>
<text text-anchor="middle" x="221" y="-99.8" font-family="Times,serif" font-size="14.00" fill="#000000">FormsModule</text>
</g>
<!-- FormsModule&#45;&gt;SharedModuleModule -->
<g id="edge4" class="edge">
<title>FormsModule&#45;&gt;SharedModuleModule</title>
<path fill="none" stroke="#000000" d="M225.5402,-122.027C225.5402,-138.3976 225.5402,-160 225.5402,-160 225.5402,-160 277.9718,-160 277.9718,-160"/>
<polygon fill="#000000" stroke="#000000" points="277.9718,-163.5001 287.9718,-160 277.9717,-156.5001 277.9718,-163.5001"/>
</g>
<!-- HttpClientModule -->
<g id="node6" class="node">
<title>HttpClientModule</title>
<polygon fill="#8dd3c7" stroke="#000000" points="155.1611,-122 152.1611,-126 131.1611,-126 128.1611,-122 36.8389,-122 36.8389,-86 155.1611,-86 155.1611,-122"/>
<text text-anchor="middle" x="96" y="-99.8" font-family="Times,serif" font-size="14.00" fill="#000000">HttpClientModule</text>
</g>
<!-- HttpClientModule&#45;&gt;SharedModuleModule -->
<g id="edge5" class="edge">
<title>HttpClientModule&#45;&gt;SharedModuleModule</title>
<path fill="none" stroke="#000000" d="M96,-122.1061C96,-141.3391 96,-169 96,-169 96,-169 277.8284,-169 277.8284,-169"/>
<polygon fill="#000000" stroke="#000000" points="277.8284,-172.5001 287.8284,-169 277.8284,-165.5001 277.8284,-172.5001"/>
</g>
</g>
</svg>
