<?xml version="1.0" encoding="UTF-8" standalone="no"?>
<!DOCTYPE svg PUBLIC "-//W3C//DTD SVG 1.1//EN"
 "http://www.w3.org/Graphics/SVG/1.1/DTD/svg11.dtd">
<!-- Generated by graphviz version 2.40.1 (20161225.0304)
 -->
<!-- Title: dependencies Pages: 1 -->
<svg width="894pt" height="211pt"
 viewBox="0.00 0.00 894.00 211.00" xmlns="http://www.w3.org/2000/svg" xmlns:xlink="http://www.w3.org/1999/xlink">
<g id="graph0" class="graph" transform="scale(1 1) rotate(0) translate(4 207)">
<title>dependencies</title>
<polygon fill="#ffffff" stroke="transparent" points="-4,4 -4,-207 890,-207 890,4 -4,4"/>
<text text-anchor="start" x="422.0091" y="-42.4" font-family="sans-serif" font-weight="bold" font-size="14.00" fill="#000000">Legend</text>
<polygon fill="#ffffb3" stroke="transparent" points="209,-10 209,-30 229,-30 229,-10 209,-10"/>
<text text-anchor="start" x="232.629" y="-15.4" font-family="sans-serif" font-size="14.00" fill="#000000"> &#160;Declarations</text>
<polygon fill="#8dd3c7" stroke="transparent" points="322,-10 322,-30 342,-30 342,-10 322,-10"/>
<text text-anchor="start" x="345.7251" y="-15.4" font-family="sans-serif" font-size="14.00" fill="#000000"> &#160;Module</text>
<polygon fill="#80b1d3" stroke="transparent" points="408,-10 408,-30 428,-30 428,-10 408,-10"/>
<text text-anchor="start" x="431.7812" y="-15.4" font-family="sans-serif" font-size="14.00" fill="#000000"> &#160;Bootstrap</text>
<polygon fill="#fdb462" stroke="transparent" points="505,-10 505,-30 525,-30 525,-10 505,-10"/>
<text text-anchor="start" x="528.6732" y="-15.4" font-family="sans-serif" font-size="14.00" fill="#000000"> &#160;Providers</text>
<polygon fill="#fb8072" stroke="transparent" points="601,-10 601,-30 621,-30 621,-10 601,-10"/>
<text text-anchor="start" x="624.7258" y="-15.4" font-family="sans-serif" font-size="14.00" fill="#000000"> &#160;Exports</text>
<g id="clust1" class="cluster">
<title>cluster_ArticleModule</title>
<polygon fill="none" stroke="#000000" stroke-dasharray="1,5" points="8,-70 8,-195 878,-195 878,-70 8,-70"/>
</g>
<g id="clust2" class="cluster">
<title>cluster_ArticleModule_declarations</title>
<polygon fill="none" stroke="#000000" points="420,-78 420,-130 870,-130 870,-78 420,-78"/>
</g>
<g id="clust6" class="cluster">
<title>cluster_ArticleModule_imports</title>
<polygon fill="none" stroke="#000000" points="184,-78 184,-130 412,-130 412,-78 184,-78"/>
</g>
<g id="clust9" class="cluster">
<title>cluster_ArticleModule_providers</title>
<polygon fill="none" stroke="#000000" points="16,-78 16,-130 176,-130 176,-78 16,-78"/>
</g>
<!-- ArticleComponent -->
<g id="node1" class="node">
<title>ArticleComponent</title>
<polygon fill="#ffffb3" stroke="#000000" points="862.2008,-122 741.7992,-122 741.7992,-86 862.2008,-86 862.2008,-122"/>
<text text-anchor="middle" x="802" y="-99.8" font-family="Times,serif" font-size="14.00" fill="#000000">ArticleComponent</text>
</g>
<!-- ArticleModule -->
<g id="node4" class="node">
<title>ArticleModule</title>
<polygon fill="#8dd3c7" stroke="#000000" points="466.4189,-187 463.4189,-191 442.4189,-191 439.4189,-187 367.5811,-187 367.5811,-151 466.4189,-151 466.4189,-187"/>
<text text-anchor="middle" x="417" y="-164.8" font-family="Times,serif" font-size="14.00" fill="#000000">ArticleModule</text>
</g>
<!-- ArticleComponent&#45;&gt;ArticleModule -->
<g id="edge1" class="edge">
<title>ArticleComponent&#45;&gt;ArticleModule</title>
<path fill="none" stroke="#000000" d="M802,-122.2843C802,-143.3211 802,-175 802,-175 802,-175 476.5438,-175 476.5438,-175"/>
<polygon fill="#000000" stroke="#000000" points="476.5439,-171.5001 466.5438,-175 476.5438,-178.5001 476.5439,-171.5001"/>
</g>
<!-- ArticleCommentComponent -->
<g id="node2" class="node">
<title>ArticleCommentComponent</title>
<polygon fill="#ffffb3" stroke="#000000" points="723.9241,-122 548.0759,-122 548.0759,-86 723.9241,-86 723.9241,-122"/>
<text text-anchor="middle" x="636" y="-99.8" font-family="Times,serif" font-size="14.00" fill="#000000">ArticleCommentComponent</text>
</g>
<!-- ArticleCommentComponent&#45;&gt;ArticleModule -->
<g id="edge2" class="edge">
<title>ArticleCommentComponent&#45;&gt;ArticleModule</title>
<path fill="none" stroke="#000000" d="M636,-122.0225C636,-139.3734 636,-163 636,-163 636,-163 476.4209,-163 476.4209,-163"/>
<polygon fill="#000000" stroke="#000000" points="476.421,-159.5001 466.4209,-163 476.4209,-166.5001 476.421,-159.5001"/>
</g>
<!-- MarkdownPipe -->
<g id="node3" class="node">
<title>MarkdownPipe</title>
<polygon fill="#ffffb3" stroke="#000000" points="530.3147,-122 427.6853,-122 427.6853,-86 530.3147,-86 530.3147,-122"/>
<text text-anchor="middle" x="479" y="-99.8" font-family="Times,serif" font-size="14.00" fill="#000000">MarkdownPipe</text>
</g>
<!-- MarkdownPipe&#45;&gt;ArticleModule -->
<g id="edge3" class="edge">
<title>MarkdownPipe&#45;&gt;ArticleModule</title>
<path fill="none" stroke="#000000" d="M447.026,-122.1061C447.026,-122.1061 447.026,-140.991 447.026,-140.991"/>
<polygon fill="#000000" stroke="#000000" points="443.526,-140.9909 447.026,-150.991 450.526,-140.991 443.526,-140.9909"/>
</g>
<!-- articleRouting -->
<g id="node5" class="node">
<title>articleRouting</title>
<polygon fill="#8dd3c7" stroke="#000000" points="404.094,-122 401.094,-126 380.094,-126 377.094,-122 307.906,-122 307.906,-86 404.094,-86 404.094,-122"/>
<text text-anchor="middle" x="356" y="-99.8" font-family="Times,serif" font-size="14.00" fill="#000000">articleRouting</text>
</g>
<!-- articleRouting&#45;&gt;ArticleModule -->
<g id="edge4" class="edge">
<title>articleRouting&#45;&gt;ArticleModule</title>
<path fill="none" stroke="#000000" d="M385.919,-122.1061C385.919,-122.1061 385.919,-140.991 385.919,-140.991"/>
<polygon fill="#000000" stroke="#000000" points="382.4191,-140.9909 385.919,-150.991 389.4191,-140.991 382.4191,-140.9909"/>
</g>
<!-- SharedModule -->
<g id="node6" class="node">
<title>SharedModule</title>
<polygon fill="#8dd3c7" stroke="#000000" points="290.4231,-122 287.4231,-126 266.4231,-126 263.4231,-122 191.5769,-122 191.5769,-86 290.4231,-86 290.4231,-122"/>
<text text-anchor="middle" x="241" y="-99.8" font-family="Times,serif" font-size="14.00" fill="#000000">SharedModule</text>
</g>
<!-- SharedModule&#45;&gt;ArticleModule -->
<g id="edge5" class="edge">
<title>SharedModule&#45;&gt;ArticleModule</title>
<path fill="none" stroke="#000000" d="M241,-122.0225C241,-139.3734 241,-163 241,-163 241,-163 357.5058,-163 357.5058,-163"/>
<polygon fill="#000000" stroke="#000000" points="357.5059,-166.5001 367.5058,-163 357.5058,-159.5001 357.5059,-166.5001"/>
</g>
<!-- ArticleResolver -->
<g id="node7" class="node">
<title>ArticleResolver</title>
<ellipse fill="#fdb462" stroke="#000000" cx="96" cy="-104" rx="72.3439" ry="18"/>
<text text-anchor="middle" x="96" y="-99.8" font-family="Times,serif" font-size="14.00" fill="#000000">ArticleResolver</text>
</g>
<!-- ArticleResolver&#45;&gt;ArticleModule -->
<g id="edge6" class="edge">
<title>ArticleResolver&#45;&gt;ArticleModule</title>
<path fill="none" stroke="#000000" d="M96,-122.2843C96,-143.3211 96,-175 96,-175 96,-175 357.5472,-175 357.5472,-175"/>
<polygon fill="#000000" stroke="#000000" points="357.5473,-178.5001 367.5472,-175 357.5472,-171.5001 357.5473,-178.5001"/>
</g>
</g>
</svg>
