<?xml version="1.0" encoding="UTF-8" standalone="no"?>
<!DOCTYPE svg PUBLIC "-//W3C//DTD SVG 1.1//EN"
 "http://www.w3.org/Graphics/SVG/1.1/DTD/svg11.dtd">
<!-- Generated by graphviz version 2.40.1 (20161225.0304)
 -->
<!-- Title: dependencies Pages: 1 -->
<svg width="953pt" height="211pt"
 viewBox="0.00 0.00 953.00 211.00" xmlns="http://www.w3.org/2000/svg" xmlns:xlink="http://www.w3.org/1999/xlink">
<g id="graph0" class="graph" transform="scale(1 1) rotate(0) translate(4 207)">
<title>dependencies</title>
<polygon fill="#ffffff" stroke="transparent" points="-4,4 -4,-207 949,-207 949,4 -4,4"/>
<text text-anchor="start" x="451.5091" y="-42.4" font-family="sans-serif" font-weight="bold" font-size="14.00" fill="#000000">Legend</text>
<polygon fill="#ffffb3" stroke="transparent" points="238.5,-10 238.5,-30 258.5,-30 258.5,-10 238.5,-10"/>
<text text-anchor="start" x="262.129" y="-15.4" font-family="sans-serif" font-size="14.00" fill="#000000"> &#160;Declarations</text>
<polygon fill="#8dd3c7" stroke="transparent" points="351.5,-10 351.5,-30 371.5,-30 371.5,-10 351.5,-10"/>
<text text-anchor="start" x="375.2251" y="-15.4" font-family="sans-serif" font-size="14.00" fill="#000000"> &#160;Module</text>
<polygon fill="#80b1d3" stroke="transparent" points="437.5,-10 437.5,-30 457.5,-30 457.5,-10 437.5,-10"/>
<text text-anchor="start" x="461.2812" y="-15.4" font-family="sans-serif" font-size="14.00" fill="#000000"> &#160;Bootstrap</text>
<polygon fill="#fdb462" stroke="transparent" points="534.5,-10 534.5,-30 554.5,-30 554.5,-10 534.5,-10"/>
<text text-anchor="start" x="558.1732" y="-15.4" font-family="sans-serif" font-size="14.00" fill="#000000"> &#160;Providers</text>
<polygon fill="#fb8072" stroke="transparent" points="630.5,-10 630.5,-30 650.5,-30 650.5,-10 630.5,-10"/>
<text text-anchor="start" x="654.2258" y="-15.4" font-family="sans-serif" font-size="14.00" fill="#000000"> &#160;Exports</text>
<g id="clust1" class="cluster">
<title>cluster_ProfileModule</title>
<polygon fill="none" stroke="#000000" stroke-dasharray="1,5" points="8,-70 8,-195 937,-195 937,-70 8,-70"/>
</g>
<g id="clust2" class="cluster">
<title>cluster_ProfileModule_declarations</title>
<polygon fill="none" stroke="#000000" points="422,-78 422,-130 929,-130 929,-78 422,-78"/>
</g>
<g id="clust6" class="cluster">
<title>cluster_ProfileModule_imports</title>
<polygon fill="none" stroke="#000000" points="184,-78 184,-130 414,-130 414,-78 184,-78"/>
</g>
<g id="clust9" class="cluster">
<title>cluster_ProfileModule_providers</title>
<polygon fill="none" stroke="#000000" points="16,-78 16,-130 176,-130 176,-78 16,-78"/>
</g>
<!-- ProfileArticlesComponent -->
<g id="node1" class="node">
<title>ProfileArticlesComponent</title>
<polygon fill="#ffffb3" stroke="#000000" points="920.745,-122 757.255,-122 757.255,-86 920.745,-86 920.745,-122"/>
<text text-anchor="middle" x="839" y="-99.8" font-family="Times,serif" font-size="14.00" fill="#000000">ProfileArticlesComponent</text>
</g>
<!-- ProfileModule -->
<g id="node4" class="node">
<title>ProfileModule</title>
<polygon fill="#8dd3c7" stroke="#000000" points="484.65,-187 481.65,-191 460.65,-191 457.65,-187 387.35,-187 387.35,-151 484.65,-151 484.65,-187"/>
<text text-anchor="middle" x="436" y="-164.8" font-family="Times,serif" font-size="14.00" fill="#000000">ProfileModule</text>
</g>
<!-- ProfileArticlesComponent&#45;&gt;ProfileModule -->
<g id="edge1" class="edge">
<title>ProfileArticlesComponent&#45;&gt;ProfileModule</title>
<path fill="none" stroke="#000000" d="M839,-122.2843C839,-143.3211 839,-175 839,-175 839,-175 495.0128,-175 495.0128,-175"/>
<polygon fill="#000000" stroke="#000000" points="495.0128,-171.5001 485.0128,-175 495.0128,-178.5001 495.0128,-171.5001"/>
</g>
<!-- ProfileComponent -->
<g id="node2" class="node">
<title>ProfileComponent</title>
<polygon fill="#ffffb3" stroke="#000000" points="738.9328,-122 619.0672,-122 619.0672,-86 738.9328,-86 738.9328,-122"/>
<text text-anchor="middle" x="679" y="-99.8" font-family="Times,serif" font-size="14.00" fill="#000000">ProfileComponent</text>
</g>
<!-- ProfileComponent&#45;&gt;ProfileModule -->
<g id="edge2" class="edge">
<title>ProfileComponent&#45;&gt;ProfileModule</title>
<path fill="none" stroke="#000000" d="M679,-122.0225C679,-139.3734 679,-163 679,-163 679,-163 494.8824,-163 494.8824,-163"/>
<polygon fill="#000000" stroke="#000000" points="494.8824,-159.5001 484.8824,-163 494.8823,-166.5001 494.8824,-159.5001"/>
</g>
<!-- ProfileFavoritesComponent -->
<g id="node3" class="node">
<title>ProfileFavoritesComponent</title>
<polygon fill="#ffffb3" stroke="#000000" points="601.5308,-122 430.4692,-122 430.4692,-86 601.5308,-86 601.5308,-122"/>
<text text-anchor="middle" x="516" y="-99.8" font-family="Times,serif" font-size="14.00" fill="#000000">ProfileFavoritesComponent</text>
</g>
<!-- ProfileFavoritesComponent&#45;&gt;ProfileModule -->
<g id="edge3" class="edge">
<title>ProfileFavoritesComponent&#45;&gt;ProfileModule</title>
<path fill="none" stroke="#000000" d="M457.5298,-122.1061C457.5298,-122.1061 457.5298,-140.991 457.5298,-140.991"/>
<polygon fill="#000000" stroke="#000000" points="454.0299,-140.9909 457.5298,-150.991 461.0299,-140.991 454.0299,-140.9909"/>
</g>
<!-- profileRouting -->
<g id="node5" class="node">
<title>profileRouting</title>
<polygon fill="#8dd3c7" stroke="#000000" points="406.4358,-122 403.4358,-126 382.4358,-126 379.4358,-122 307.5642,-122 307.5642,-86 406.4358,-86 406.4358,-122"/>
<text text-anchor="middle" x="357" y="-99.8" font-family="Times,serif" font-size="14.00" fill="#000000">profileRouting</text>
</g>
<!-- profileRouting&#45;&gt;ProfileModule -->
<g id="edge4" class="edge">
<title>profileRouting&#45;&gt;ProfileModule</title>
<path fill="none" stroke="#000000" d="M396.6964,-122.1061C396.6964,-122.1061 396.6964,-140.991 396.6964,-140.991"/>
<polygon fill="#000000" stroke="#000000" points="393.1964,-140.9909 396.6964,-150.991 400.1964,-140.991 393.1964,-140.9909"/>
</g>
<!-- SharedModule -->
<g id="node6" class="node">
<title>SharedModule</title>
<polygon fill="#8dd3c7" stroke="#000000" points="290.4231,-122 287.4231,-126 266.4231,-126 263.4231,-122 191.5769,-122 191.5769,-86 290.4231,-86 290.4231,-122"/>
<text text-anchor="middle" x="241" y="-99.8" font-family="Times,serif" font-size="14.00" fill="#000000">SharedModule</text>
</g>
<!-- SharedModule&#45;&gt;ProfileModule -->
<g id="edge5" class="edge">
<title>SharedModule&#45;&gt;ProfileModule</title>
<path fill="none" stroke="#000000" d="M241,-122.0225C241,-139.3734 241,-163 241,-163 241,-163 377.2963,-163 377.2963,-163"/>
<polygon fill="#000000" stroke="#000000" points="377.2963,-166.5001 387.2963,-163 377.2962,-159.5001 377.2963,-166.5001"/>
</g>
<!-- ProfileResolver -->
<g id="node7" class="node">
<title>ProfileResolver</title>
<ellipse fill="#fdb462" stroke="#000000" cx="96" cy="-104" rx="71.7834" ry="18"/>
<text text-anchor="middle" x="96" y="-99.8" font-family="Times,serif" font-size="14.00" fill="#000000">ProfileResolver</text>
</g>
<!-- ProfileResolver&#45;&gt;ProfileModule -->
<g id="edge6" class="edge">
<title>ProfileResolver&#45;&gt;ProfileModule</title>
<path fill="none" stroke="#000000" d="M96,-122.2843C96,-143.3211 96,-175 96,-175 96,-175 377.2863,-175 377.2863,-175"/>
<polygon fill="#000000" stroke="#000000" points="377.2863,-178.5001 387.2863,-175 377.2863,-171.5001 377.2863,-178.5001"/>
</g>
</g>
</svg>
