<?xml version="1.0" encoding="UTF-8" standalone="no"?>
<!DOCTYPE svg PUBLIC "-//W3C//DTD SVG 1.1//EN"
 "http://www.w3.org/Graphics/SVG/1.1/DTD/svg11.dtd">
<!-- Generated by graphviz version 2.40.1 (20161225.0304)
 -->
<!-- Title: dependencies Pages: 1 -->
<svg width="1241pt" height="284pt"
 viewBox="0.00 0.00 1241.00 284.00" xmlns="http://www.w3.org/2000/svg" xmlns:xlink="http://www.w3.org/1999/xlink">
<g id="graph0" class="graph" transform="scale(1 1) rotate(0) translate(4 280)">
<title>dependencies</title>
<polygon fill="#ffffff" stroke="transparent" points="-4,4 -4,-280 1237,-280 1237,4 -4,4"/>
<text text-anchor="start" x="595.5091" y="-42.4" font-family="sans-serif" font-weight="bold" font-size="14.00" fill="#000000">Legend</text>
<polygon fill="#ffffb3" stroke="transparent" points="382.5,-10 382.5,-30 402.5,-30 402.5,-10 382.5,-10"/>
<text text-anchor="start" x="406.129" y="-15.4" font-family="sans-serif" font-size="14.00" fill="#000000"> &#160;Declarations</text>
<polygon fill="#8dd3c7" stroke="transparent" points="495.5,-10 495.5,-30 515.5,-30 515.5,-10 495.5,-10"/>
<text text-anchor="start" x="519.2251" y="-15.4" font-family="sans-serif" font-size="14.00" fill="#000000"> &#160;Module</text>
<polygon fill="#80b1d3" stroke="transparent" points="581.5,-10 581.5,-30 601.5,-30 601.5,-10 581.5,-10"/>
<text text-anchor="start" x="605.2812" y="-15.4" font-family="sans-serif" font-size="14.00" fill="#000000"> &#160;Bootstrap</text>
<polygon fill="#fdb462" stroke="transparent" points="678.5,-10 678.5,-30 698.5,-30 698.5,-10 678.5,-10"/>
<text text-anchor="start" x="702.1732" y="-15.4" font-family="sans-serif" font-size="14.00" fill="#000000"> &#160;Providers</text>
<polygon fill="#fb8072" stroke="transparent" points="774.5,-10 774.5,-30 794.5,-30 794.5,-10 774.5,-10"/>
<text text-anchor="start" x="798.2258" y="-15.4" font-family="sans-serif" font-size="14.00" fill="#000000"> &#160;Exports</text>
<g id="clust1" class="cluster">
<title>cluster_ContentModuleModule</title>
<polygon fill="none" stroke="#000000" stroke-dasharray="1,5" points="8,-70 8,-268 1225,-268 1225,-70 8,-70"/>
</g>
<g id="clust2" class="cluster">
<title>cluster_ContentModuleModule_declarations</title>
<polygon fill="none" stroke="#000000" points="312,-78 312,-130 1217,-130 1217,-78 312,-78"/>
</g>
<g id="clust9" class="cluster">
<title>cluster_ContentModuleModule_imports</title>
<polygon fill="none" stroke="#000000" points="16,-78 16,-130 304,-130 304,-78 16,-78"/>
</g>
<g id="clust10" class="cluster">
<title>cluster_ContentModuleModule_exports</title>
<polygon fill="none" stroke="#000000" points="433,-208 433,-260 860,-260 860,-208 433,-208"/>
</g>
<!-- ContentComponent -->
<g id="node1" class="node">
<title>ContentComponent</title>
<polygon fill="#ffffb3" stroke="#000000" points="1208.6652,-122 1083.3348,-122 1083.3348,-86 1208.6652,-86 1208.6652,-122"/>
<text text-anchor="middle" x="1146" y="-99.8" font-family="Times,serif" font-size="14.00" fill="#000000">ContentComponent</text>
</g>
<!-- ContentModuleModule -->
<g id="node7" class="node">
<title>ContentModuleModule</title>
<polygon fill="#8dd3c7" stroke="#000000" points="709.9326,-187 706.9326,-191 685.9326,-191 682.9326,-187 562.0674,-187 562.0674,-151 709.9326,-151 709.9326,-187"/>
<text text-anchor="middle" x="636" y="-164.8" font-family="Times,serif" font-size="14.00" fill="#000000">ContentModuleModule</text>
</g>
<!-- ContentComponent&#45;&gt;ContentModuleModule -->
<g id="edge1" class="edge">
<title>ContentComponent&#45;&gt;ContentModuleModule</title>
<path fill="none" stroke="#000000" d="M1146,-122.1289C1146,-142.5724 1146,-173 1146,-173 1146,-173 719.8859,-173 719.8859,-173"/>
<polygon fill="#000000" stroke="#000000" points="719.8859,-169.5001 709.8859,-173 719.8858,-176.5001 719.8859,-169.5001"/>
</g>
<!-- CategoryComponent -->
<g id="node2" class="node">
<title>CategoryComponent</title>
<polygon fill="#ffffb3" stroke="#000000" points="1065.1499,-122 932.8501,-122 932.8501,-86 1065.1499,-86 1065.1499,-122"/>
<text text-anchor="middle" x="999" y="-99.8" font-family="Times,serif" font-size="14.00" fill="#000000">CategoryComponent</text>
</g>
<!-- CategoryComponent&#45;&gt;ContentModuleModule -->
<g id="edge2" class="edge">
<title>CategoryComponent&#45;&gt;ContentModuleModule</title>
<path fill="none" stroke="#000000" d="M999,-122.2667C999,-140.5552 999,-166 999,-166 999,-166 719.896,-166 719.896,-166"/>
<polygon fill="#000000" stroke="#000000" points="719.896,-162.5001 709.896,-166 719.896,-169.5001 719.896,-162.5001"/>
</g>
<!-- PostComponent -->
<g id="node3" class="node">
<title>PostComponent</title>
<polygon fill="#ffffb3" stroke="#000000" points="914.9512,-122 809.0488,-122 809.0488,-86 914.9512,-86 914.9512,-122"/>
<text text-anchor="middle" x="862" y="-99.8" font-family="Times,serif" font-size="14.00" fill="#000000">PostComponent</text>
</g>
<!-- PostComponent&#45;&gt;ContentModuleModule -->
<g id="edge3" class="edge">
<title>PostComponent&#45;&gt;ContentModuleModule</title>
<path fill="none" stroke="#000000" d="M830.4287,-122.0091C830.4287,-138.0494 830.4287,-159 830.4287,-159 830.4287,-159 719.7824,-159 719.7824,-159"/>
<polygon fill="#000000" stroke="#000000" points="719.7824,-155.5001 709.7824,-159 719.7823,-162.5001 719.7824,-155.5001"/>
</g>
<!-- PostFooterComponent -->
<g id="node4" class="node">
<title>PostFooterComponent</title>
<polygon fill="#ffffb3" stroke="#000000" points="790.9986,-122 649.0014,-122 649.0014,-86 790.9986,-86 790.9986,-122"/>
<text text-anchor="middle" x="720" y="-99.8" font-family="Times,serif" font-size="14.00" fill="#000000">PostFooterComponent</text>
</g>
<!-- PostFooterComponent&#45;&gt;ContentModuleModule -->
<g id="edge4" class="edge">
<title>PostFooterComponent&#45;&gt;ContentModuleModule</title>
<path fill="none" stroke="#000000" d="M679.3584,-122.1061C679.3584,-122.1061 679.3584,-140.991 679.3584,-140.991"/>
<polygon fill="#000000" stroke="#000000" points="675.8584,-140.9909 679.3584,-150.991 682.8584,-140.991 675.8584,-140.9909"/>
</g>
<!-- WithCommentsDirective -->
<g id="node5" class="node">
<title>WithCommentsDirective</title>
<polygon fill="#ffffb3" stroke="#000000" points="631.2464,-122 474.7536,-122 474.7536,-86 631.2464,-86 631.2464,-122"/>
<text text-anchor="middle" x="553" y="-99.8" font-family="Times,serif" font-size="14.00" fill="#000000">WithCommentsDirective</text>
</g>
<!-- WithCommentsDirective&#45;&gt;ContentModuleModule -->
<g id="edge5" class="edge">
<title>WithCommentsDirective&#45;&gt;ContentModuleModule</title>
<path fill="none" stroke="#000000" d="M596.8285,-122.1061C596.8285,-122.1061 596.8285,-140.991 596.8285,-140.991"/>
<polygon fill="#000000" stroke="#000000" points="593.3286,-140.9909 596.8285,-150.991 600.3286,-140.991 593.3286,-140.9909"/>
</g>
<!-- CommentComponent -->
<g id="node6" class="node">
<title>CommentComponent</title>
<polygon fill="#ffffb3" stroke="#000000" points="456.0561,-122 319.9439,-122 319.9439,-86 456.0561,-86 456.0561,-122"/>
<text text-anchor="middle" x="388" y="-99.8" font-family="Times,serif" font-size="14.00" fill="#000000">CommentComponent</text>
</g>
<!-- CommentComponent&#45;&gt;ContentModuleModule -->
<g id="edge6" class="edge">
<title>CommentComponent&#45;&gt;ContentModuleModule</title>
<path fill="none" stroke="#000000" d="M448.4013,-122.0091C448.4013,-138.0494 448.4013,-159 448.4013,-159 448.4013,-159 552.1253,-159 552.1253,-159"/>
<polygon fill="#000000" stroke="#000000" points="552.1254,-162.5001 562.1253,-159 552.1253,-155.5001 552.1254,-162.5001"/>
</g>
<!-- ContentComponent  -->
<g id="node10" class="node">
<title>ContentComponent </title>
<polygon fill="#fb8072" stroke="#000000" points="851.6649,-252 722.3351,-252 722.3351,-216 851.6649,-216 851.6649,-252"/>
<text text-anchor="middle" x="787" y="-229.8" font-family="Times,serif" font-size="14.00" fill="#000000">ContentComponent </text>
</g>
<!-- ContentModuleModule&#45;&gt;ContentComponent  -->
<g id="edge9" class="edge">
<title>ContentModuleModule&#45;&gt;ContentComponent </title>
<path fill="none" stroke="#000000" stroke-dasharray="5,2" d="M710.0394,-180C735.0256,-180 756.7085,-180 756.7085,-180 756.7085,-180 756.7085,-205.7181 756.7085,-205.7181"/>
<polygon fill="#000000" stroke="#000000" points="753.2085,-205.718 756.7085,-215.7181 760.2085,-205.7181 753.2085,-205.718"/>
</g>
<!-- CategoryComponent  -->
<g id="node11" class="node">
<title>CategoryComponent </title>
<polygon fill="#fb8072" stroke="#000000" points="704.1495,-252 567.8505,-252 567.8505,-216 704.1495,-216 704.1495,-252"/>
<text text-anchor="middle" x="636" y="-229.8" font-family="Times,serif" font-size="14.00" fill="#000000">CategoryComponent </text>
</g>
<!-- ContentModuleModule&#45;&gt;CategoryComponent  -->
<g id="edge10" class="edge">
<title>ContentModuleModule&#45;&gt;CategoryComponent </title>
<path fill="none" stroke="#000000" stroke-dasharray="5,2" d="M636,-187.1061C636,-187.1061 636,-205.991 636,-205.991"/>
<polygon fill="#000000" stroke="#000000" points="632.5001,-205.9909 636,-215.991 639.5001,-205.991 632.5001,-205.9909"/>
</g>
<!-- PostComponent  -->
<g id="node12" class="node">
<title>PostComponent </title>
<polygon fill="#fb8072" stroke="#000000" points="549.4502,-252 440.5498,-252 440.5498,-216 549.4502,-216 549.4502,-252"/>
<text text-anchor="middle" x="495" y="-229.8" font-family="Times,serif" font-size="14.00" fill="#000000">PostComponent </text>
</g>
<!-- ContentModuleModule&#45;&gt;PostComponent  -->
<g id="edge11" class="edge">
<title>ContentModuleModule&#45;&gt;PostComponent </title>
<path fill="none" stroke="#000000" stroke-dasharray="5,2" d="M562.1085,-180C535.5643,-180 512.051,-180 512.051,-180 512.051,-180 512.051,-205.7181 512.051,-205.7181"/>
<polygon fill="#000000" stroke="#000000" points="508.5511,-205.718 512.051,-215.7181 515.5511,-205.7181 508.5511,-205.718"/>
</g>
<!-- CommonModule -->
<g id="node8" class="node">
<title>CommonModule</title>
<polygon fill="#8dd3c7" stroke="#000000" points="295.6681,-122 292.6681,-126 271.6681,-126 268.6681,-122 184.3319,-122 184.3319,-86 295.6681,-86 295.6681,-122"/>
<text text-anchor="middle" x="240" y="-99.8" font-family="Times,serif" font-size="14.00" fill="#000000">CommonModule</text>
</g>
<!-- CommonModule&#45;&gt;ContentModuleModule -->
<g id="edge7" class="edge">
<title>CommonModule&#45;&gt;ContentModuleModule</title>
<path fill="none" stroke="#000000" d="M240,-122.2667C240,-140.5552 240,-166 240,-166 240,-166 551.98,-166 551.98,-166"/>
<polygon fill="#000000" stroke="#000000" points="551.98,-169.5001 561.98,-166 551.9799,-162.5001 551.98,-169.5001"/>
</g>
<!-- SharedModuleModule -->
<g id="node9" class="node">
<title>SharedModuleModule</title>
<polygon fill="#8dd3c7" stroke="#000000" points="165.972,-122 162.972,-126 141.972,-126 138.972,-122 24.028,-122 24.028,-86 165.972,-86 165.972,-122"/>
<text text-anchor="middle" x="95" y="-99.8" font-family="Times,serif" font-size="14.00" fill="#000000">SharedModuleModule</text>
</g>
<!-- SharedModuleModule&#45;&gt;ContentModuleModule -->
<g id="edge8" class="edge">
<title>SharedModuleModule&#45;&gt;ContentModuleModule</title>
<path fill="none" stroke="#000000" d="M95,-122.1289C95,-142.5724 95,-173 95,-173 95,-173 552.1932,-173 552.1932,-173"/>
<polygon fill="#000000" stroke="#000000" points="552.1932,-176.5001 562.1932,-173 552.1931,-169.5001 552.1932,-176.5001"/>
</g>
</g>
</svg>
