<?xml version="1.0" encoding="UTF-8" standalone="no"?>
<!DOCTYPE svg PUBLIC "-//W3C//DTD SVG 1.1//EN"
 "http://www.w3.org/Graphics/SVG/1.1/DTD/svg11.dtd">
<!-- Generated by graphviz version 2.40.1 (20161225.0304)
 -->
<!-- Title: dependencies Pages: 1 -->
<svg width="638pt" height="211pt"
 viewBox="0.00 0.00 638.00 211.00" xmlns="http://www.w3.org/2000/svg" xmlns:xlink="http://www.w3.org/1999/xlink">
<g id="graph0" class="graph" transform="scale(1 1) rotate(0) translate(4 207)">
<title>dependencies</title>
<polygon fill="#ffffff" stroke="transparent" points="-4,4 -4,-207 634,-207 634,4 -4,4"/>
<text text-anchor="start" x="294.0091" y="-42.4" font-family="sans-serif" font-weight="bold" font-size="14.00" fill="#000000">Legend</text>
<polygon fill="#ffffb3" stroke="transparent" points="81,-10 81,-30 101,-30 101,-10 81,-10"/>
<text text-anchor="start" x="104.629" y="-15.4" font-family="sans-serif" font-size="14.00" fill="#000000"> &#160;Declarations</text>
<polygon fill="#8dd3c7" stroke="transparent" points="194,-10 194,-30 214,-30 214,-10 194,-10"/>
<text text-anchor="start" x="217.7251" y="-15.4" font-family="sans-serif" font-size="14.00" fill="#000000"> &#160;Module</text>
<polygon fill="#80b1d3" stroke="transparent" points="280,-10 280,-30 300,-30 300,-10 280,-10"/>
<text text-anchor="start" x="303.7812" y="-15.4" font-family="sans-serif" font-size="14.00" fill="#000000"> &#160;Bootstrap</text>
<polygon fill="#fdb462" stroke="transparent" points="377,-10 377,-30 397,-30 397,-10 377,-10"/>
<text text-anchor="start" x="400.6732" y="-15.4" font-family="sans-serif" font-size="14.00" fill="#000000"> &#160;Providers</text>
<polygon fill="#fb8072" stroke="transparent" points="473,-10 473,-30 493,-30 493,-10 473,-10"/>
<text text-anchor="start" x="496.7258" y="-15.4" font-family="sans-serif" font-size="14.00" fill="#000000"> &#160;Exports</text>
<g id="clust1" class="cluster">
<title>cluster_EditorModule</title>
<polygon fill="none" stroke="#000000" stroke-dasharray="1,5" points="8,-70 8,-195 622,-195 622,-70 8,-70"/>
</g>
<g id="clust2" class="cluster">
<title>cluster_EditorModule_declarations</title>
<polygon fill="none" stroke="#000000" points="482,-78 482,-130 614,-130 614,-78 482,-78"/>
</g>
<g id="clust4" class="cluster">
<title>cluster_EditorModule_imports</title>
<polygon fill="none" stroke="#000000" points="248,-78 248,-130 474,-130 474,-78 248,-78"/>
</g>
<g id="clust7" class="cluster">
<title>cluster_EditorModule_providers</title>
<polygon fill="none" stroke="#000000" points="16,-78 16,-130 240,-130 240,-78 16,-78"/>
</g>
<!-- EditorComponent -->
<g id="node1" class="node">
<title>EditorComponent</title>
<polygon fill="#ffffb3" stroke="#000000" points="606.3273,-122 489.6727,-122 489.6727,-86 606.3273,-86 606.3273,-122"/>
<text text-anchor="middle" x="548" y="-99.8" font-family="Times,serif" font-size="14.00" fill="#000000">EditorComponent</text>
</g>
<!-- EditorModule -->
<g id="node2" class="node">
<title>EditorModule</title>
<polygon fill="#8dd3c7" stroke="#000000" points="409.0453,-187 406.0453,-191 385.0453,-191 382.0453,-187 314.9547,-187 314.9547,-151 409.0453,-151 409.0453,-187"/>
<text text-anchor="middle" x="362" y="-164.8" font-family="Times,serif" font-size="14.00" fill="#000000">EditorModule</text>
</g>
<!-- EditorComponent&#45;&gt;EditorModule -->
<g id="edge1" class="edge">
<title>EditorComponent&#45;&gt;EditorModule</title>
<path fill="none" stroke="#000000" d="M548,-122.1061C548,-141.3391 548,-169 548,-169 548,-169 419.4169,-169 419.4169,-169"/>
<polygon fill="#000000" stroke="#000000" points="419.4169,-165.5001 409.4169,-169 419.4169,-172.5001 419.4169,-165.5001"/>
</g>
<!-- editorRouting -->
<g id="node3" class="node">
<title>editorRouting</title>
<polygon fill="#8dd3c7" stroke="#000000" points="465.7745,-122 462.7745,-126 441.7745,-126 438.7745,-122 372.2255,-122 372.2255,-86 465.7745,-86 465.7745,-122"/>
<text text-anchor="middle" x="419" y="-99.8" font-family="Times,serif" font-size="14.00" fill="#000000">editorRouting</text>
</g>
<!-- editorRouting&#45;&gt;EditorModule -->
<g id="edge2" class="edge">
<title>editorRouting&#45;&gt;EditorModule</title>
<path fill="none" stroke="#000000" d="M390.6925,-122.1061C390.6925,-122.1061 390.6925,-140.991 390.6925,-140.991"/>
<polygon fill="#000000" stroke="#000000" points="387.1926,-140.9909 390.6925,-150.991 394.1926,-140.991 387.1926,-140.9909"/>
</g>
<!-- SharedModule -->
<g id="node4" class="node">
<title>SharedModule</title>
<polygon fill="#8dd3c7" stroke="#000000" points="354.4231,-122 351.4231,-126 330.4231,-126 327.4231,-122 255.5769,-122 255.5769,-86 354.4231,-86 354.4231,-122"/>
<text text-anchor="middle" x="305" y="-99.8" font-family="Times,serif" font-size="14.00" fill="#000000">SharedModule</text>
</g>
<!-- SharedModule&#45;&gt;EditorModule -->
<g id="edge3" class="edge">
<title>SharedModule&#45;&gt;EditorModule</title>
<path fill="none" stroke="#000000" d="M334.4695,-122.1061C334.4695,-122.1061 334.4695,-140.991 334.4695,-140.991"/>
<polygon fill="#000000" stroke="#000000" points="330.9696,-140.9909 334.4695,-150.991 337.9696,-140.991 330.9696,-140.9909"/>
</g>
<!-- EditableArticleResolver -->
<g id="node5" class="node">
<title>EditableArticleResolver</title>
<ellipse fill="#fdb462" stroke="#000000" cx="128" cy="-104" rx="104.2053" ry="18"/>
<text text-anchor="middle" x="128" y="-99.8" font-family="Times,serif" font-size="14.00" fill="#000000">EditableArticleResolver</text>
</g>
<!-- EditableArticleResolver&#45;&gt;EditorModule -->
<g id="edge4" class="edge">
<title>EditableArticleResolver&#45;&gt;EditorModule</title>
<path fill="none" stroke="#000000" d="M128,-122.1061C128,-141.3391 128,-169 128,-169 128,-169 304.9281,-169 304.9281,-169"/>
<polygon fill="#000000" stroke="#000000" points="304.9281,-172.5001 314.9281,-169 304.9281,-165.5001 304.9281,-172.5001"/>
</g>
</g>
</svg>
