<?xml version="1.0" encoding="UTF-8" standalone="no"?>
<!DOCTYPE svg PUBLIC "-//W3C//DTD SVG 1.1//EN"
 "http://www.w3.org/Graphics/SVG/1.1/DTD/svg11.dtd">
<!-- Generated by graphviz version 2.40.1 (20161225.0304)
 -->
<!-- Title: dependencies Pages: 1 -->
<svg width="548pt" height="211pt"
 viewBox="0.00 0.00 548.00 211.00" xmlns="http://www.w3.org/2000/svg" xmlns:xlink="http://www.w3.org/1999/xlink">
<g id="graph0" class="graph" transform="scale(1 1) rotate(0) translate(4 207)">
<title>dependencies</title>
<polygon fill="#ffffff" stroke="transparent" points="-4,4 -4,-207 544,-207 544,4 -4,4"/>
<text text-anchor="start" x="249.0091" y="-42.4" font-family="sans-serif" font-weight="bold" font-size="14.00" fill="#000000">Legend</text>
<polygon fill="#ffffb3" stroke="transparent" points="36,-10 36,-30 56,-30 56,-10 36,-10"/>
<text text-anchor="start" x="59.629" y="-15.4" font-family="sans-serif" font-size="14.00" fill="#000000"> &#160;Declarations</text>
<polygon fill="#8dd3c7" stroke="transparent" points="149,-10 149,-30 169,-30 169,-10 149,-10"/>
<text text-anchor="start" x="172.7251" y="-15.4" font-family="sans-serif" font-size="14.00" fill="#000000"> &#160;Module</text>
<polygon fill="#80b1d3" stroke="transparent" points="235,-10 235,-30 255,-30 255,-10 235,-10"/>
<text text-anchor="start" x="258.7812" y="-15.4" font-family="sans-serif" font-size="14.00" fill="#000000"> &#160;Bootstrap</text>
<polygon fill="#fdb462" stroke="transparent" points="332,-10 332,-30 352,-30 352,-10 332,-10"/>
<text text-anchor="start" x="355.6732" y="-15.4" font-family="sans-serif" font-size="14.00" fill="#000000"> &#160;Providers</text>
<polygon fill="#fb8072" stroke="transparent" points="428,-10 428,-30 448,-30 448,-10 428,-10"/>
<text text-anchor="start" x="451.7258" y="-15.4" font-family="sans-serif" font-size="14.00" fill="#000000"> &#160;Exports</text>
<g id="clust1" class="cluster">
<title>cluster_AuthModule</title>
<polygon fill="none" stroke="#000000" stroke-dasharray="1,5" points="8,-70 8,-195 532,-195 532,-70 8,-70"/>
</g>
<g id="clust2" class="cluster">
<title>cluster_AuthModule_declarations</title>
<polygon fill="none" stroke="#000000" points="398,-78 398,-130 524,-130 524,-78 398,-78"/>
</g>
<g id="clust4" class="cluster">
<title>cluster_AuthModule_imports</title>
<polygon fill="none" stroke="#000000" points="172,-78 172,-130 390,-130 390,-78 172,-78"/>
</g>
<g id="clust7" class="cluster">
<title>cluster_AuthModule_providers</title>
<polygon fill="none" stroke="#000000" points="16,-78 16,-130 164,-130 164,-78 16,-78"/>
</g>
<!-- AuthComponent -->
<g id="node1" class="node">
<title>AuthComponent</title>
<polygon fill="#ffffb3" stroke="#000000" points="515.8301,-122 406.1699,-122 406.1699,-86 515.8301,-86 515.8301,-122"/>
<text text-anchor="middle" x="461" y="-99.8" font-family="Times,serif" font-size="14.00" fill="#000000">AuthComponent</text>
</g>
<!-- AuthModule -->
<g id="node2" class="node">
<title>AuthModule</title>
<polygon fill="#8dd3c7" stroke="#000000" points="327.5482,-187 324.5482,-191 303.5482,-191 300.5482,-187 240.4518,-187 240.4518,-151 327.5482,-151 327.5482,-187"/>
<text text-anchor="middle" x="284" y="-164.8" font-family="Times,serif" font-size="14.00" fill="#000000">AuthModule</text>
</g>
<!-- AuthComponent&#45;&gt;AuthModule -->
<g id="edge1" class="edge">
<title>AuthComponent&#45;&gt;AuthModule</title>
<path fill="none" stroke="#000000" d="M461,-122.1061C461,-141.3391 461,-169 461,-169 461,-169 337.7528,-169 337.7528,-169"/>
<polygon fill="#000000" stroke="#000000" points="337.7529,-165.5001 327.7528,-169 337.7528,-172.5001 337.7529,-165.5001"/>
</g>
<!-- authRouting -->
<g id="node3" class="node">
<title>authRouting</title>
<polygon fill="#8dd3c7" stroke="#000000" points="381.7233,-122 378.7233,-126 357.7233,-126 354.7233,-122 296.2767,-122 296.2767,-86 381.7233,-86 381.7233,-122"/>
<text text-anchor="middle" x="339" y="-99.8" font-family="Times,serif" font-size="14.00" fill="#000000">authRouting</text>
</g>
<!-- authRouting&#45;&gt;AuthModule -->
<g id="edge2" class="edge">
<title>authRouting&#45;&gt;AuthModule</title>
<path fill="none" stroke="#000000" d="M312.081,-122.1061C312.081,-122.1061 312.081,-140.991 312.081,-140.991"/>
<polygon fill="#000000" stroke="#000000" points="308.5811,-140.9909 312.081,-150.991 315.5811,-140.991 308.5811,-140.9909"/>
</g>
<!-- SharedModule -->
<g id="node4" class="node">
<title>SharedModule</title>
<polygon fill="#8dd3c7" stroke="#000000" points="278.4231,-122 275.4231,-126 254.4231,-126 251.4231,-122 179.5769,-122 179.5769,-86 278.4231,-86 278.4231,-122"/>
<text text-anchor="middle" x="229" y="-99.8" font-family="Times,serif" font-size="14.00" fill="#000000">SharedModule</text>
</g>
<!-- SharedModule&#45;&gt;AuthModule -->
<g id="edge3" class="edge">
<title>SharedModule&#45;&gt;AuthModule</title>
<path fill="none" stroke="#000000" d="M259.2188,-122.1061C259.2188,-122.1061 259.2188,-140.991 259.2188,-140.991"/>
<polygon fill="#000000" stroke="#000000" points="255.7189,-140.9909 259.2188,-150.991 262.7189,-140.991 255.7189,-140.9909"/>
</g>
<!-- NoAuthGuard -->
<g id="node5" class="node">
<title>NoAuthGuard</title>
<ellipse fill="#fdb462" stroke="#000000" cx="90" cy="-104" rx="66.0569" ry="18"/>
<text text-anchor="middle" x="90" y="-99.8" font-family="Times,serif" font-size="14.00" fill="#000000">NoAuthGuard</text>
</g>
<!-- NoAuthGuard&#45;&gt;AuthModule -->
<g id="edge4" class="edge">
<title>NoAuthGuard&#45;&gt;AuthModule</title>
<path fill="none" stroke="#000000" d="M90,-122.1061C90,-141.3391 90,-169 90,-169 90,-169 229.9784,-169 229.9784,-169"/>
<polygon fill="#000000" stroke="#000000" points="229.9784,-172.5001 239.9784,-169 229.9784,-165.5001 229.9784,-172.5001"/>
</g>
</g>
</svg>
