<?xml version="1.0" encoding="UTF-8" standalone="no"?>
<!DOCTYPE svg PUBLIC "-//W3C//DTD SVG 1.1//EN"
 "http://www.w3.org/Graphics/SVG/1.1/DTD/svg11.dtd">
<!-- Generated by graphviz version 2.40.1 (20161225.0304)
 -->
<!-- Title: dependencies Pages: 1 -->
<svg width="3852pt" height="436pt"
 viewBox="0.00 0.00 3852.00 436.00" xmlns="http://www.w3.org/2000/svg" xmlns:xlink="http://www.w3.org/1999/xlink">
<g id="graph0" class="graph" transform="scale(1 1) rotate(0) translate(4 432)">
<title>dependencies</title>
<polygon fill="#ffffff" stroke="transparent" points="-4,4 -4,-432 3848,-432 3848,4 -4,4"/>
<text text-anchor="start" x="1901.0091" y="-42.4" font-family="sans-serif" font-weight="bold" font-size="14.00" fill="#000000">Legend</text>
<polygon fill="#ffffb3" stroke="transparent" points="1688,-10 1688,-30 1708,-30 1708,-10 1688,-10"/>
<text text-anchor="start" x="1711.629" y="-15.4" font-family="sans-serif" font-size="14.00" fill="#000000"> &#160;Declarations</text>
<polygon fill="#8dd3c7" stroke="transparent" points="1801,-10 1801,-30 1821,-30 1821,-10 1801,-10"/>
<text text-anchor="start" x="1824.7251" y="-15.4" font-family="sans-serif" font-size="14.00" fill="#000000"> &#160;Module</text>
<polygon fill="#80b1d3" stroke="transparent" points="1887,-10 1887,-30 1907,-30 1907,-10 1887,-10"/>
<text text-anchor="start" x="1910.7812" y="-15.4" font-family="sans-serif" font-size="14.00" fill="#000000"> &#160;Bootstrap</text>
<polygon fill="#fdb462" stroke="transparent" points="1984,-10 1984,-30 2004,-30 2004,-10 1984,-10"/>
<text text-anchor="start" x="2007.6732" y="-15.4" font-family="sans-serif" font-size="14.00" fill="#000000"> &#160;Providers</text>
<polygon fill="#fb8072" stroke="transparent" points="2080,-10 2080,-30 2100,-30 2100,-10 2080,-10"/>
<text text-anchor="start" x="2103.7258" y="-15.4" font-family="sans-serif" font-size="14.00" fill="#000000"> &#160;Exports</text>
<g id="clust1" class="cluster">
<title>cluster_AppModule</title>
<polygon fill="none" stroke="#000000" stroke-dasharray="1,5" points="1508,-146 1508,-420 2680,-420 2680,-146 1508,-146"/>
</g>
<g id="clust2" class="cluster">
<title>cluster_AppModule_declarations</title>
<polygon fill="none" stroke="#000000" points="2550,-230 2550,-282 2672,-282 2672,-230 2550,-230"/>
</g>
<g id="clust4" class="cluster">
<title>cluster_AppModule_imports</title>
<polygon fill="none" stroke="#000000" points="1712,-154 1712,-282 2542,-282 2542,-154 1712,-154"/>
</g>
<g id="clust6" class="cluster">
<title>cluster_AppModule_bootstrap</title>
<polygon fill="none" stroke="#000000" points="1995,-360 1995,-412 2119,-412 2119,-360 1995,-360"/>
</g>
<g id="clust7" class="cluster">
<title>cluster_AppModule_providers</title>
<polygon fill="none" stroke="#000000" points="1516,-230 1516,-282 1704,-282 1704,-230 1516,-230"/>
</g>
<g id="clust8" class="cluster">
<title>cluster_ContentModuleModule</title>
<polygon fill="none" stroke="#000000" stroke-dasharray="1,5" points="8,-146 8,-214 1500,-214 1500,-146 8,-146"/>
</g>
<g id="clust9" class="cluster">
<title>cluster_ContentModuleModule_declarations</title>
<polygon fill="none" stroke="#000000" points="587,-154 587,-206 1492,-206 1492,-154 587,-154"/>
</g>
<g id="clust16" class="cluster">
<title>cluster_ContentModuleModule_imports</title>
<polygon fill="none" stroke="#000000" points="451,-154 451,-206 579,-206 579,-154 451,-154"/>
</g>
<g id="clust17" class="cluster">
<title>cluster_ContentModuleModule_exports</title>
<polygon fill="none" stroke="#000000" points="16,-154 16,-206 443,-206 443,-154 16,-154"/>
</g>
<g id="clust20" class="cluster">
<title>cluster_NavigationModuleModule</title>
<polygon fill="none" stroke="#000000" stroke-dasharray="1,5" points="2083,-70 2083,-138 2507,-138 2507,-70 2083,-70"/>
</g>
<g id="clust21" class="cluster">
<title>cluster_NavigationModuleModule_declarations</title>
<polygon fill="none" stroke="#000000" points="2241,-78 2241,-130 2379,-130 2379,-78 2241,-78"/>
</g>
<g id="clust23" class="cluster">
<title>cluster_NavigationModuleModule_imports</title>
<polygon fill="none" stroke="#000000" points="2387,-78 2387,-130 2499,-130 2499,-78 2387,-78"/>
</g>
<g id="clust24" class="cluster">
<title>cluster_NavigationModuleModule_exports</title>
<polygon fill="none" stroke="#000000" points="2091,-78 2091,-130 2233,-130 2233,-78 2091,-78"/>
</g>
<g id="clust33" class="cluster">
<title>cluster_SharedModuleModule</title>
<polygon fill="none" stroke="#000000" stroke-dasharray="1,5" points="2688,-222 2688,-290 3836,-290 3836,-222 2688,-222"/>
</g>
<g id="clust34" class="cluster">
<title>cluster_SharedModuleModule_declarations</title>
<polygon fill="none" stroke="#000000" points="3536,-230 3536,-282 3828,-282 3828,-230 3536,-230"/>
</g>
<g id="clust37" class="cluster">
<title>cluster_SharedModuleModule_imports</title>
<polygon fill="none" stroke="#000000" points="3394,-230 3394,-282 3528,-282 3528,-230 3394,-230"/>
</g>
<g id="clust38" class="cluster">
<title>cluster_SharedModuleModule_exports</title>
<polygon fill="none" stroke="#000000" points="2696,-230 2696,-282 3386,-282 3386,-230 2696,-230"/>
</g>
<!-- AppComponent -->
<g id="node1" class="node">
<title>AppComponent</title>
<polygon fill="#ffffb3" stroke="#000000" points="2663.9399,-274 2558.0601,-274 2558.0601,-238 2663.9399,-238 2663.9399,-274"/>
<text text-anchor="middle" x="2611" y="-251.8" font-family="Times,serif" font-size="14.00" fill="#000000">AppComponent</text>
</g>
<!-- AppModule -->
<g id="node2" class="node">
<title>AppModule</title>
<polygon fill="#8dd3c7" stroke="#000000" points="2098.6571,-339 2095.6571,-343 2074.6571,-343 2071.6571,-339 2015.3429,-339 2015.3429,-303 2098.6571,-303 2098.6571,-339"/>
<text text-anchor="middle" x="2057" y="-316.8" font-family="Times,serif" font-size="14.00" fill="#000000">AppModule</text>
</g>
<!-- AppComponent&#45;&gt;AppModule -->
<g id="edge1" class="edge">
<title>AppComponent&#45;&gt;AppModule</title>
<path fill="none" stroke="#000000" d="M2558.0732,-256C2426.2368,-256 2093.7232,-256 2093.7232,-256 2093.7232,-256 2093.7232,-292.8939 2093.7232,-292.8939"/>
<polygon fill="#000000" stroke="#000000" points="2090.2233,-292.8938 2093.7232,-302.8939 2097.2233,-292.8939 2090.2233,-292.8938"/>
</g>
<!-- AppComponent  -->
<g id="node9" class="node">
<title>AppComponent </title>
<polygon fill="#80b1d3" stroke="#000000" points="2111.439,-404 2002.561,-404 2002.561,-368 2111.439,-368 2111.439,-404"/>
<text text-anchor="middle" x="2057" y="-381.8" font-family="Times,serif" font-size="14.00" fill="#000000">AppComponent </text>
</g>
<!-- AppModule&#45;&gt;AppComponent  -->
<g id="edge8" class="edge">
<title>AppModule&#45;&gt;AppComponent </title>
<path fill="none" stroke="#000000" stroke-dasharray="1,5" d="M2057,-339.1061C2057,-339.1061 2057,-357.991 2057,-357.991"/>
<polygon fill="#000000" stroke="#000000" points="2053.5001,-357.9909 2057,-367.991 2060.5001,-357.991 2053.5001,-357.9909"/>
</g>
<!-- BrowserModule -->
<g id="node3" class="node">
<title>BrowserModule</title>
<polygon fill="#8dd3c7" stroke="#000000" points="2190.4734,-198 2187.4734,-202 2166.4734,-202 2163.4734,-198 2083.5266,-198 2083.5266,-162 2190.4734,-162 2190.4734,-198"/>
<text text-anchor="middle" x="2137" y="-175.8" font-family="Times,serif" font-size="14.00" fill="#000000">BrowserModule</text>
</g>
<!-- BrowserModule&#45;&gt;AppModule -->
<g id="edge2" class="edge">
<title>BrowserModule&#45;&gt;AppModule</title>
<path fill="none" stroke="#000000" d="M2088.6183,-198.1446C2088.6183,-198.1446 2088.6183,-292.925 2088.6183,-292.925"/>
<polygon fill="#000000" stroke="#000000" points="2085.1184,-292.925 2088.6183,-302.925 2092.1184,-292.925 2085.1184,-292.925"/>
</g>
<!-- SharedModuleModule -->
<g id="node4" class="node">
<title>SharedModuleModule</title>
<polygon fill="#8dd3c7" stroke="#000000" points="2533.972,-198 2530.972,-202 2509.972,-202 2506.972,-198 2392.028,-198 2392.028,-162 2533.972,-162 2533.972,-198"/>
<text text-anchor="middle" x="2463" y="-175.8" font-family="Times,serif" font-size="14.00" fill="#000000">SharedModuleModule</text>
</g>
<!-- SharedModuleModule&#45;&gt;AppModule -->
<g id="edge3" class="edge">
<title>SharedModuleModule&#45;&gt;AppModule</title>
<path fill="none" stroke="#000000" d="M2486.662,-198.0251C2486.662,-237.2783 2486.662,-327 2486.662,-327 2486.662,-327 2108.9801,-327 2108.9801,-327"/>
<polygon fill="#000000" stroke="#000000" points="2108.9801,-323.5001 2098.9801,-327 2108.9801,-330.5001 2108.9801,-323.5001"/>
</g>
<!-- ContentModuleModule -->
<g id="node5" class="node">
<title>ContentModuleModule</title>
<polygon fill="#8dd3c7" stroke="#000000" points="1867.9326,-274 1864.9326,-278 1843.9326,-278 1840.9326,-274 1720.0674,-274 1720.0674,-238 1867.9326,-238 1867.9326,-274"/>
<text text-anchor="middle" x="1794" y="-251.8" font-family="Times,serif" font-size="14.00" fill="#000000">ContentModuleModule</text>
</g>
<!-- SharedModuleModule&#45;&gt;ContentModuleModule -->
<g id="edge17" class="edge">
<title>SharedModuleModule&#45;&gt;ContentModuleModule</title>
<path fill="none" stroke="#000000" d="M2439.338,-198.308C2439.338,-218.1455 2439.338,-247 2439.338,-247 2439.338,-247 1878.0285,-247 1878.0285,-247"/>
<polygon fill="#000000" stroke="#000000" points="1878.0285,-243.5001 1868.0285,-247 1878.0284,-250.5001 1878.0285,-243.5001"/>
</g>
<!-- HeaderComponent  -->
<g id="node27" class="node">
<title>HeaderComponent </title>
<polygon fill="#fb8072" stroke="#000000" points="2945.7436,-274 2820.2564,-274 2820.2564,-238 2945.7436,-238 2945.7436,-274"/>
<text text-anchor="middle" x="2883" y="-251.8" font-family="Times,serif" font-size="14.00" fill="#000000">HeaderComponent </text>
</g>
<!-- SharedModuleModule&#45;&gt;HeaderComponent  -->
<g id="edge31" class="edge">
<title>SharedModuleModule&#45;&gt;HeaderComponent </title>
<path fill="none" stroke="#000000" stroke-dasharray="5,2" d="M2534.2473,-190C2654.0751,-190 2883,-190 2883,-190 2883,-190 2883,-227.9652 2883,-227.9652"/>
<polygon fill="#000000" stroke="#000000" points="2879.5001,-227.9652 2883,-237.9652 2886.5001,-227.9652 2879.5001,-227.9652"/>
</g>
<!-- FormsModule  -->
<g id="node28" class="node">
<title>FormsModule </title>
<polygon fill="#fb8072" stroke="#000000" points="2802.3283,-274 2703.6717,-274 2703.6717,-238 2802.3283,-238 2802.3283,-274"/>
<text text-anchor="middle" x="2753" y="-251.8" font-family="Times,serif" font-size="14.00" fill="#000000">FormsModule </text>
</g>
<!-- SharedModuleModule&#45;&gt;FormsModule  -->
<g id="edge32" class="edge">
<title>SharedModuleModule&#45;&gt;FormsModule </title>
<path fill="none" stroke="#000000" stroke-dasharray="5,2" d="M2534.3134,-194C2620.1797,-194 2753,-194 2753,-194 2753,-194 2753,-227.7333 2753,-227.7333"/>
<polygon fill="#000000" stroke="#000000" points="2749.5001,-227.7333 2753,-237.7333 2756.5001,-227.7333 2749.5001,-227.7333"/>
</g>
<!-- HttpClientModule  -->
<g id="node29" class="node">
<title>HttpClientModule </title>
<polygon fill="#fb8072" stroke="#000000" points="3378.1607,-274 3255.8393,-274 3255.8393,-238 3378.1607,-238 3378.1607,-274"/>
<text text-anchor="middle" x="3317" y="-251.8" font-family="Times,serif" font-size="14.00" fill="#000000">HttpClientModule </text>
</g>
<!-- SharedModuleModule&#45;&gt;HttpClientModule  -->
<g id="edge33" class="edge">
<title>SharedModuleModule&#45;&gt;HttpClientModule </title>
<path fill="none" stroke="#000000" stroke-dasharray="5,2" d="M2533.9774,-178C2738.9069,-178 3317,-178 3317,-178 3317,-178 3317,-227.9092 3317,-227.9092"/>
<polygon fill="#000000" stroke="#000000" points="3313.5001,-227.9091 3317,-237.9092 3320.5001,-227.9092 3313.5001,-227.9091"/>
</g>
<!-- CommonModule  -->
<g id="node30" class="node">
<title>CommonModule </title>
<polygon fill="#fb8072" stroke="#000000" points="3237.6677,-274 3122.3323,-274 3122.3323,-238 3237.6677,-238 3237.6677,-274"/>
<text text-anchor="middle" x="3180" y="-251.8" font-family="Times,serif" font-size="14.00" fill="#000000">CommonModule </text>
</g>
<!-- SharedModuleModule&#45;&gt;CommonModule  -->
<g id="edge34" class="edge">
<title>SharedModuleModule&#45;&gt;CommonModule </title>
<path fill="none" stroke="#000000" stroke-dasharray="5,2" d="M2534.0402,-182C2715.1631,-182 3180,-182 3180,-182 3180,-182 3180,-227.7079 3180,-227.7079"/>
<polygon fill="#000000" stroke="#000000" points="3176.5001,-227.7078 3180,-237.7079 3183.5001,-227.7079 3176.5001,-227.7078"/>
</g>
<!-- ImageZoomDirective  -->
<g id="node31" class="node">
<title>ImageZoomDirective </title>
<polygon fill="#fb8072" stroke="#000000" points="3104.0064,-274 2963.9936,-274 2963.9936,-238 3104.0064,-238 3104.0064,-274"/>
<text text-anchor="middle" x="3034" y="-251.8" font-family="Times,serif" font-size="14.00" fill="#000000">ImageZoomDirective </text>
</g>
<!-- SharedModuleModule&#45;&gt;ImageZoomDirective  -->
<g id="edge35" class="edge">
<title>SharedModuleModule&#45;&gt;ImageZoomDirective </title>
<path fill="none" stroke="#000000" stroke-dasharray="5,2" d="M2534.163,-186C2687.2296,-186 3034,-186 3034,-186 3034,-186 3034,-227.9733 3034,-227.9733"/>
<polygon fill="#000000" stroke="#000000" points="3030.5001,-227.9732 3034,-237.9733 3037.5001,-227.9733 3030.5001,-227.9732"/>
</g>
<!-- ContentModuleModule&#45;&gt;AppModule -->
<g id="edge4" class="edge">
<title>ContentModuleModule&#45;&gt;AppModule</title>
<path fill="none" stroke="#000000" d="M1868.0016,-265C1937.8684,-265 2032.0048,-265 2032.0048,-265 2032.0048,-265 2032.0048,-292.973 2032.0048,-292.973"/>
<polygon fill="#000000" stroke="#000000" points="2028.5049,-292.973 2032.0048,-302.973 2035.5049,-292.973 2028.5049,-292.973"/>
</g>
<!-- ContentComponent  -->
<g id="node18" class="node">
<title>ContentComponent </title>
<polygon fill="#fb8072" stroke="#000000" points="434.6649,-198 305.3351,-198 305.3351,-162 434.6649,-162 434.6649,-198"/>
<text text-anchor="middle" x="370" y="-175.8" font-family="Times,serif" font-size="14.00" fill="#000000">ContentComponent </text>
</g>
<!-- ContentModuleModule&#45;&gt;ContentComponent  -->
<g id="edge18" class="edge">
<title>ContentModuleModule&#45;&gt;ContentComponent </title>
<path fill="none" stroke="#000000" stroke-dasharray="5,2" d="M1760.4927,-237.793C1760.4927,-232.4451 1760.4927,-228 1760.4927,-228 1760.4927,-228 370,-228 370,-228 370,-228 370,-208.1467 370,-208.1467"/>
<polygon fill="#000000" stroke="#000000" points="373.5001,-208.1467 370,-198.1467 366.5001,-208.1468 373.5001,-208.1467"/>
</g>
<!-- CategoryComponent  -->
<g id="node19" class="node">
<title>CategoryComponent </title>
<polygon fill="#fb8072" stroke="#000000" points="287.1495,-198 150.8505,-198 150.8505,-162 287.1495,-162 287.1495,-198"/>
<text text-anchor="middle" x="219" y="-175.8" font-family="Times,serif" font-size="14.00" fill="#000000">CategoryComponent </text>
</g>
<!-- ContentModuleModule&#45;&gt;CategoryComponent  -->
<g id="edge19" class="edge">
<title>ContentModuleModule&#45;&gt;CategoryComponent </title>
<path fill="none" stroke="#000000" stroke-dasharray="5,2" d="M1747.0898,-237.8314C1747.0898,-233.9541 1747.0898,-231 1747.0898,-231 1747.0898,-231 219,-231 219,-231 219,-231 219,-208.1243 219,-208.1243"/>
<polygon fill="#000000" stroke="#000000" points="222.5001,-208.1243 219,-198.1243 215.5001,-208.1243 222.5001,-208.1243"/>
</g>
<!-- PostComponent  -->
<g id="node20" class="node">
<title>PostComponent </title>
<polygon fill="#fb8072" stroke="#000000" points="132.4502,-198 23.5498,-198 23.5498,-162 132.4502,-162 132.4502,-198"/>
<text text-anchor="middle" x="78" y="-175.8" font-family="Times,serif" font-size="14.00" fill="#000000">PostComponent </text>
</g>
<!-- ContentModuleModule&#45;&gt;PostComponent  -->
<g id="edge20" class="edge">
<title>ContentModuleModule&#45;&gt;PostComponent </title>
<path fill="none" stroke="#000000" stroke-dasharray="5,2" d="M1733.6869,-237.92C1733.6869,-236.1536 1733.6869,-235 1733.6869,-235 1733.6869,-235 78,-235 78,-235 78,-235 78,-208.0091 78,-208.0091"/>
<polygon fill="#000000" stroke="#000000" points="81.5001,-208.009 78,-198.0091 74.5001,-208.0091 81.5001,-208.009"/>
</g>
<!-- NavigationModuleModule -->
<g id="node6" class="node">
<title>NavigationModuleModule</title>
<polygon fill="#8dd3c7" stroke="#000000" points="2373.8075,-198 2370.8075,-202 2349.8075,-202 2346.8075,-198 2208.1925,-198 2208.1925,-162 2373.8075,-162 2373.8075,-198"/>
<text text-anchor="middle" x="2291" y="-175.8" font-family="Times,serif" font-size="14.00" fill="#000000">NavigationModuleModule</text>
</g>
<!-- NavigationModuleModule&#45;&gt;AppModule -->
<g id="edge5" class="edge">
<title>NavigationModuleModule&#45;&gt;AppModule</title>
<path fill="none" stroke="#000000" d="M2291,-198.2067C2291,-235.0559 2291,-315 2291,-315 2291,-315 2108.8345,-315 2108.8345,-315"/>
<polygon fill="#000000" stroke="#000000" points="2108.8345,-311.5001 2098.8345,-315 2108.8345,-318.5001 2108.8345,-311.5001"/>
</g>
<!-- NavbarComponent  -->
<g id="node23" class="node">
<title>NavbarComponent </title>
<polygon fill="#fb8072" stroke="#000000" points="2225.0288,-122 2098.9712,-122 2098.9712,-86 2225.0288,-86 2225.0288,-122"/>
<text text-anchor="middle" x="2162" y="-99.8" font-family="Times,serif" font-size="14.00" fill="#000000">NavbarComponent </text>
</g>
<!-- NavigationModuleModule&#45;&gt;NavbarComponent  -->
<g id="edge24" class="edge">
<title>NavigationModuleModule&#45;&gt;NavbarComponent </title>
<path fill="none" stroke="#000000" stroke-dasharray="5,2" d="M2219.4584,-161.9891C2219.4584,-161.9891 2219.4584,-132.145 2219.4584,-132.145"/>
<polygon fill="#000000" stroke="#000000" points="2222.9585,-132.145 2219.4584,-122.145 2215.9585,-132.1451 2222.9585,-132.145"/>
</g>
<!-- ServicesModuleModule -->
<g id="node7" class="node">
<title>ServicesModuleModule</title>
<polygon fill="#8dd3c7" stroke="#000000" points="1870.0226,-198 1867.0226,-202 1846.0226,-202 1843.0226,-198 1719.9774,-198 1719.9774,-162 1870.0226,-162 1870.0226,-198"/>
<text text-anchor="middle" x="1795" y="-175.8" font-family="Times,serif" font-size="14.00" fill="#000000">ServicesModuleModule</text>
</g>
<!-- ServicesModuleModule&#45;&gt;AppModule -->
<g id="edge6" class="edge">
<title>ServicesModuleModule&#45;&gt;AppModule</title>
<path fill="none" stroke="#000000" d="M1870.274,-180C1875.8171,-180 1879.2951,-180 1879.2951,-180 1879.2951,-180 1879.2951,-315 1879.2951,-315 1879.2951,-315 2005.3361,-315 2005.3361,-315"/>
<polygon fill="#000000" stroke="#000000" points="2005.3361,-318.5001 2015.3361,-315 2005.336,-311.5001 2005.3361,-318.5001"/>
</g>
<!-- RouterModule.forRoot(args) -->
<g id="node8" class="node">
<title>RouterModule.forRoot(args)</title>
<polygon fill="#8dd3c7" stroke="#000000" points="2065.8419,-198 2062.8419,-202 2041.8419,-202 2038.8419,-198 1888.1581,-198 1888.1581,-162 2065.8419,-162 2065.8419,-198"/>
<text text-anchor="middle" x="1977" y="-175.8" font-family="Times,serif" font-size="14.00" fill="#000000">RouterModule.forRoot(args)</text>
</g>
<!-- RouterModule.forRoot(args)&#45;&gt;AppModule -->
<g id="edge7" class="edge">
<title>RouterModule.forRoot(args)&#45;&gt;AppModule</title>
<path fill="none" stroke="#000000" d="M2048.8378,-198.1446C2048.8378,-198.1446 2048.8378,-292.925 2048.8378,-292.925"/>
<polygon fill="#000000" stroke="#000000" points="2045.3379,-292.925 2048.8378,-302.925 2052.3379,-292.925 2045.3379,-292.925"/>
</g>
<!-- PostServiceService -->
<g id="node10" class="node">
<title>PostServiceService</title>
<ellipse fill="#fdb462" stroke="#000000" cx="1610" cy="-256" rx="85.6667" ry="18"/>
<text text-anchor="middle" x="1610" y="-251.8" font-family="Times,serif" font-size="14.00" fill="#000000">PostServiceService</text>
</g>
<!-- PostServiceService&#45;&gt;AppModule -->
<g id="edge9" class="edge">
<title>PostServiceService&#45;&gt;AppModule</title>
<path fill="none" stroke="#000000" d="M1610,-274.2843C1610,-295.3211 1610,-327 1610,-327 1610,-327 2004.9473,-327 2004.9473,-327"/>
<polygon fill="#000000" stroke="#000000" points="2004.9474,-330.5001 2014.9473,-327 2004.9473,-323.5001 2004.9474,-330.5001"/>
</g>
<!-- ContentComponent -->
<g id="node11" class="node">
<title>ContentComponent</title>
<polygon fill="#ffffb3" stroke="#000000" points="1483.6652,-198 1358.3348,-198 1358.3348,-162 1483.6652,-162 1483.6652,-198"/>
<text text-anchor="middle" x="1421" y="-175.8" font-family="Times,serif" font-size="14.00" fill="#000000">ContentComponent</text>
</g>
<!-- ContentComponent&#45;&gt;ContentModuleModule -->
<g id="edge10" class="edge">
<title>ContentComponent&#45;&gt;ContentModuleModule</title>
<path fill="none" stroke="#000000" d="M1483.909,-180C1568.2924,-180 1707.6612,-180 1707.6612,-180 1707.6612,-180 1707.6612,-256 1707.6612,-256 1707.6612,-256 1710.0314,-256 1710.0314,-256"/>
<polygon fill="#000000" stroke="#000000" points="1710.0315,-259.5001 1720.0314,-256 1710.0314,-252.5001 1710.0315,-259.5001"/>
</g>
<!-- CategoryComponent -->
<g id="node12" class="node">
<title>CategoryComponent</title>
<polygon fill="#ffffb3" stroke="#000000" points="1340.1499,-198 1207.8501,-198 1207.8501,-162 1340.1499,-162 1340.1499,-198"/>
<text text-anchor="middle" x="1274" y="-175.8" font-family="Times,serif" font-size="14.00" fill="#000000">CategoryComponent</text>
</g>
<!-- CategoryComponent&#45;&gt;ContentModuleModule -->
<g id="edge11" class="edge">
<title>CategoryComponent&#45;&gt;ContentModuleModule</title>
<path fill="none" stroke="#000000" d="M1274,-198.1679C1274,-200.4478 1274,-202 1274,-202 1274,-202 1854.3131,-202 1854.3131,-202 1854.3131,-202 1854.3131,-227.7181 1854.3131,-227.7181"/>
<polygon fill="#000000" stroke="#000000" points="1850.8132,-227.718 1854.3131,-237.7181 1857.8132,-227.7181 1850.8132,-227.718"/>
</g>
<!-- PostComponent -->
<g id="node13" class="node">
<title>PostComponent</title>
<polygon fill="#ffffb3" stroke="#000000" points="1189.9512,-198 1084.0488,-198 1084.0488,-162 1189.9512,-162 1189.9512,-198"/>
<text text-anchor="middle" x="1137" y="-175.8" font-family="Times,serif" font-size="14.00" fill="#000000">PostComponent</text>
</g>
<!-- PostComponent&#45;&gt;ContentModuleModule -->
<g id="edge12" class="edge">
<title>PostComponent&#45;&gt;ContentModuleModule</title>
<path fill="none" stroke="#000000" d="M1137,-198.0579C1137,-202.4945 1137,-206 1137,-206 1137,-206 1840.9102,-206 1840.9102,-206 1840.9102,-206 1840.9102,-227.9489 1840.9102,-227.9489"/>
<polygon fill="#000000" stroke="#000000" points="1837.4103,-227.9488 1840.9102,-237.9489 1844.4103,-227.9489 1837.4103,-227.9488"/>
</g>
<!-- PostFooterComponent -->
<g id="node14" class="node">
<title>PostFooterComponent</title>
<polygon fill="#ffffb3" stroke="#000000" points="1065.9986,-198 924.0014,-198 924.0014,-162 1065.9986,-162 1065.9986,-198"/>
<text text-anchor="middle" x="995" y="-175.8" font-family="Times,serif" font-size="14.00" fill="#000000">PostFooterComponent</text>
</g>
<!-- PostFooterComponent&#45;&gt;ContentModuleModule -->
<g id="edge13" class="edge">
<title>PostFooterComponent&#45;&gt;ContentModuleModule</title>
<path fill="none" stroke="#000000" d="M995,-198.2015C995,-204.028 995,-209 995,-209 995,-209 1827.5073,-209 1827.5073,-209 1827.5073,-209 1827.5073,-227.963 1827.5073,-227.963"/>
<polygon fill="#000000" stroke="#000000" points="1824.0074,-227.963 1827.5073,-237.963 1831.0074,-227.963 1824.0074,-227.963"/>
</g>
<!-- WithCommentsDirective -->
<g id="node15" class="node">
<title>WithCommentsDirective</title>
<polygon fill="#ffffb3" stroke="#000000" points="906.2464,-198 749.7536,-198 749.7536,-162 906.2464,-162 906.2464,-198"/>
<text text-anchor="middle" x="828" y="-175.8" font-family="Times,serif" font-size="14.00" fill="#000000">WithCommentsDirective</text>
</g>
<!-- WithCommentsDirective&#45;&gt;ContentModuleModule -->
<g id="edge14" class="edge">
<title>WithCommentsDirective&#45;&gt;ContentModuleModule</title>
<path fill="none" stroke="#000000" d="M828,-198.0449C828,-205.749 828,-213 828,-213 828,-213 1814.1044,-213 1814.1044,-213 1814.1044,-213 1814.1044,-227.5146 1814.1044,-227.5146"/>
<polygon fill="#000000" stroke="#000000" points="1810.6045,-227.5145 1814.1044,-237.5146 1817.6045,-227.5146 1810.6045,-227.5145"/>
</g>
<!-- CommentComponent -->
<g id="node16" class="node">
<title>CommentComponent</title>
<polygon fill="#ffffb3" stroke="#000000" points="731.0561,-198 594.9439,-198 594.9439,-162 731.0561,-162 731.0561,-198"/>
<text text-anchor="middle" x="663" y="-175.8" font-family="Times,serif" font-size="14.00" fill="#000000">CommentComponent</text>
</g>
<!-- CommentComponent&#45;&gt;ContentModuleModule -->
<g id="edge15" class="edge">
<title>CommentComponent&#45;&gt;ContentModuleModule</title>
<path fill="none" stroke="#000000" d="M663,-198.0664C663,-207.4587 663,-217 663,-217 663,-217 1800.7015,-217 1800.7015,-217 1800.7015,-217 1800.7015,-227.8701 1800.7015,-227.8701"/>
<polygon fill="#000000" stroke="#000000" points="1797.2016,-227.8701 1800.7015,-237.8701 1804.2016,-227.8701 1797.2016,-227.8701"/>
</g>
<!-- CommonModule -->
<g id="node17" class="node">
<title>CommonModule</title>
<polygon fill="#8dd3c7" stroke="#000000" points="570.6681,-198 567.6681,-202 546.6681,-202 543.6681,-198 459.3319,-198 459.3319,-162 570.6681,-162 570.6681,-198"/>
<text text-anchor="middle" x="515" y="-175.8" font-family="Times,serif" font-size="14.00" fill="#000000">CommonModule</text>
</g>
<!-- CommonModule&#45;&gt;SharedModuleModule -->
<g id="edge28" class="edge">
<title>CommonModule&#45;&gt;SharedModuleModule</title>
<path fill="none" stroke="#000000" d="M496.3887,-161.8495C496.3887,-149.7292 496.3887,-136 496.3887,-136 496.3887,-136 2427.112,-136 2427.112,-136 2427.112,-136 2427.112,-151.8495 2427.112,-151.8495"/>
<polygon fill="#000000" stroke="#000000" points="2423.6121,-151.8494 2427.112,-161.8495 2430.6121,-151.8495 2423.6121,-151.8494"/>
</g>
<!-- CommonModule&#45;&gt;ContentModuleModule -->
<g id="edge16" class="edge">
<title>CommonModule&#45;&gt;ContentModuleModule</title>
<path fill="none" stroke="#000000" d="M496.3887,-198.1505C496.3887,-210.2708 496.3887,-224 496.3887,-224 496.3887,-224 1787.2985,-224 1787.2985,-224 1787.2985,-224 1787.2985,-227.7566 1787.2985,-227.7566"/>
<polygon fill="#000000" stroke="#000000" points="1783.7986,-227.7566 1787.2985,-237.7566 1790.7986,-227.7566 1783.7986,-227.7566"/>
</g>
<!-- CommonModule&#45;&gt;NavigationModuleModule -->
<g id="edge22" class="edge">
<title>CommonModule&#45;&gt;NavigationModuleModule</title>
<path fill="none" stroke="#000000" d="M533.6113,-161.9672C533.6113,-155.1474 533.6113,-149 533.6113,-149 533.6113,-149 2213.9024,-149 2213.9024,-149 2213.9024,-149 2213.9024,-151.9672 2213.9024,-151.9672"/>
<polygon fill="#000000" stroke="#000000" points="2210.4025,-151.9671 2213.9024,-161.9672 2217.4025,-151.9672 2210.4025,-151.9671"/>
</g>
<!-- CommonModule&#45;&gt;ServicesModuleModule -->
<g id="edge25" class="edge">
<title>CommonModule&#45;&gt;ServicesModuleModule</title>
<path fill="none" stroke="#000000" d="M533.6113,-198.1274C533.6113,-208.7109 533.6113,-220 533.6113,-220 533.6113,-220 1773.8956,-220 1773.8956,-220 1773.8956,-220 1773.8956,-208.1274 1773.8956,-208.1274"/>
<polygon fill="#000000" stroke="#000000" points="1777.3957,-208.1274 1773.8956,-198.1274 1770.3957,-208.1275 1777.3957,-208.1274"/>
</g>
<!-- NavbarComponent -->
<g id="node21" class="node">
<title>NavbarComponent</title>
<polygon fill="#ffffb3" stroke="#000000" points="2371.0297,-122 2248.9703,-122 2248.9703,-86 2371.0297,-86 2371.0297,-122"/>
<text text-anchor="middle" x="2310" y="-99.8" font-family="Times,serif" font-size="14.00" fill="#000000">NavbarComponent</text>
</g>
<!-- NavbarComponent&#45;&gt;NavigationModuleModule -->
<g id="edge21" class="edge">
<title>NavbarComponent&#45;&gt;NavigationModuleModule</title>
<path fill="none" stroke="#000000" d="M2310,-122.0109C2310,-122.0109 2310,-151.855 2310,-151.855"/>
<polygon fill="#000000" stroke="#000000" points="2306.5001,-151.8549 2310,-161.855 2313.5001,-151.855 2306.5001,-151.8549"/>
</g>
<!-- FormsModule -->
<g id="node22" class="node">
<title>FormsModule</title>
<polygon fill="#8dd3c7" stroke="#000000" points="2490.8288,-122 2487.8288,-126 2466.8288,-126 2463.8288,-122 2395.1712,-122 2395.1712,-86 2490.8288,-86 2490.8288,-122"/>
<text text-anchor="middle" x="2443" y="-99.8" font-family="Times,serif" font-size="14.00" fill="#000000">FormsModule</text>
</g>
<!-- FormsModule&#45;&gt;SharedModuleModule -->
<g id="edge29" class="edge">
<title>FormsModule&#45;&gt;SharedModuleModule</title>
<path fill="none" stroke="#000000" d="M2458.888,-122.0109C2458.888,-122.0109 2458.888,-151.855 2458.888,-151.855"/>
<polygon fill="#000000" stroke="#000000" points="2455.3881,-151.8549 2458.888,-161.855 2462.3881,-151.855 2455.3881,-151.8549"/>
</g>
<!-- FormsModule&#45;&gt;NavigationModuleModule -->
<g id="edge23" class="edge">
<title>FormsModule&#45;&gt;NavigationModuleModule</title>
<path fill="none" stroke="#000000" d="M2395.3003,-104C2387.9979,-104 2382.8338,-104 2382.8338,-104 2382.8338,-104 2382.8338,-180 2382.8338,-180 2382.8338,-180 2381.9197,-180 2381.9197,-180"/>
<polygon fill="#000000" stroke="#000000" points="2383.6927,-176.5001 2373.6927,-180 2383.6926,-183.5001 2383.6927,-176.5001"/>
</g>
<!-- HeaderComponent -->
<g id="node24" class="node">
<title>HeaderComponent</title>
<polygon fill="#ffffb3" stroke="#000000" points="3819.7437,-274 3698.2563,-274 3698.2563,-238 3819.7437,-238 3819.7437,-274"/>
<text text-anchor="middle" x="3759" y="-251.8" font-family="Times,serif" font-size="14.00" fill="#000000">HeaderComponent</text>
</g>
<!-- HeaderComponent&#45;&gt;SharedModuleModule -->
<g id="edge26" class="edge">
<title>HeaderComponent&#45;&gt;SharedModuleModule</title>
<path fill="none" stroke="#000000" d="M3759,-237.7872C3759,-211.4889 3759,-166 3759,-166 3759,-166 2544.0611,-166 2544.0611,-166"/>
<polygon fill="#000000" stroke="#000000" points="2544.0612,-162.5001 2534.0611,-166 2544.0611,-169.5001 2544.0612,-162.5001"/>
</g>
<!-- ImageZoomDirective -->
<g id="node25" class="node">
<title>ImageZoomDirective</title>
<polygon fill="#ffffb3" stroke="#000000" points="3680.0073,-274 3543.9927,-274 3543.9927,-238 3680.0073,-238 3680.0073,-274"/>
<text text-anchor="middle" x="3612" y="-251.8" font-family="Times,serif" font-size="14.00" fill="#000000">ImageZoomDirective</text>
</g>
<!-- ImageZoomDirective&#45;&gt;SharedModuleModule -->
<g id="edge27" class="edge">
<title>ImageZoomDirective&#45;&gt;SharedModuleModule</title>
<path fill="none" stroke="#000000" d="M3612,-237.7616C3612,-212.5171 3612,-170 3612,-170 3612,-170 2544.008,-170 2544.008,-170"/>
<polygon fill="#000000" stroke="#000000" points="2544.008,-166.5001 2534.008,-170 2544.008,-173.5001 2544.008,-166.5001"/>
</g>
<!-- HttpClientModule -->
<g id="node26" class="node">
<title>HttpClientModule</title>
<polygon fill="#8dd3c7" stroke="#000000" points="3520.1611,-274 3517.1611,-278 3496.1611,-278 3493.1611,-274 3401.8389,-274 3401.8389,-238 3520.1611,-238 3520.1611,-274"/>
<text text-anchor="middle" x="3461" y="-251.8" font-family="Times,serif" font-size="14.00" fill="#000000">HttpClientModule</text>
</g>
<!-- HttpClientModule&#45;&gt;SharedModuleModule -->
<g id="edge30" class="edge">
<title>HttpClientModule&#45;&gt;SharedModuleModule</title>
<path fill="none" stroke="#000000" d="M3461,-237.8015C3461,-213.6437 3461,-174 3461,-174 3461,-174 2543.9736,-174 2543.9736,-174"/>
<polygon fill="#000000" stroke="#000000" points="2543.9737,-170.5001 2533.9736,-174 2543.9736,-177.5001 2543.9737,-170.5001"/>
</g>
</g>
</svg>
