<?xml version="1.0" encoding="utf-8"?>
<!-- Generator: Adobe Illustrator 21.0.0, SVG Export Plug-In . SVG Version: 6.00 Build 0)  -->
<svg version="1.1" id="Calque_1" xmlns:rdf="http://www.w3.org/1999/02/22-rdf-syntax-ns#" xmlns:svg="http://www.w3.org/2000/svg"
	 xmlns="http://www.w3.org/2000/svg" xmlns:xlink="http://www.w3.org/1999/xlink" x="0px" y="0px" viewBox="0 0 317 358"
	 style="enable-background:new 0 0 317 358;" xml:space="preserve">
<style type="text/css">
	.st0{fill:#1D1D1B;}
	.st1{fill:#ABA7A3;}
	.st2{fill:#AF8E95;}
	.st3{fill:#61514A;}
	.st4{fill:#8F735E;}
	.st5{fill:#2B1F13;}
	.st6{fill:#876C60;}
	.st7{fill:#8E7360;}
	.st8{fill:#100302;}
	.st9{fill:#8C7568;}
	.st10{fill:#180603;}
	.st11{fill:#DBBBA4;}
	.st12{fill:#8C8074;}
	.st13{fill:#53514A;}
	.st14{fill:#8F8479;}
	.st15{fill:#9E9790;}
	.st16{fill:#898077;}
	.st17{fill:#201B19;}
	.st18{fill:#3B251A;}
	.st19{fill:#180B03;}
	.st20{fill:#191011;}
	.st21{fill:#9E8B7E;}
	.st22{fill:#030303;}
	.st23{fill:#B3AEAD;}
	.st24{fill:#785B4E;}
	.st25{fill:#675044;}
	.st26{fill:#81695D;}
	.st27{fill:#715A52;}
	.st28{fill:#342719;}
	.st29{fill:#3F281A;}
	.st30{fill:#C2AB99;}
	.st31{fill:#30201B;}
	.st32{fill:#32231F;}
	.st33{fill:#605F5E;}
	.st34{fill:#967371;}
	.st35{fill:#361412;}
	.st36{fill:#0F0807;}
	.st37{fill:#20140F;}
	.st38{fill:#412F23;}
	.st39{fill:#DAD5D3;}
	.st40{fill:#6D6D6B;}
	.st41{fill:#1C0E09;}
	.st42{fill:#927661;}
	.st43{fill:#A68489;}
	.st44{fill:#83695D;}
	.st45{fill:#95918D;}
	.st46{fill:#070201;}
	.st47{fill:#221511;}
	.st48{fill:#9FA1A0;}
	.st49{fill:#BA9E9A;}
	.st50{fill:#1E0F05;}
	.st51{fill:#2D1F16;}
	.st52{fill:#905F61;}
	.st53{fill:#A88A8D;}
	.st54{fill:#381E0D;}
	.st55{fill:#4F3424;}
	.st56{fill:#967876;}
	.st57{fill:#A19E9D;}
	.st58{fill:#CFE1EB;}
	.st59{fill:#1E1B1E;}
	.st60{fill:#758D8D;}
	.st61{fill:#4C5954;}
	.st62{fill:#162021;}
	.st63{fill:#BCD3DD;}
	.st64{fill:#A9B9B6;}
	.st65{fill:#899496;}
	.st66{fill:#1A1D1D;}
	.st67{fill:#13211C;}
	.st68{fill:#7F7C73;}
	.st69{fill:#160B09;}
	.st70{fill:#030A0D;}
	.st71{fill:#8EA2A1;}
	.st72{fill:#566663;}
	.st73{fill:#25312F;}
	.st74{fill:#020706;}
	.st75{fill:#273538;}
	.st76{fill:#657471;}
	.st77{fill:#192221;}
	.st78{fill:#02080C;}
	.st79{fill:#241C0D;}
	.st80{fill:#101C1A;}
	.st81{fill:#191A11;}
	.st82{fill:#657574;}
	.st83{fill:#495553;}
	.st84{fill:#1F2A29;}
	.st85{fill:#1A140D;}
	.st86{fill:#58605F;}
	.st87{fill:#353F3E;}
	.st88{fill:#0B1114;}
	.st89{fill:#120F0D;}
	.st90{fill:#465653;}
	.st91{fill:#70807F;}
	.st92{fill:#596966;}
	.st93{fill:#152421;}
	.st94{fill:#344547;}
</style>
<path class="st0" d="M88,195v2c-5,21.2,5.9,46.3,6,68c0,7.2,2.6,15.4-1.7,22c-3.6,5.4-10.5,7.8-16.3,10v2h2l11-4v2
	c-3.7,9.6-8,24.7-6.8,35c1.1,9.2,6.2,17.8,6.7,27c0.4,7.2-2.8,13.8-2.9,21l1-1c2.2-5.1,3.9-10.4,4-16h2c7.2,13.9,24.1,22.5,33,36h-2
	v5h2l1-4l1,1l10,14l1-1c-6.5-13.9-17.9-26.5-29-36.9c-6.4-5.9-14.8-10.8-18.4-19.1c-6.5-15.1-8.5-33.1-4-49c2.4-8.6,8.3-16.2,10-25
	c1.9-9.3,0.1-19.7-0.6-29l2,1c7.5,10.2,19.4,23,31,28.5c23.6,11.1,54.2,2.1,72-15.5l-1-1c-17.7,11.7-41.2,25.3-63,15.1
	c-7.6-3.5-12.5-10.9-19-15.8c-7.2-5.4-16.5-10.8-20.6-19.3c-6.3-13.1-6.3-29.9-7.6-44c-1.6-16.7-1.8-34.2-1.8-51
	c0-7.2,0.3-14.3,8-17v-2c-6.9-12.4,4.2-26.4,2-39h-2l-2,1v2c1,1.5,1,1.2,1,3h-2c-6.1-7.2-2.8-12.2,0-20h2v3l1,1l1-1
	c5.2-7.2,18.4-13.2,21-21h2l3,2l1-2v-4h2c2.8,1.4,4.9,2.6,7,5h2v-3l1-1l1,1h5v-3l2-4h2v2h4v2c-2.3,3.7-4.3,6.7-5,11l6-2
	c-0.6-1.3-0.1-1-2-1c1.9-5,5.4-9,9-13l1,1l-1,1v3h2c1.5-2.9,2.8-4.7,6-3h2l6-6l1,1v2l-1,1h-2l-1,1v7h2l1,2h2l5-7l-1-1l-1,1l-3,3
	l-1-1c4.3-4.3,8.2-9,14-11l-1,2c-3.8,4-7.6,8.5-5,14h2c3.3-4.3,6-8.6,11-11v2c-2.8,2.1-4.1,3.7-5,7h2l7-7l1,1
	c-3.6,4.7-11.4,15.2-1,16l-1-1h-3v-2l3-6h2v5h2c2.1-4.5,5-7.2,10-8v2c-1.9,2.9-2.7,5.6-3,9h2c8.8-6.4,16.9-14.9,26-20.7
	c7.4-4.7,15.9-5.1,16-15.3h-2v-6h-2c-3.6-2.3-5.4,0.2-8,3l-1-1v-2l4-5l-1-1c-6.2-0.7-16.1-1.1-22,0l-1-1l1-1h2v-2h-2
	c-19.1,3.6-38.7-3.8-58-3c-30.4,1.3-63.5,24.5-78.5,50c-7.5,12.7-11.9,30.3-13.3,45c-0.5,5,1.2,10.1,0.5,15c-0.8,5-4.1,9.1-5.2,14
	c-2,8.5-1.4,17.3-1.4,26C67,179.4,69,201,88,195z"/>
<path class="st1" d="M222,17l1,1h2v2c-1.8,0-1.5,0-3,1l1,1l1-1c4.2,1.5,7.6,2,12,2l-1-1c-4.4-0.1-7.1-0.8-9-5h-2H222z"/>
<path class="st2" d="M205,18l1,1h15l-1-1H205z"/>
<path class="st3" d="M183,21l1,1h4l-1,1l-7,1v2c7.3,3,20.1-1.4,28-2l-1-1C198.8,20.7,191.4,19.4,183,21z"/>
<path class="st4" d="M252,33l1,1h2v2c-1.2,7.9-9.9,9.2-16,12.7c-10.3,5.9-16.8,16.4-28,21.3v-2l3-9h-2c-4.4,1.2-6.8,3.6-8,8h-2v-5
	h-2l-3,8h7v2c-1.3,1.6-1.5,2-2,4h3c9.1,5.6,20.8,6.8,31,6l-1,1c0.4,2.1,0.2,2,2,3l-1,1h-5v2l1,1h2c3.8,1.6,5.4,4.3,7,8h-2l-1,1l1,1
	h2l1,1v5h-2v-3h-2l-1,1v2c1.7,5.6,3.9,14.4,2,20l1,1v-2c5.2,4.1,6,8.7,6,15h-2v-7l-1,1c0,12.9-1,25.2-2,38l1-1c2-2.3,2.7-3.9,3-7h3
	l1-1v-2c9.3-12.9,10-26.5,10-42c0-7.5,1-13.6-5-19l-1,1v2c-2.8-0.9-4.7-2.1-7-4l1-1c4.3-0.5,7.6-1.7,9-6h3l1-1l-1-1
	c-4,0-7.2-0.8-11-2v-2c2.7-2.4,1.6-7.5,2-11h-2l-11,5v-2c-2.7-1-5.2-0.4-8,0v-2c3.2-1.6,5.3-2.8,7-6h2l1,1v2h2c2-4.3,2-7.6-3-9v2
	l-1,1c0.3-7.2,2.3-15.8,10-18v2l-2,1l1,1l13-11l-1-1h-2v-2v-6h-2H252z"/>
<path class="st5" d="M246,53l-1-1c1.6-0.5,1.5-0.4,2-2l-1-1h-2c-5.3,4.5-6.9,11.2-7,18l1-1v-2h2c2.4,3.3,2.3,5.2,1,9h-2v-2l-3-1v2
	l-7,3v2l1,1h2l5-1v2l1,1h2c3.2-2.1,6.3-3.9,10-5v2c-0.8,3.2-0.2,6.3-2,9v2h2c4.8,3.6,10.5,0.6,16,1l1-1h-2c-0.5-2.4-0.6-2.5-3-3v-2
	l5-1v-2c-4.2-4.7-4.9-7.5,0-12v-2h-2l-5,1l-1-1l1-1l4-1v-2c-13.6,0-7.5-5.9-2-14l-1-1c-2,1.6-2.9,2.6-4,5h-2v-2l6-5v-2l-1-1h-2
	C253.1,44.8,249.9,49,246,53z"/>
<path class="st6" d="M258,46l-1,1l-2,4l1,1l1-1l3-3l-1-1L258,46z"/>
<path class="st7" d="M176,58l1,1l4-4l1,1c-2.2,2.7-4.2,5-7,7v-2h-3v-2v-6h3l1-1v-2l-1-1l-8,6v-2c-3.6,0.6-4.9,1.5-6,5h-2v-2l1-2
	l-1-1c-3.1,2.4-10.8,9.2-7,13l-1,1h-2c-1.6,0.5-1.5,0.4-2,2l-1-1v-2c2.5-3.1,4.4-6,5-10h-2l-2,1v-2l-1-1l-1,1c-1.2,2-1.6,3.7-2,6h-2
	l-5-1v3l-1,1c-3.1-3.1-5.7-4.4-10-5l-1,6h-2c-0.5-1.6-0.4-1.5-2-2l-1,1v2c-9,2.9-17.7,10.1-21,19h-2v-3l-1-1l-1,1
	c-4.2,5.9-7.1,16.4,2,19v-2l-1-3c1.9,0,1.4,0.3,2-1h2v3c1.3,12.9-6.9,24.4-2,38h-3c-9.7,9.9-4,29.4-4,42c0,21.4-2.4,54.1,9.6,73
	c5.1,8,14.2,12.7,21.4,18.5c8.7,7.1,13.8,15.2,26,15.5l-1-1c-4.8-4.5-11.5-7.5-15.3-13c-4.8-7-6.7-23.3-16.7-25v-3l-6-32l1,1h2v-2
	c-4.7-8.5-11.1-18.7,0-25v-2c-10-12,0-27.2,15-21l1-1c-4.9-5.1-11.4-4-18-4v-2c8.7-3.2,29.5-7.6,27,7h2h7v-2l-4-2v-2h2v-2h-3
	c-1.5-1.3-2-1.5-4-2v-2l1-1h-3c-4.3-1.8-26.5-0.3-15-10l-1-1c-1.5-1-1.2-1-3-1v-2h2c5.8-2.5,12.2,1.8,18,3v-2l6-1l-1-1
	c-6.8-0.9-13.1-2-20-2v-2c1.3-1.5,1.5-2,2-4h-2c-11.4-3.4-1.8-20.4-1-28h2v2h2v-3c4.8-9.2,19.5-17.4,21-27h2c8.6,0,16.8-2.2,25,1
	l1-1h-2v-2h2c1-1.5,1-1.2,1-3h2l1,1v2c3.9,0.9,7.1,0.5,11,0v2l1,1h2c1.7-1.6,1.9-2,4-1l1-1c1.5-5.1,4.4-9.4,7-14l-1-1l-9,7v-2l5-6
	l-1-1h-2c-3.4,3.7-6,7.9-10,11v-2c-1.9-4.4,3.3-9.5,6-13l-1-1C183.4,48.9,179.4,53.2,176,58z"/>
<path class="st8" d="M257,60l2-1l5-6l-1-1C259.2,53.7,257.9,56,257,60z"/>
<path class="st9" d="M258,53l-1,1c-3,3.6-4.8,7,1,8v-2V53z"/>
<path class="st10" d="M173,65v2l-3,1v2h2l4-2v-2l-1-1H173z"/>
<path class="st11" d="M144,70v3c-9.3,7.5-19.4,14.4-21,27h-2v-2h-2c-1.5,8.2-11.6,27.5,3,28v2l-2,3l1,1c10.8,0,28.6,2.1,34,13h-2v-3
	h-2c-3.6,1.2-3.5,2.7-2,6l-1,1h-2c-4.5-3.9-18-8.6-24-9.6c-3.6-0.6-8.6,2-6,6.3c2.4,3.9,10.1,2.1,14,2.4c8.8,0.7,19.6,6.6,21,15.9
	h-2c-10.6,0-25.4-6-35-2.6c-8.5,3.1-11.8,15.8-3,20.6v2c-11.9,8.3-3.9,17.6,0,28h-2l-1-1v2c3.4,10.8,4,22,6,33h3
	c4.8,8.2,8.9,21.2,15.2,27.8c19.6,20.6,49.8,11.5,68.8-5.8l1,1l-1,1c-21.6,15-49.7,28-75,11.8c-10.5-6.8-19.1-18-28-26.8l-1,1v2
	c5.5,29.7-17.1,53.1-10.6,83c7.1,32.8,40.5,47.1,54.6,77h2c1.5-1,1.2-1,3-1c1.1,14.4,13.6,22.5,16,36h2c8.8-15,15-31.6,23.3-47
	c8.6-16,19.5-31.8,25.7-49h-2c6.2-17.3,15-30.1,15-49h-5v-2v-4l-2,1l-1,5h-2v-15h2l3,3l1-1l-1-1v-3l1,2l1-1v-2
	c-8.9-2.8-9.8-17.2-8.8-25c0.5-3.8,3.1-8.1-0.2-11v-2c13.3-14.2,19.2-44.1,20-63h5v-2c-2.5-4.1,0.9-9.5,1.7-14
	c2-10.9,2.3-21.9,2.3-33c0-4.7,0.2-10.3-4-13v-2c3-4.5-1-16.4-2-22h2c1,1.5,1,1.2,1,3h2v-2v-4h-3l-1-1l1-1h2v-2
	c-2.8-4.3-4.7-6.6-10-6v-2l6-1c-0.6-1.3-0.1-1-2-1c0-1.8,0-1.5,1-3l-1-1h-2c-10.6,2-20.5-4.4-31-6v-2l2-3l-1-1l-1,1
	c-4.3-0.2-9.3-4.1-12,0h-2l-1-1v-2C172.7,69.1,158.5,70,144,70z"/>
<path class="st12" d="M253,70v2c3.3,0.6,4.6,0.4,7-2l-1-1L253,70z"/>
<path class="st13" d="M264,72v2h3v-2H264z"/>
<path class="st14" d="M257,79v2h4l-1-1L257,79z"/>
<path class="st15" d="M262,83v2c2.1,0.9,2.1,0.9,3,3h2l-1-1c1-1.5,1-1.2,1-3L262,83z"/>
<path class="st16" d="M260,89c0.6,1.3,0.1,1,2,1c1.5,2.1,2.5,2.5,5,3v-2v-1l-1-1h-2C262.2,88.4,261.9,88.5,260,89z"/>
<path class="st17" d="M256,92v3c-3.4,1.2-6.4,2.6-10,3v2c2.4,1.6,4.2,2.5,7,3v-2l1-1l1,1c8.4,10.5,4.9,36,0.5,48
	c-1.9,5.3-5.8,9.3-6.5,15h-3l-1,1c-1.7,5.1-11.1,17.3-6,22v2h-5c-1.9,24.1-13,42.8-20,65h2c-0.8,9-7,33.6,7,36v2
	c19.8,17.3,23.1,40.8,31,65c2.8,8.5,8.7,22,6.4,31c-1.5,5.9-7.8,8.7-11.4,13l1,1c4-2.1,7.5-4.4,12-5l1-2c0-31.1-11.9-61-24-89h2
	c23.5,19.1,52.8,32.8,75,53l1-1v-2c-5-7.9-18.2-13.5-26-18.7c-17.9-11.9-35.4-24.3-52-38c-7.4-6.2-18.8-10.3-21.8-20.3
	c-4.8-16.1,4.4-32.2,9.5-47c1.9-5.4,2.4-13.3,6-17.8c3.5-4.3,9.8-1.4,14-5.5c9.6-9.4,12.2-32.5,8.3-44.7h-2v2c0.7,8.6,0.7,16.4,0,25
	h-2c-1.9-2.2-3.3-3.1-6-4v2c-2.8,3-4.3,6-5,10h2l6-8l1,1c-0.2,5.2-1.6,11-5.4,14.8c-5.2,5.4-8-2.2-7.4-6.8c0.8-5.7,4.9-10.1,7.4-15
	c4.4-8.7,10.5-22.7,12.4-32h2l3,2l1-1v-2c-4.4-10.4,0.5-21.3,1-32c0.4-9.4-3-18.5-3-28h-2H256z"/>
<path class="st18" d="M240,125v2c2.4,4.1,3.9,8.2,4,13h2C246,133.9,246,128.1,240,125z"/>
<path class="st19" d="M100,141h2l19-12v-2h-2C110.6,129.2,101.1,130.7,100,141z"/>
<path class="st20" d="M115,135v2c11.3,4.2,22.2,9.5,34,12v-2c-1-3.6,0.4-4.4,4-5v2l1,1l1-1v-2c-4.7-3.4-15.6-10.8-20-4h-2
	C127.4,134.6,121.3,132.8,115,135z"/>
<path class="st21" d="M71,137l-1,2l-2,20l1-1c3.1-6.5,4-13.9,4-21H71z"/>
<path class="st22" d="M209,145v-3l-1-1c-8.3-0.7-15.4-2.3-17,8h2h2v-3c4.6-2.5,7.1-2.3,12-1v2l-8,3v2h2c11.1-4.3,24.6-11.4,31,3h2
	v-2c-0.7-6-7.8-16.5-14.9-15.2C215.2,138.5,212.9,143.5,209,145z"/>
<path class="st23" d="M260,138c0,4.4-0.3,8.7,1,13l1-1v-2L260,138z"/>
<path class="st24" d="M129,139v2c4.4,1.4,8.4,2,13,2v-2C138.6,138.6,133.2,139.5,129,139z"/>
<path class="st25" d="M159,140l-1,1v6h2c1-2.3,1-4.5,1-7H159z"/>
<path class="st26" d="M195,149h-2h-2v-2l1-1l-1-1l-1,1c-0.4,1.9-0.4,2.1,0,4h-2l1,1h2c2.8-0.2,5.3,0.3,8,1v-2l8-3v-2
	C201.5,143,196.9,142.5,195,149z"/>
<path class="st27" d="M178,144v2c1.2,1.9,1.9,2.2,4,3v-2v-3h-2H178z"/>
<path class="st28" d="M185,145v2c1.7,1.8,2.6,2.3,5,3l-2-5H185z"/>
<path class="st29" d="M221,148l1,1l4,2l1-1l-1-1L221,148z"/>
<path class="st30" d="M74,149l-1,1c-2.1,8.3-2,16.5-2,25h2l2-1l1,1c-5.3,7.3-1.5,14.2,3,21h2c4.3-14.6-5-32.1-5-47H74z"/>
<path class="st31" d="M136,150v2l7,2v2h-2v2l1,1l3,1v2h-2h-7v-2c5.8-12.4-21.5-6.7-27-6v2c3.9,1.6,8,0.3,12,1.4
	c3.9,1.1,6.1,4.9,10,6c6,1.8,13.7,0.6,20,0.6v-2C149.2,155,142.9,151.2,136,150z"/>
<path class="st32" d="M152,150v2c2.5,4.8,4,8.5,4,14l1-1v-2h2l1,1l-1,1v2h2l3-2v-2c-1.9-2.1-2.1-3.1-2-6h-2
	C157.6,153.9,155.4,151.8,152,150z"/>
<path class="st33" d="M66,151v21l1-1C67,164.8,68.4,156.7,66,151z"/>
<path class="st34" d="M256,153v3v7h2c-0.6-2.9-0.6-5.1,0-8l1,1v5l1-1c0.5-2,0.7-2.5,2-4l-1-1l-1-1L256,153z"/>
<path class="st35" d="M258,155l-1,1v6h2C259,159.5,259,157.3,258,155z"/>
<path class="st36" d="M180,156l-1,1c-3.4,6.1-3.2,11.3-2,18h2v-2c0-6,0.7-10.5,3-16C181.4,155.7,181.9,156,180,156z"/>
<path class="st37" d="M209,169v-2c-4.8,0-8-0.2-12-3l-1,1v2l-10-1v-2c14.9-4.7,26.3,5.7,41,6v-2c-11.1-3.2-20.1-7.5-32-8l1-1l5-1
	l-1-1c-4.5,0-23.9,3.9-12.9,11C193.2,171.9,202.4,169.5,209,169z"/>
<path class="st38" d="M208,158l1,1c3.1,1.9,6.6,2.9,10,4l1-1l-1-1C215.3,158.7,212.3,158,208,158z"/>
<path class="st39" d="M186,164v2h2l8,1v-2C193.5,161.1,189.8,162.4,186,164z"/>
<path class="st40" d="M195,162l1,2c4.2,3,9.1,2.1,13,5c1.3-0.6,1-0.1,1-2h3l-1-1C206.3,164.2,201,162.8,195,162z"/>
<path class="st41" d="M150,165v3l-5,5l1,1h2c2.6-2.9,4.2-5.2,5-9H150z"/>
<path class="st42" d="M197,173v2l10,1l-1-1C203.1,173.6,200.2,173.3,197,173z"/>
<path class="st43" d="M257,176l-1,9l1-1C257.5,181.1,258.1,178.8,257,176z"/>
<path class="st44" d="M248,180v3l-2,4l1,1l2,1c1.3-0.6,1-0.1,1-2c2.2-1.9,2-4.1,2-7h-2H248z"/>
<path class="st45" d="M255,185l-2,10l1,1C255,192.3,256.4,188.7,255,185z"/>
<path class="st46" d="M150,209v-2c-17.1-8,3-12.1,4-21h-2c-4.3,2.1-9.6,4-12.4,8.1C134.2,201.9,142.8,208.6,150,209z"/>
<path class="st47" d="M181,193v2c3.5,4.3,6.2,7.3,5,13h-2c-4.5-5.2-13.3,0.4-19-0.2c-5-0.5-9.1-3.9-14-4.8l1,2
	c7.7,6.1,14.6,12.1,25,9.4C188.3,211.5,196.2,197,181,193z"/>
<path class="st48" d="M86,195l1,1c-2.2,9.3,0.3,17.8,1,27l1-1c-0.4-9.3-1.7-17.7-1-27H86z"/>
<path class="st49" d="M171,209v2c3.5,2.4,5.6,1.3,9-1v-2h-2L171,209z"/>
<path class="st50" d="M104,232h2c1.6-6.3-1-14.3-1-21C97.8,215,102,225.7,104,232z"/>
<path class="st51" d="M116,218l1,2c18.7,15.9,44.5,20.6,68,16v2c-11.1,3-19.6,4.1-31,4v2c14.6,3.8,29.8,1,39-12l-1-1h-13v2
	c-5.2,1.6-9.7,1.7-15,1v-2l1-1h10v-2C153.6,229,136.4,222.7,116,218z"/>
<path class="st52" d="M164,231v2c4.8,2.9,9.7,1.2,15,1v-2l2-1l-1-1L164,231z"/>
<path class="st53" d="M153,231v2l7,2v-2C157.7,231.8,155.6,231.3,153,231z"/>
<path class="st54" d="M131,232v2c3.7,2.6,6.5,5.3,11,6v-2C138.3,235.9,135.1,233.3,131,232z"/>
<path class="st55" d="M144,242v2h7v-2H144z"/>
<path class="st56" d="M216,262v15l1-1C217,271.5,217.8,266.2,216,262z"/>
<path class="st57" d="M94,272v9l1-1C95,277.2,95.1,274.6,94,272z"/>
<path class="st58" d="M221,291v2c1.7,6.7,6.9,11.9,7.8,19c0.7,5.9-1.8,11.2-1.8,17c-0.1,9.7,2.8,20.7,5.5,29.9
	c4.1,13.5,14,25.7,15.5,40.1h2c15.7-6.9,10-21,6.4-34C249.3,339.2,245,306.1,221,291z"/>
<path class="st59" d="M216,293v2v13h2l2-6l1,1v5h5v2c0,17.5-11.2,29.5-14,46l1-1l12-17l1,1c2.7,21.4,13.7,39.2,18,60h-2l-1-1l-1,1v2
	l1,1h6v-2c0-15.7-10.2-27.6-14.5-42c-2.5-8.6-5.4-19-5.5-28c-0.1-6.5,2.6-12.4,1.8-19C227.9,303.4,223,296,216,293z"/>
<path class="st60" d="M31,328l-1-1v-2c-10,0.2-25.5,5.6-29.3,16C-3.5,352.8,0,371.5,0,384v97h2h150c-0.6-1.3-0.1-1-2-1
	c4.1-7.8,8-19.8,14-26c-0.6-1.3-0.1-1-2-1v-4l-1,1v3h-2c-2.4-23.6-31.4-37.4-51-43.7c-10.4-3.3-22.2-4.9-29-14.3h-2v2
	c-12.7-1.1-10-12.8-16.4-19.6c-6.3-6.7-19.1-8-27.6-10.4v-2h2c9.2,3,18.2,7.9,28,8v-2l1-7h-2c0.1-2.9,0.5-3.5,3-5v-2
	c0.7-8.2,3.4-16,5-24c2.4-11.9,1.6-26.4,14-33l1,12l1-1l3-16h-2C67.9,301.5,45,313.3,31,328z"/>
<path class="st61" d="M40,317l1,1c12.1-0.3,24.1-14.6,36-18l-1-1l-1-1C62.7,303.1,52.2,311.7,40,317z"/>
<path class="st62" d="M65,359h-2c-1.3,1.8-1.6,2.9-2,5h2l1,1l-1,1v7h-2c-9.7-1-18.2-7.1-28-8v2c8.5,3.2,19.9,3.8,26.8,10.4
	c7.6,7.3,4.1,17.5,17.2,20.6v-2c-4.3-3.8-8.6-6.4-10.9-12c-4.4-11.1,0.6-25.1,3.3-36c2.4-9.7,3.6-19.5,6.9-29
	c2.3-6.4,7.2-12.1,7.7-19c-6.1,2.1-8.4,7.3-10.7,13C68.4,325.2,65.1,345.8,65,359z"/>
<path class="st63" d="M85,305c-6.1,3.2-8,10.8-10,17c-5.2,15.9-10,35.3-10,52c0,7.7,1.4,18.9,11,20.5c7.2,1.2,9.3-15.6,10.5-20.5
	c4.2-16.6-2.7-26.9-4.3-43C81.4,322.6,85,313.6,85,305z"/>
<path class="st64" d="M239,306v2c10.3,16.8,14.8,36,19.1,55c3.3,14.6,6.8,27.3,2.2,42c-1,3.3,1,5,1,8.1c-0.2,6-7.6,11.4-12.3,13.9
	v-2c4.6-7.7,5-14.3,5-23h-5v-2l1-1h-2v-5l-1,1v7h-2h-5v-2v-2l1,1h3v-2c-5.8-20.1-15.3-38-18-59h-2l-1,1v2
	c0.1,13.9-14.4,31.3-21.1,43c-17.8,31.1-29,66.9-49.9,96l1,1h164v-2V373h-2c-11.7,10.2-31.3,20.7-38,35h-2l-1-1v-2
	c7.2-10.2,20.3-17.8,30-25.6c4.4-3.5,11.2-7.5,12.7-13.4c2.3-9.4-8.3-13.5-14.7-17.4c-15.3-9.5-30.2-19.7-45-29.9
	C250.9,314.5,246.4,307.8,239,306z"/>
<path class="st65" d="M231,307v2l1,14l2,1h2v-2l-3-15H231z"/>
<path class="st66" d="M0,341l1-1c7.6-8.3,17.5-14.5,29-15v2l1,1l11-9l-1-1h-2C27.1,322,1.2,325.1,0,341z"/>
<path class="st67" d="M7,347v2l1,1c6.5-4,12-8.2,17-14l-1-1L7,347z"/>
<path class="st68" d="M222,340l-1,1l-8,15l-1-2l-1,1v2l3,1l1-1l7-15l1,2l1-1v-2L222,340z"/>
<path class="st69" d="M222,342v2c-9.5,10.9-14.9,25.5-21.9,38c-17.7,31.9-33.2,64.8-50.1,97l1,1h2c19.7-32,32.4-67.8,51.9-100
	C209.8,371.9,225.3,351.6,222,342z"/>
<path class="st70" d="M16,359l1,1c0.6,1.3,0.1,1,2,1v2c-3.8,3.2-6.3,5.9-7,11h2c3.3-4.5,6.9-8.4,8-14h-3L16,359z"/>
<path class="st71" d="M91,363v2l-4,15l-1-2l-1,1v2c-2.8,4.5-5.3,12.1-1.4,16.7c4,4.8,12.8,5.7,18.4,7.6c14.5,5,30.1,16.4,45,18.7v-2
	l-1-5h-2l-3,1v-2l-1-2l-1,1l-11-15l-1,1l-1,3h-2v-2l2-3v-2c-10.5-11.4-23.7-21.8-33-34H91z"/>
<path class="st72" d="M289,364v2h6v-2H289z"/>
<path class="st73" d="M295,370v2h2l13-6v-2h-2L295,370z"/>
<path class="st74" d="M316,368l-1,1c-8.9,8.7-19.1,16.5-29,24.1c-5.5,4.2-11.4,7.4-12,14.9h2c10.5-9.7,21-19,32-28.2
	C311.6,376.7,318.1,373.4,316,368z"/>
<path class="st75" d="M243,370v2c2.9,5,6,8.5,12,9l-1-1C250.7,376.7,247.5,371.4,243,370z"/>
<path class="st76" d="M294,370l-2,1l-4,2v2h2l6-2l-1-2L294,370z"/>
<path class="st77" d="M230,374v2c-5.1,3-8.9,8-12,13l1,1h2l1-1v-2c5.2-2.8,8.6-7.2,10-13H230z"/>
<path class="st78" d="M72,377l-1,7h2l9-7v-2C78.6,376,75.6,377,72,377z"/>
<path class="st79" d="M193,382v2c-4.4,3.4-7.4,7.4-8,13h2l8-14C194.4,381.7,194.9,382,193,382z"/>
<path class="st80" d="M233,385v3c-3.5,3.5-5.3,7.1-6,12l2-1l7-13l-1-1H233z"/>
<path class="st81" d="M80,393l-1,2c5,10.5,20.1,11.7,30,15c19.7,6.6,45.9,20.2,50,43h2c-0.6-27.4-33-38.2-54-46.2
	c-8.2-3.1-22.2-4.1-25-13.8H80z"/>
<path class="st82" d="M262,395v2c-4.2-0.3-7.4,1.9-11,4l1,1h2v2c0,8.7-3.5,14.8-5,23h2c11.7-9,9.5-17.9,12-31L262,395z"/>
<path class="st83" d="M226,397v2c-5.6,5.5-11.2,15.1-12,23h2c4-6.5,7.1-15.4,12-21L226,397z"/>
<path class="st84" d="M266,401v2l1,12h2l-1-14H266z"/>
<path class="st85" d="M167,420h2c3.3-3.2,5.9-6.9,8-11l-1-1C171.6,411.1,168.6,414.8,167,420z"/>
<path class="st86" d="M275,412l-1,2v5h2C276,416.5,276,414.3,275,412z"/>
<path class="st87" d="M316,415v47l1-1C317,448,321,426.9,316,415z"/>
<path class="st88" d="M113,417v2c4.9,6.4,10.8,13.4,19,15v-2c-5.8-4.4-8.8-7.6-8-15h-2C118.6,418.1,116.4,417.8,113,417z"/>
<path class="st89" d="M163,421l-1,1c-1.5,4-3.8,7.4-6,11l1,1c4.3-3.2,6.3-7,8-12C164.4,420.7,164.9,421,163,421z"/>
<path class="st90" d="M216,431l-1,2v2l1,1h2v-2v-3H216z"/>
<path class="st91" d="M213,440l-1,1c-2.6,2.9-5.7,5-9,7v-2c-4.9,1.4-7.9,5.1-12,8v2l1,1c8.6-0.5,23.1-6.9,25-16l-2-1H213z"/>
<path class="st92" d="M286,443v2l1,2h2v-2v-2H286z"/>
<path class="st93" d="M175,470l1,1h2l1-1v-2l-1-1L175,470z"/>
<path class="st94" d="M52,474v2h14v-2H52z"/>
</svg>
