<?xml version="1.0" encoding="UTF-8" standalone="no"?>
<!DOCTYPE svg PUBLIC "-//W3C//DTD SVG 1.1//EN"
 "http://www.w3.org/Graphics/SVG/1.1/DTD/svg11.dtd">
<!-- Generated by graphviz version 2.40.1 (20161225.0304)
 -->
<!-- Title: dependencies Pages: 1 -->
<svg width="1361pt" height="284pt"
 viewBox="0.00 0.00 1361.00 284.00" xmlns="http://www.w3.org/2000/svg" xmlns:xlink="http://www.w3.org/1999/xlink">
<g id="graph0" class="graph" transform="scale(1 1) rotate(0) translate(4 280)">
<title>dependencies</title>
<polygon fill="#ffffff" stroke="transparent" points="-4,4 -4,-280 1357,-280 1357,4 -4,4"/>
<text text-anchor="start" x="655.5091" y="-42.4" font-family="sans-serif" font-weight="bold" font-size="14.00" fill="#000000">Legend</text>
<polygon fill="#ffffb3" stroke="transparent" points="442.5,-10 442.5,-30 462.5,-30 462.5,-10 442.5,-10"/>
<text text-anchor="start" x="466.129" y="-15.4" font-family="sans-serif" font-size="14.00" fill="#000000"> &#160;Declarations</text>
<polygon fill="#8dd3c7" stroke="transparent" points="555.5,-10 555.5,-30 575.5,-30 575.5,-10 555.5,-10"/>
<text text-anchor="start" x="579.2251" y="-15.4" font-family="sans-serif" font-size="14.00" fill="#000000"> &#160;Module</text>
<polygon fill="#80b1d3" stroke="transparent" points="641.5,-10 641.5,-30 661.5,-30 661.5,-10 641.5,-10"/>
<text text-anchor="start" x="665.2812" y="-15.4" font-family="sans-serif" font-size="14.00" fill="#000000"> &#160;Bootstrap</text>
<polygon fill="#fdb462" stroke="transparent" points="738.5,-10 738.5,-30 758.5,-30 758.5,-10 738.5,-10"/>
<text text-anchor="start" x="762.1732" y="-15.4" font-family="sans-serif" font-size="14.00" fill="#000000"> &#160;Providers</text>
<polygon fill="#fb8072" stroke="transparent" points="834.5,-10 834.5,-30 854.5,-30 854.5,-10 834.5,-10"/>
<text text-anchor="start" x="858.2258" y="-15.4" font-family="sans-serif" font-size="14.00" fill="#000000"> &#160;Exports</text>
<g id="clust1" class="cluster">
<title>cluster_AppModule</title>
<polygon fill="none" stroke="#000000" stroke-dasharray="1,5" points="8,-70 8,-268 1345,-268 1345,-70 8,-70"/>
</g>
<g id="clust2" class="cluster">
<title>cluster_AppModule_declarations</title>
<polygon fill="none" stroke="#000000" points="1215,-78 1215,-130 1337,-130 1337,-78 1215,-78"/>
</g>
<g id="clust4" class="cluster">
<title>cluster_AppModule_imports</title>
<polygon fill="none" stroke="#000000" points="212,-78 212,-130 1207,-130 1207,-78 212,-78"/>
</g>
<g id="clust6" class="cluster">
<title>cluster_AppModule_bootstrap</title>
<polygon fill="none" stroke="#000000" points="692,-208 692,-260 816,-260 816,-208 692,-208"/>
</g>
<g id="clust7" class="cluster">
<title>cluster_AppModule_providers</title>
<polygon fill="none" stroke="#000000" points="16,-78 16,-130 204,-130 204,-78 16,-78"/>
</g>
<!-- AppComponent -->
<g id="node1" class="node">
<title>AppComponent</title>
<polygon fill="#ffffb3" stroke="#000000" points="1328.9399,-122 1223.0601,-122 1223.0601,-86 1328.9399,-86 1328.9399,-122"/>
<text text-anchor="middle" x="1276" y="-99.8" font-family="Times,serif" font-size="14.00" fill="#000000">AppComponent</text>
</g>
<!-- AppModule -->
<g id="node2" class="node">
<title>AppModule</title>
<polygon fill="#8dd3c7" stroke="#000000" points="795.6571,-187 792.6571,-191 771.6571,-191 768.6571,-187 712.3429,-187 712.3429,-151 795.6571,-151 795.6571,-187"/>
<text text-anchor="middle" x="754" y="-164.8" font-family="Times,serif" font-size="14.00" fill="#000000">AppModule</text>
</g>
<!-- AppComponent&#45;&gt;AppModule -->
<g id="edge1" class="edge">
<title>AppComponent&#45;&gt;AppModule</title>
<path fill="none" stroke="#000000" d="M1276,-122.2921C1276,-144.2057 1276,-178 1276,-178 1276,-178 805.8351,-178 805.8351,-178"/>
<polygon fill="#000000" stroke="#000000" points="805.8351,-174.5001 795.8351,-178 805.835,-181.5001 805.8351,-174.5001"/>
</g>
<!-- AppComponent  -->
<g id="node9" class="node">
<title>AppComponent </title>
<polygon fill="#80b1d3" stroke="#000000" points="808.439,-252 699.561,-252 699.561,-216 808.439,-216 808.439,-252"/>
<text text-anchor="middle" x="754" y="-229.8" font-family="Times,serif" font-size="14.00" fill="#000000">AppComponent </text>
</g>
<!-- AppModule&#45;&gt;AppComponent  -->
<g id="edge8" class="edge">
<title>AppModule&#45;&gt;AppComponent </title>
<path fill="none" stroke="#000000" stroke-dasharray="1,5" d="M754,-187.1061C754,-187.1061 754,-205.991 754,-205.991"/>
<polygon fill="#000000" stroke="#000000" points="750.5001,-205.9909 754,-215.991 757.5001,-205.991 750.5001,-205.9909"/>
</g>
<!-- BrowserModule -->
<g id="node3" class="node">
<title>BrowserModule</title>
<polygon fill="#8dd3c7" stroke="#000000" points="1199.4734,-122 1196.4734,-126 1175.4734,-126 1172.4734,-122 1092.5266,-122 1092.5266,-86 1199.4734,-86 1199.4734,-122"/>
<text text-anchor="middle" x="1146" y="-99.8" font-family="Times,serif" font-size="14.00" fill="#000000">BrowserModule</text>
</g>
<!-- BrowserModule&#45;&gt;AppModule -->
<g id="edge2" class="edge">
<title>BrowserModule&#45;&gt;AppModule</title>
<path fill="none" stroke="#000000" d="M1146,-122.1061C1146,-141.3391 1146,-169 1146,-169 1146,-169 805.9509,-169 805.9509,-169"/>
<polygon fill="#000000" stroke="#000000" points="805.9509,-165.5001 795.9509,-169 805.9508,-172.5001 805.9509,-165.5001"/>
</g>
<!-- SharedModuleModule -->
<g id="node4" class="node">
<title>SharedModuleModule</title>
<polygon fill="#8dd3c7" stroke="#000000" points="1074.972,-122 1071.972,-126 1050.972,-126 1047.972,-122 933.028,-122 933.028,-86 1074.972,-86 1074.972,-122"/>
<text text-anchor="middle" x="1004" y="-99.8" font-family="Times,serif" font-size="14.00" fill="#000000">SharedModuleModule</text>
</g>
<!-- SharedModuleModule&#45;&gt;AppModule -->
<g id="edge3" class="edge">
<title>SharedModuleModule&#45;&gt;AppModule</title>
<path fill="none" stroke="#000000" d="M1004,-122.027C1004,-138.3976 1004,-160 1004,-160 1004,-160 805.8444,-160 805.8444,-160"/>
<polygon fill="#000000" stroke="#000000" points="805.8444,-156.5001 795.8444,-160 805.8443,-163.5001 805.8444,-156.5001"/>
</g>
<!-- ContentModuleModule -->
<g id="node5" class="node">
<title>ContentModuleModule</title>
<polygon fill="#8dd3c7" stroke="#000000" points="914.9326,-122 911.9326,-126 890.9326,-126 887.9326,-122 767.0674,-122 767.0674,-86 914.9326,-86 914.9326,-122"/>
<text text-anchor="middle" x="841" y="-99.8" font-family="Times,serif" font-size="14.00" fill="#000000">ContentModuleModule</text>
</g>
<!-- ContentModuleModule&#45;&gt;AppModule -->
<g id="edge4" class="edge">
<title>ContentModuleModule&#45;&gt;AppModule</title>
<path fill="none" stroke="#000000" d="M781.5561,-122.1061C781.5561,-122.1061 781.5561,-140.991 781.5561,-140.991"/>
<polygon fill="#000000" stroke="#000000" points="778.0562,-140.9909 781.5561,-150.991 785.0562,-140.991 778.0562,-140.9909"/>
</g>
<!-- NavigationModuleModule -->
<g id="node6" class="node">
<title>NavigationModuleModule</title>
<polygon fill="#8dd3c7" stroke="#000000" points="749.8075,-122 746.8075,-126 725.8075,-126 722.8075,-122 584.1925,-122 584.1925,-86 749.8075,-86 749.8075,-122"/>
<text text-anchor="middle" x="667" y="-99.8" font-family="Times,serif" font-size="14.00" fill="#000000">NavigationModuleModule</text>
</g>
<!-- NavigationModuleModule&#45;&gt;AppModule -->
<g id="edge5" class="edge">
<title>NavigationModuleModule&#45;&gt;AppModule</title>
<path fill="none" stroke="#000000" d="M730.9127,-122.1061C730.9127,-122.1061 730.9127,-140.991 730.9127,-140.991"/>
<polygon fill="#000000" stroke="#000000" points="727.4128,-140.9909 730.9127,-150.991 734.4128,-140.991 727.4128,-140.9909"/>
</g>
<!-- ServicesModuleModule -->
<g id="node7" class="node">
<title>ServicesModuleModule</title>
<polygon fill="#8dd3c7" stroke="#000000" points="566.0226,-122 563.0226,-126 542.0226,-126 539.0226,-122 415.9774,-122 415.9774,-86 566.0226,-86 566.0226,-122"/>
<text text-anchor="middle" x="491" y="-99.8" font-family="Times,serif" font-size="14.00" fill="#000000">ServicesModuleModule</text>
</g>
<!-- ServicesModuleModule&#45;&gt;AppModule -->
<g id="edge6" class="edge">
<title>ServicesModuleModule&#45;&gt;AppModule</title>
<path fill="none" stroke="#000000" d="M491,-122.027C491,-138.3976 491,-160 491,-160 491,-160 702.3269,-160 702.3269,-160"/>
<polygon fill="#000000" stroke="#000000" points="702.3269,-163.5001 712.3269,-160 702.3268,-156.5001 702.3269,-163.5001"/>
</g>
<!-- RouterModule.forRoot(args) -->
<g id="node8" class="node">
<title>RouterModule.forRoot(args)</title>
<polygon fill="#8dd3c7" stroke="#000000" points="397.8419,-122 394.8419,-126 373.8419,-126 370.8419,-122 220.1581,-122 220.1581,-86 397.8419,-86 397.8419,-122"/>
<text text-anchor="middle" x="309" y="-99.8" font-family="Times,serif" font-size="14.00" fill="#000000">RouterModule.forRoot(args)</text>
</g>
<!-- RouterModule.forRoot(args)&#45;&gt;AppModule -->
<g id="edge7" class="edge">
<title>RouterModule.forRoot(args)&#45;&gt;AppModule</title>
<path fill="none" stroke="#000000" d="M309,-122.1061C309,-141.3391 309,-169 309,-169 309,-169 702.1355,-169 702.1355,-169"/>
<polygon fill="#000000" stroke="#000000" points="702.1355,-172.5001 712.1355,-169 702.1354,-165.5001 702.1355,-172.5001"/>
</g>
<!-- PostServiceService -->
<g id="node10" class="node">
<title>PostServiceService</title>
<ellipse fill="#fdb462" stroke="#000000" cx="110" cy="-104" rx="85.6667" ry="18"/>
<text text-anchor="middle" x="110" y="-99.8" font-family="Times,serif" font-size="14.00" fill="#000000">PostServiceService</text>
</g>
<!-- PostServiceService&#45;&gt;AppModule -->
<g id="edge9" class="edge">
<title>PostServiceService&#45;&gt;AppModule</title>
<path fill="none" stroke="#000000" d="M110,-122.2921C110,-144.2057 110,-178 110,-178 110,-178 702.2416,-178 702.2416,-178"/>
<polygon fill="#000000" stroke="#000000" points="702.2416,-181.5001 712.2416,-178 702.2415,-174.5001 702.2416,-181.5001"/>
</g>
</g>
</svg>
