<?xml version="1.0" encoding="UTF-8" standalone="no"?>
<!DOCTYPE svg PUBLIC "-//W3C//DTD SVG 1.1//EN"
 "http://www.w3.org/Graphics/SVG/1.1/DTD/svg11.dtd">
<!-- Generated by graphviz version 2.40.1 (20161225.0304)
 -->
<!-- Title: dependencies Pages: 1 -->
<svg width="1924pt" height="284pt"
 viewBox="0.00 0.00 1924.00 284.00" xmlns="http://www.w3.org/2000/svg" xmlns:xlink="http://www.w3.org/1999/xlink">
<g id="graph0" class="graph" transform="scale(1 1) rotate(0) translate(4 280)">
<title>dependencies</title>
<polygon fill="#ffffff" stroke="transparent" points="-4,4 -4,-280 1920,-280 1920,4 -4,4"/>
<text text-anchor="start" x="937.0091" y="-42.4" font-family="sans-serif" font-weight="bold" font-size="14.00" fill="#000000">Legend</text>
<polygon fill="#ffffb3" stroke="transparent" points="724,-10 724,-30 744,-30 744,-10 724,-10"/>
<text text-anchor="start" x="747.629" y="-15.4" font-family="sans-serif" font-size="14.00" fill="#000000"> &#160;Declarations</text>
<polygon fill="#8dd3c7" stroke="transparent" points="837,-10 837,-30 857,-30 857,-10 837,-10"/>
<text text-anchor="start" x="860.7251" y="-15.4" font-family="sans-serif" font-size="14.00" fill="#000000"> &#160;Module</text>
<polygon fill="#80b1d3" stroke="transparent" points="923,-10 923,-30 943,-30 943,-10 923,-10"/>
<text text-anchor="start" x="946.7812" y="-15.4" font-family="sans-serif" font-size="14.00" fill="#000000"> &#160;Bootstrap</text>
<polygon fill="#fdb462" stroke="transparent" points="1020,-10 1020,-30 1040,-30 1040,-10 1020,-10"/>
<text text-anchor="start" x="1043.6732" y="-15.4" font-family="sans-serif" font-size="14.00" fill="#000000"> &#160;Providers</text>
<polygon fill="#fb8072" stroke="transparent" points="1116,-10 1116,-30 1136,-30 1136,-10 1116,-10"/>
<text text-anchor="start" x="1139.7258" y="-15.4" font-family="sans-serif" font-size="14.00" fill="#000000"> &#160;Exports</text>
<g id="clust1" class="cluster">
<title>cluster_SharedModule</title>
<polygon fill="none" stroke="#000000" stroke-dasharray="1,5" points="8,-70 8,-268 1908,-268 1908,-70 8,-70"/>
</g>
<g id="clust2" class="cluster">
<title>cluster_SharedModule_declarations</title>
<polygon fill="none" stroke="#000000" points="696,-78 696,-130 1883,-130 1883,-78 696,-78"/>
</g>
<g id="clust10" class="cluster">
<title>cluster_SharedModule_imports</title>
<polygon fill="none" stroke="#000000" points="33,-78 33,-130 688,-130 688,-78 33,-78"/>
</g>
<g id="clust11" class="cluster">
<title>cluster_SharedModule_exports</title>
<polygon fill="none" stroke="#000000" points="16,-208 16,-260 1900,-260 1900,-208 16,-208"/>
</g>
<!-- ArticleListComponent -->
<g id="node1" class="node">
<title>ArticleListComponent</title>
<polygon fill="#ffffb3" stroke="#000000" points="1874.979,-122 1733.021,-122 1733.021,-86 1874.979,-86 1874.979,-122"/>
<text text-anchor="middle" x="1804" y="-99.8" font-family="Times,serif" font-size="14.00" fill="#000000">ArticleListComponent</text>
</g>
<!-- SharedModule -->
<g id="node8" class="node">
<title>SharedModule</title>
<polygon fill="#8dd3c7" stroke="#000000" points="925.4231,-187 922.4231,-191 901.4231,-191 898.4231,-187 826.5769,-187 826.5769,-151 925.4231,-151 925.4231,-187"/>
<text text-anchor="middle" x="876" y="-164.8" font-family="Times,serif" font-size="14.00" fill="#000000">SharedModule</text>
</g>
<!-- ArticleListComponent&#45;&gt;SharedModule -->
<g id="edge1" class="edge">
<title>ArticleListComponent&#45;&gt;SharedModule</title>
<path fill="none" stroke="#000000" d="M1739.6355,-122.1686C1739.6355,-141.0898 1739.6355,-168 1739.6355,-168 1739.6355,-168 935.2206,-168 935.2206,-168"/>
<polygon fill="#000000" stroke="#000000" points="935.2206,-164.5001 925.2206,-168 935.2205,-171.5001 935.2206,-164.5001"/>
</g>
<!-- ArticleMetaComponent -->
<g id="node2" class="node">
<title>ArticleMetaComponent</title>
<polygon fill="#ffffb3" stroke="#000000" points="1715.465,-122 1566.535,-122 1566.535,-86 1715.465,-86 1715.465,-122"/>
<text text-anchor="middle" x="1641" y="-99.8" font-family="Times,serif" font-size="14.00" fill="#000000">ArticleMetaComponent</text>
</g>
<!-- ArticleMetaComponent&#45;&gt;SharedModule -->
<g id="edge2" class="edge">
<title>ArticleMetaComponent&#45;&gt;SharedModule</title>
<path fill="none" stroke="#000000" d="M1571.1425,-122.302C1571.1425,-140.2699 1571.1425,-165 1571.1425,-165 1571.1425,-165 935.4357,-165 935.4357,-165"/>
<polygon fill="#000000" stroke="#000000" points="935.4357,-161.5001 925.4357,-165 935.4356,-168.5001 935.4357,-161.5001"/>
</g>
<!-- ArticlePreviewComponent -->
<g id="node3" class="node">
<title>ArticlePreviewComponent</title>
<polygon fill="#ffffb3" stroke="#000000" points="1548.0702,-122 1381.9298,-122 1381.9298,-86 1548.0702,-86 1548.0702,-122"/>
<text text-anchor="middle" x="1465" y="-99.8" font-family="Times,serif" font-size="14.00" fill="#000000">ArticlePreviewComponent</text>
</g>
<!-- ArticlePreviewComponent&#45;&gt;SharedModule -->
<g id="edge3" class="edge">
<title>ArticlePreviewComponent&#45;&gt;SharedModule</title>
<path fill="none" stroke="#000000" d="M1494.7617,-122.0352C1494.7617,-138.7344 1494.7617,-161 1494.7617,-161 1494.7617,-161 935.3299,-161 935.3299,-161"/>
<polygon fill="#000000" stroke="#000000" points="935.3299,-157.5001 925.3299,-161 935.3298,-164.5001 935.3299,-157.5001"/>
</g>
<!-- FavoriteButtonComponent -->
<g id="node4" class="node">
<title>FavoriteButtonComponent</title>
<polygon fill="#ffffb3" stroke="#000000" points="1364.1038,-122 1197.8962,-122 1197.8962,-86 1364.1038,-86 1364.1038,-122"/>
<text text-anchor="middle" x="1281" y="-99.8" font-family="Times,serif" font-size="14.00" fill="#000000">FavoriteButtonComponent</text>
</g>
<!-- FavoriteButtonComponent&#45;&gt;SharedModule -->
<g id="edge4" class="edge">
<title>FavoriteButtonComponent&#45;&gt;SharedModule</title>
<path fill="none" stroke="#000000" d="M1217.875,-122.2819C1217.875,-137.9478 1217.875,-158 1217.875,-158 1217.875,-158 935.3464,-158 935.3464,-158"/>
<polygon fill="#000000" stroke="#000000" points="935.3465,-154.5001 925.3464,-158 935.3464,-161.5001 935.3465,-154.5001"/>
</g>
<!-- FollowButtonComponent -->
<g id="node5" class="node">
<title>FollowButtonComponent</title>
<polygon fill="#ffffb3" stroke="#000000" points="1179.6206,-122 1020.3794,-122 1020.3794,-86 1179.6206,-86 1179.6206,-122"/>
<text text-anchor="middle" x="1100" y="-99.8" font-family="Times,serif" font-size="14.00" fill="#000000">FollowButtonComponent</text>
</g>
<!-- FollowButtonComponent&#45;&gt;SharedModule -->
<g id="edge5" class="edge">
<title>FollowButtonComponent&#45;&gt;SharedModule</title>
<path fill="none" stroke="#000000" d="M1035.375,-122.1243C1035.375,-136.7832 1035.375,-155 1035.375,-155 1035.375,-155 935.5536,-155 935.5536,-155"/>
<polygon fill="#000000" stroke="#000000" points="935.5537,-151.5001 925.5536,-155 935.5536,-158.5001 935.5537,-151.5001"/>
</g>
<!-- ListErrorsComponent -->
<g id="node6" class="node">
<title>ListErrorsComponent</title>
<polygon fill="#ffffb3" stroke="#000000" points="1002.0898,-122 863.9102,-122 863.9102,-86 1002.0898,-86 1002.0898,-122"/>
<text text-anchor="middle" x="933" y="-99.8" font-family="Times,serif" font-size="14.00" fill="#000000">ListErrorsComponent</text>
</g>
<!-- ListErrorsComponent&#45;&gt;SharedModule -->
<g id="edge6" class="edge">
<title>ListErrorsComponent&#45;&gt;SharedModule</title>
<path fill="none" stroke="#000000" d="M894.5831,-122.1061C894.5831,-122.1061 894.5831,-140.991 894.5831,-140.991"/>
<polygon fill="#000000" stroke="#000000" points="891.0832,-140.9909 894.5831,-150.991 898.0832,-140.991 891.0832,-140.9909"/>
</g>
<!-- ShowAuthedDirective -->
<g id="node7" class="node">
<title>ShowAuthedDirective</title>
<polygon fill="#ffffb3" stroke="#000000" points="845.6839,-122 704.3161,-122 704.3161,-86 845.6839,-86 845.6839,-122"/>
<text text-anchor="middle" x="775" y="-99.8" font-family="Times,serif" font-size="14.00" fill="#000000">ShowAuthedDirective</text>
</g>
<!-- ShowAuthedDirective&#45;&gt;SharedModule -->
<g id="edge7" class="edge">
<title>ShowAuthedDirective&#45;&gt;SharedModule</title>
<path fill="none" stroke="#000000" d="M836.1904,-122.1061C836.1904,-122.1061 836.1904,-140.991 836.1904,-140.991"/>
<polygon fill="#000000" stroke="#000000" points="832.6905,-140.9909 836.1904,-150.991 839.6905,-140.991 832.6905,-140.9909"/>
</g>
<!-- ArticleListComponent  -->
<g id="node14" class="node">
<title>ArticleListComponent </title>
<polygon fill="#fb8072" stroke="#000000" points="1891.9798,-252 1746.0202,-252 1746.0202,-216 1891.9798,-216 1891.9798,-252"/>
<text text-anchor="middle" x="1819" y="-229.8" font-family="Times,serif" font-size="14.00" fill="#000000">ArticleListComponent </text>
</g>
<!-- SharedModule&#45;&gt;ArticleListComponent  -->
<g id="edge13" class="edge">
<title>SharedModule&#45;&gt;ArticleListComponent </title>
<path fill="none" stroke="#000000" stroke-dasharray="5,2" d="M925.2611,-171C1118.0256,-171 1810.625,-171 1810.625,-171 1810.625,-171 1810.625,-205.7778 1810.625,-205.7778"/>
<polygon fill="#000000" stroke="#000000" points="1807.1251,-205.7778 1810.625,-215.7778 1814.1251,-205.7778 1807.1251,-205.7778"/>
</g>
<!-- ArticleMetaComponent  -->
<g id="node15" class="node">
<title>ArticleMetaComponent </title>
<polygon fill="#fb8072" stroke="#000000" points="1728.4657,-252 1575.5343,-252 1575.5343,-216 1728.4657,-216 1728.4657,-252"/>
<text text-anchor="middle" x="1652" y="-229.8" font-family="Times,serif" font-size="14.00" fill="#000000">ArticleMetaComponent </text>
</g>
<!-- SharedModule&#45;&gt;ArticleMetaComponent  -->
<g id="edge14" class="edge">
<title>SharedModule&#45;&gt;ArticleMetaComponent </title>
<path fill="none" stroke="#000000" stroke-dasharray="5,2" d="M925.3143,-174C1095.1786,-174 1645.625,-174 1645.625,-174 1645.625,-174 1645.625,-205.998 1645.625,-205.998"/>
<polygon fill="#000000" stroke="#000000" points="1642.1251,-205.998 1645.625,-215.998 1649.1251,-205.9981 1642.1251,-205.998"/>
</g>
<!-- ArticlePreviewComponent  -->
<g id="node16" class="node">
<title>ArticlePreviewComponent </title>
<polygon fill="#fb8072" stroke="#000000" points="1557.5707,-252 1388.4293,-252 1388.4293,-216 1557.5707,-216 1557.5707,-252"/>
<text text-anchor="middle" x="1473" y="-229.8" font-family="Times,serif" font-size="14.00" fill="#000000">ArticlePreviewComponent </text>
</g>
<!-- SharedModule&#45;&gt;ArticlePreviewComponent  -->
<g id="edge15" class="edge">
<title>SharedModule&#45;&gt;ArticlePreviewComponent </title>
<path fill="none" stroke="#000000" stroke-dasharray="5,2" d="M925.6877,-178C1063.6773,-178 1441.4883,-178 1441.4883,-178 1441.4883,-178 1441.4883,-205.973 1441.4883,-205.973"/>
<polygon fill="#000000" stroke="#000000" points="1437.9884,-205.973 1441.4883,-215.973 1444.9884,-205.973 1437.9884,-205.973"/>
</g>
<!-- CommonModule  -->
<g id="node17" class="node">
<title>CommonModule </title>
<polygon fill="#fb8072" stroke="#000000" points="1370.6677,-252 1255.3323,-252 1255.3323,-216 1370.6677,-216 1370.6677,-252"/>
<text text-anchor="middle" x="1313" y="-229.8" font-family="Times,serif" font-size="14.00" fill="#000000">CommonModule </text>
</g>
<!-- SharedModule&#45;&gt;CommonModule  -->
<g id="edge16" class="edge">
<title>SharedModule&#45;&gt;CommonModule </title>
<path fill="none" stroke="#000000" stroke-dasharray="5,2" d="M925.3325,-181C1039.0139,-181 1309.7341,-181 1309.7341,-181 1309.7341,-181 1309.7341,-205.7604 1309.7341,-205.7604"/>
<polygon fill="#000000" stroke="#000000" points="1306.2341,-205.7604 1309.7341,-215.7604 1313.2341,-205.7604 1306.2341,-205.7604"/>
</g>
<!-- FavoriteButtonComponent  -->
<g id="node18" class="node">
<title>FavoriteButtonComponent </title>
<polygon fill="#fb8072" stroke="#000000" points="1237.6043,-252 1068.3957,-252 1068.3957,-216 1237.6043,-216 1237.6043,-252"/>
<text text-anchor="middle" x="1153" y="-229.8" font-family="Times,serif" font-size="14.00" fill="#000000">FavoriteButtonComponent </text>
</g>
<!-- SharedModule&#45;&gt;FavoriteButtonComponent  -->
<g id="edge17" class="edge">
<title>SharedModule&#45;&gt;FavoriteButtonComponent </title>
<path fill="none" stroke="#000000" stroke-dasharray="5,2" d="M925.2693,-184C997.5584,-184 1123.8792,-184 1123.8792,-184 1123.8792,-184 1123.8792,-205.9489 1123.8792,-205.9489"/>
<polygon fill="#000000" stroke="#000000" points="1120.3793,-205.9488 1123.8792,-215.9489 1127.3793,-205.9489 1120.3793,-205.9488"/>
</g>
<!-- FollowButtonComponent  -->
<g id="node19" class="node">
<title>FollowButtonComponent </title>
<polygon fill="#fb8072" stroke="#000000" points="1050.121,-252 887.879,-252 887.879,-216 1050.121,-216 1050.121,-252"/>
<text text-anchor="middle" x="969" y="-229.8" font-family="Times,serif" font-size="14.00" fill="#000000">FollowButtonComponent </text>
</g>
<!-- SharedModule&#45;&gt;FollowButtonComponent  -->
<g id="edge18" class="edge">
<title>SharedModule&#45;&gt;FollowButtonComponent </title>
<path fill="none" stroke="#000000" stroke-dasharray="5,2" d="M906.4504,-187.1061C906.4504,-187.1061 906.4504,-205.991 906.4504,-205.991"/>
<polygon fill="#000000" stroke="#000000" points="902.9505,-205.9909 906.4504,-215.991 909.9505,-205.991 902.9505,-205.9909"/>
</g>
<!-- FormsModule  -->
<g id="node20" class="node">
<title>FormsModule </title>
<polygon fill="#fb8072" stroke="#000000" points="869.3283,-252 770.6717,-252 770.6717,-216 869.3283,-216 869.3283,-252"/>
<text text-anchor="middle" x="820" y="-229.8" font-family="Times,serif" font-size="14.00" fill="#000000">FormsModule </text>
</g>
<!-- SharedModule&#45;&gt;FormsModule  -->
<g id="edge19" class="edge">
<title>SharedModule&#45;&gt;FormsModule </title>
<path fill="none" stroke="#000000" stroke-dasharray="5,2" d="M848.1015,-187.1061C848.1015,-187.1061 848.1015,-205.991 848.1015,-205.991"/>
<polygon fill="#000000" stroke="#000000" points="844.6016,-205.9909 848.1015,-215.991 851.6016,-205.991 844.6016,-205.9909"/>
</g>
<!-- ReactiveFormsModule  -->
<g id="node21" class="node">
<title>ReactiveFormsModule </title>
<polygon fill="#fb8072" stroke="#000000" points="752.8045,-252 605.1955,-252 605.1955,-216 752.8045,-216 752.8045,-252"/>
<text text-anchor="middle" x="679" y="-229.8" font-family="Times,serif" font-size="14.00" fill="#000000">ReactiveFormsModule </text>
</g>
<!-- SharedModule&#45;&gt;ReactiveFormsModule  -->
<g id="edge20" class="edge">
<title>SharedModule&#45;&gt;ReactiveFormsModule </title>
<path fill="none" stroke="#000000" stroke-dasharray="5,2" d="M826.5264,-184C783.7212,-184 728.6552,-184 728.6552,-184 728.6552,-184 728.6552,-205.9489 728.6552,-205.9489"/>
<polygon fill="#000000" stroke="#000000" points="725.1552,-205.9488 728.6552,-215.9489 732.1552,-205.9489 725.1552,-205.9488"/>
</g>
<!-- HttpClientModule  -->
<g id="node22" class="node">
<title>HttpClientModule </title>
<polygon fill="#fb8072" stroke="#000000" points="587.1607,-252 464.8393,-252 464.8393,-216 587.1607,-216 587.1607,-252"/>
<text text-anchor="middle" x="526" y="-229.8" font-family="Times,serif" font-size="14.00" fill="#000000">HttpClientModule </text>
</g>
<!-- SharedModule&#45;&gt;HttpClientModule  -->
<g id="edge21" class="edge">
<title>SharedModule&#45;&gt;HttpClientModule </title>
<path fill="none" stroke="#000000" stroke-dasharray="5,2" d="M826.7291,-181C741.9818,-181 577.6233,-181 577.6233,-181 577.6233,-181 577.6233,-205.7604 577.6233,-205.7604"/>
<polygon fill="#000000" stroke="#000000" points="574.1233,-205.7604 577.6233,-215.7604 581.1233,-205.7604 574.1233,-205.7604"/>
</g>
<!-- ListErrorsComponent  -->
<g id="node23" class="node">
<title>ListErrorsComponent </title>
<polygon fill="#fb8072" stroke="#000000" points="446.5904,-252 305.4096,-252 305.4096,-216 446.5904,-216 446.5904,-252"/>
<text text-anchor="middle" x="376" y="-229.8" font-family="Times,serif" font-size="14.00" fill="#000000">ListErrorsComponent </text>
</g>
<!-- SharedModule&#45;&gt;ListErrorsComponent  -->
<g id="edge22" class="edge">
<title>SharedModule&#45;&gt;ListErrorsComponent </title>
<path fill="none" stroke="#000000" stroke-dasharray="5,2" d="M826.6342,-178C712.8762,-178 441.9736,-178 441.9736,-178 441.9736,-178 441.9736,-205.973 441.9736,-205.973"/>
<polygon fill="#000000" stroke="#000000" points="438.4736,-205.973 441.9736,-215.973 445.4736,-205.973 438.4736,-205.973"/>
</g>
<!-- RouterModule  -->
<g id="node24" class="node">
<title>RouterModule </title>
<polygon fill="#fb8072" stroke="#000000" points="287.6523,-252 186.3477,-252 186.3477,-216 287.6523,-216 287.6523,-252"/>
<text text-anchor="middle" x="237" y="-229.8" font-family="Times,serif" font-size="14.00" fill="#000000">RouterModule </text>
</g>
<!-- SharedModule&#45;&gt;RouterModule  -->
<g id="edge23" class="edge">
<title>SharedModule&#45;&gt;RouterModule </title>
<path fill="none" stroke="#000000" stroke-dasharray="5,2" d="M826.5862,-174C683.9162,-174 281.4532,-174 281.4532,-174 281.4532,-174 281.4532,-205.998 281.4532,-205.998"/>
<polygon fill="#000000" stroke="#000000" points="277.9531,-205.9981 281.4532,-215.998 284.9531,-205.998 277.9531,-205.9981"/>
</g>
<!-- ShowAuthedDirective  -->
<g id="node25" class="node">
<title>ShowAuthedDirective </title>
<polygon fill="#fb8072" stroke="#000000" points="168.1841,-252 23.8159,-252 23.8159,-216 168.1841,-216 168.1841,-252"/>
<text text-anchor="middle" x="96" y="-229.8" font-family="Times,serif" font-size="14.00" fill="#000000">ShowAuthedDirective </text>
</g>
<!-- SharedModule&#45;&gt;ShowAuthedDirective  -->
<g id="edge24" class="edge">
<title>SharedModule&#45;&gt;ShowAuthedDirective </title>
<path fill="none" stroke="#000000" stroke-dasharray="5,2" d="M826.6771,-171C665.175,-171 162.5058,-171 162.5058,-171 162.5058,-171 162.5058,-205.7778 162.5058,-205.7778"/>
<polygon fill="#000000" stroke="#000000" points="159.0059,-205.7778 162.5058,-215.7778 166.0059,-205.7778 159.0059,-205.7778"/>
</g>
<!-- CommonModule -->
<g id="node9" class="node">
<title>CommonModule</title>
<polygon fill="#8dd3c7" stroke="#000000" points="679.6681,-122 676.6681,-126 655.6681,-126 652.6681,-122 568.3319,-122 568.3319,-86 679.6681,-86 679.6681,-122"/>
<text text-anchor="middle" x="624" y="-99.8" font-family="Times,serif" font-size="14.00" fill="#000000">CommonModule</text>
</g>
<!-- CommonModule&#45;&gt;SharedModule -->
<g id="edge8" class="edge">
<title>CommonModule&#45;&gt;SharedModule</title>
<path fill="none" stroke="#000000" d="M642.4658,-122.1243C642.4658,-136.7832 642.4658,-155 642.4658,-155 642.4658,-155 816.7588,-155 816.7588,-155"/>
<polygon fill="#000000" stroke="#000000" points="816.7588,-158.5001 826.7588,-155 816.7587,-151.5001 816.7588,-158.5001"/>
</g>
<!-- FormsModule -->
<g id="node10" class="node">
<title>FormsModule</title>
<polygon fill="#8dd3c7" stroke="#000000" points="550.8288,-122 547.8288,-126 526.8288,-126 523.8288,-122 455.1712,-122 455.1712,-86 550.8288,-86 550.8288,-122"/>
<text text-anchor="middle" x="503" y="-99.8" font-family="Times,serif" font-size="14.00" fill="#000000">FormsModule</text>
</g>
<!-- FormsModule&#45;&gt;SharedModule -->
<g id="edge9" class="edge">
<title>FormsModule&#45;&gt;SharedModule</title>
<path fill="none" stroke="#000000" d="M507.7919,-122.2819C507.7919,-137.9478 507.7919,-158 507.7919,-158 507.7919,-158 816.7239,-158 816.7239,-158"/>
<polygon fill="#000000" stroke="#000000" points="816.7239,-161.5001 826.7239,-158 816.7238,-154.5001 816.7239,-161.5001"/>
</g>
<!-- ReactiveFormsModule -->
<g id="node11" class="node">
<title>ReactiveFormsModule</title>
<polygon fill="#8dd3c7" stroke="#000000" points="437.3047,-122 434.3047,-126 413.3047,-126 410.3047,-122 292.6953,-122 292.6953,-86 437.3047,-86 437.3047,-122"/>
<text text-anchor="middle" x="365" y="-99.8" font-family="Times,serif" font-size="14.00" fill="#000000">ReactiveFormsModule</text>
</g>
<!-- ReactiveFormsModule&#45;&gt;SharedModule -->
<g id="edge10" class="edge">
<title>ReactiveFormsModule&#45;&gt;SharedModule</title>
<path fill="none" stroke="#000000" d="M371.1787,-122.0352C371.1787,-138.7344 371.1787,-161 371.1787,-161 371.1787,-161 816.6764,-161 816.6764,-161"/>
<polygon fill="#000000" stroke="#000000" points="816.6765,-164.5001 826.6764,-161 816.6764,-157.5001 816.6765,-164.5001"/>
</g>
<!-- HttpClientModule -->
<g id="node12" class="node">
<title>HttpClientModule</title>
<polygon fill="#8dd3c7" stroke="#000000" points="275.1611,-122 272.1611,-126 251.1611,-126 248.1611,-122 156.8389,-122 156.8389,-86 275.1611,-86 275.1611,-122"/>
<text text-anchor="middle" x="216" y="-99.8" font-family="Times,serif" font-size="14.00" fill="#000000">HttpClientModule</text>
</g>
<!-- HttpClientModule&#45;&gt;SharedModule -->
<g id="edge11" class="edge">
<title>HttpClientModule&#45;&gt;SharedModule</title>
<path fill="none" stroke="#000000" d="M230.8771,-122.302C230.8771,-140.2699 230.8771,-165 230.8771,-165 230.8771,-165 816.7158,-165 816.7158,-165"/>
<polygon fill="#000000" stroke="#000000" points="816.7158,-168.5001 826.7158,-165 816.7157,-161.5001 816.7158,-168.5001"/>
</g>
<!-- RouterModule -->
<g id="node13" class="node">
<title>RouterModule</title>
<polygon fill="#8dd3c7" stroke="#000000" points="138.6528,-122 135.6528,-126 114.6528,-126 111.6528,-122 41.3472,-122 41.3472,-86 138.6528,-86 138.6528,-122"/>
<text text-anchor="middle" x="90" y="-99.8" font-family="Times,serif" font-size="14.00" fill="#000000">RouterModule</text>
</g>
<!-- RouterModule&#45;&gt;SharedModule -->
<g id="edge12" class="edge">
<title>RouterModule&#45;&gt;SharedModule</title>
<path fill="none" stroke="#000000" d="M90,-122.1686C90,-141.0898 90,-168 90,-168 90,-168 816.5344,-168 816.5344,-168"/>
<polygon fill="#000000" stroke="#000000" points="816.5345,-171.5001 826.5344,-168 816.5344,-164.5001 816.5345,-171.5001"/>
</g>
</g>
</svg>
